SplineFontDB: 3.2
FontName: Libron-Italic
FullName: Libron Italic
FamilyName: Libron
Weight: Book
Copyright: Newsreader (c) 2020 The Newsreader Project Authors\nLibron (c) 2026 Nico Verbruggen
Version: 1.0
ItalicAngle: -17
UnderlinePosition: -303
UnderlineWidth: 96
Ascent: 1600
Descent: 400
InvalidEm: 0
sfntRevision: 0x00010000
LayerCount: 2
Layer: 0 1 "Back" 1
Layer: 1 1 "Fore" 0
XUID: [1021 960766217 990251881 30364619]
StyleMap: 0x0001
FSType: 0
OS2Version: 4
OS2_WeightWidthSlopeOnly: 0
OS2_UseTypoMetrics: 1
CreationTime: 1606394406
ModificationTime: 1780585259
PfmFamily: 17
TTFWeight: 400
TTFWidth: 5
LineGap: 0
VLineGap: 0
Panose: 2 0 0 0 0 0 0 0 0 0
OS2TypoAscent: 1600
OS2TypoAOffset: 0
OS2TypoDescent: -400
OS2TypoDOffset: 0
OS2TypoLinegap: 0
OS2WinAscent: 2080
OS2WinAOffset: 0
OS2WinDescent: 520
OS2WinDOffset: 0
HheadAscent: 2080
HheadAOffset: 0
HheadDescent: -520
HheadDOffset: 0
OS2SubXSize: 1300
OS2SubYSize: 1200
OS2SubXOff: -46
OS2SubYOff: 150
OS2SupXSize: 1300
OS2SupYSize: 1200
OS2SupXOff: 214
OS2SupYOff: 700
OS2StrikeYSize: 130
OS2StrikeYPos: 501
OS2CapHeight: 1417
OS2XHeight: 1084
OS2Vendor: 'PROD'
OS2CodePages: 20000193.00000000
OS2UnicodeRanges: 00000047.00000001.00000000.00000000
Lookup: 1 0 0 "'locl' Localized Forms in Latin lookup 0" { "'locl' Localized Forms in Latin lookup 0 subtable"  } ['locl' ('latn' <'MOL ' > ) ]
Lookup: 1 0 0 "'locl' Localized Forms in Latin lookup 1" { "'locl' Localized Forms in Latin lookup 1 subtable"  } ['locl' ('latn' <'ROM ' > ) ]
Lookup: 6 0 0 "'ordn' Ordinals in Latin lookup 2" { "'ordn' Ordinals in Latin lookup 2 contextual 0"  "'ordn' Ordinals in Latin lookup 2 contextual 1"  } ['ordn' ('DFLT' <'dflt' > 'latn' <'MOL ' 'ROM ' 'dflt' > ) ]
Lookup: 1 0 0 "Single Substitution lookup 3" { "Single Substitution lookup 3 subtable"  } []
Lookup: 4 0 0 "'ordn' Ordinals in Latin lookup 4" { "'ordn' Ordinals in Latin lookup 4 subtable"  } ['ordn' ('DFLT' <'dflt' > 'latn' <'MOL ' 'ROM ' 'dflt' > ) ]

StartChar: .notdef
Encoding: 65536 -1 0
Width: 950
GlyphClass: 1
Flags: MW
LayerCount: 2
Fore
SplineSet
190 -381 m 1,0,-1
 760 -381 l 1,1,-1
 760 1419 l 1,2,-1
 190 1419 l 1,3,-1
 190 -381 l 1,0,-1
95 -481 m 1,4,-1
 95 1519 l 1,5,-1
 855 1519 l 1,6,-1
 855 -481 l 1,7,-1
 95 -481 l 1,4,-1
EndSplineSet
EndChar

StartChar: exclam
Encoding: 33 33 4
Width: 585
GlyphClass: 1
Flags: MW
LayerCount: 2
Fore
SplineSet
218 266 m 0,0,1
 272 266 272 266 301 238 c 128,-1,2
 330 210 330 210 330 160 c 0,3,4
 330 112 330 112 309.5 71.5 c 128,-1,5
 289 31 289 31 249.5 6.5 c 128,-1,6
 210 -18 210 -18 153 -18 c 0,7,8
 100 -18 100 -18 71 10 c 128,-1,9
 42 38 42 38 42 87 c 128,-1,10
 42 136 42 136 62 176 c 128,-1,11
 82 216 82 216 122 241 c 128,-1,12
 162 266 162 266 218 266 c 0,0,1
656 1361 m 2,13,-1
 627 1269 l 2,14,15
 621 1252 621 1252 601.5 1197.5 c 128,-1,16
 582 1143 582 1143 554 1064.5 c 128,-1,17
 526 986 526 986 493.5 896.5 c 128,-1,18
 461 807 461 807 429 719.5 c 128,-1,19
 397 632 397 632 370.5 558.5 c 128,-1,20
 344 485 344 485 327 440 c 1,21,-1
 221 440 l 1,22,23
 231 485 231 485 247 558.5 c 128,-1,24
 263 632 263 632 282 719.5 c 128,-1,25
 301 807 301 807 320.5 896.5 c 128,-1,26
 340 986 340 986 357 1064.5 c 128,-1,27
 374 1143 374 1143 386.5 1197.5 c 128,-1,28
 399 1252 399 1252 404 1269 c 2,29,-1
 428 1362 l 2,30,31
 434 1380 434 1380 446.5 1391 c 128,-1,32
 459 1402 459 1402 484.5 1407.5 c 128,-1,33
 510 1413 510 1413 554 1413 c 0,34,35
 601 1413 601 1413 624.5 1407.5 c 128,-1,36
 648 1402 648 1402 655 1391 c 128,-1,37
 662 1380 662 1380 656 1361 c 2,13,-1
EndSplineSet
EndChar

StartChar: ampersand
Encoding: 38 38 9
Width: 1461
GlyphClass: 1
Flags: MW
LayerCount: 2
Fore
SplineSet
551 704 m 1,0,1
 447 660 447 660 390 612 c 0,2,3
 327 559 327 559 305 499.5 c 128,-1,4
 283 440 283 440 283 372 c 0,5,6
 283 248 283 248 348 182 c 128,-1,7
 413 116 413 116 554 116 c 0,8,9
 633 116 633 116 708 140 c 0,10,11
 768 160 768 160 833 207 c 1,12,-1
 551 704 l 1,0,1
732 777 m 1,13,-1
 981 340 l 1,14,15
 1003 368 1003 368 1024 398 c 0,16,17
 1065 457 1065 457 1104 539.5 c 128,-1,18
 1143 622 1143 622 1182 742 c 1,19,-1
 1041 770 l 1,20,-1
 1065 851 l 1,21,-1
 1514 851 l 1,22,-1
 1490 770 l 1,23,-1
 1347 742 l 1,24,25
 1255 553 1255 553 1172 430 c 0,26,27
 1102 328 1102 328 1032 249 c 1,28,-1
 1101 128 l 1,29,-1
 1300 84 l 1,30,-1
 1277 0 l 1,31,-1
 950 0 l 1,32,-1
 883 119 l 1,33,34
 828 75 828 75 773 48 c 0,35,36
 694 9 694 9 617.5 -6 c 128,-1,37
 541 -21 541 -21 469 -21 c 0,38,39
 337 -21 337 -21 252.5 23 c 128,-1,40
 168 67 168 67 128 144 c 128,-1,41
 88 221 88 221 88 320 c 0,42,43
 88 399 88 399 107 465.5 c 128,-1,44
 126 532 126 532 176.5 590.5 c 128,-1,45
 227 649 227 649 318 700 c 0,46,47
 394 744 394 744 508 783 c 1,48,49
 486 826 486 826 469 862 c 0,50,51
 444 917 444 917 431.5 966 c 128,-1,52
 419 1015 419 1015 419 1065 c 0,53,54
 419 1171 419 1171 463 1250 c 128,-1,55
 507 1329 507 1329 597 1373 c 128,-1,56
 687 1417 687 1417 824 1417 c 0,57,58
 931 1417 931 1417 999.5 1384 c 128,-1,59
 1068 1351 1068 1351 1101 1295 c 128,-1,60
 1134 1239 1134 1239 1134 1168 c 0,61,62
 1134 1082 1134 1082 1097.5 1013 c 128,-1,63
 1061 944 1061 944 968 884 c 0,64,65
 882 830 882 830 732 777 c 1,13,-1
689 853 m 1,66,67
 795 900 795 900 856 944 c 0,68,69
 921 992 921 992 946 1045 c 128,-1,70
 971 1098 971 1098 971 1165 c 0,71,72
 971 1231 971 1231 931 1264.5 c 128,-1,73
 891 1298 891 1298 809 1298 c 0,74,75
 734 1298 734 1298 688 1274.5 c 128,-1,76
 642 1251 642 1251 621 1209.5 c 128,-1,77
 600 1168 600 1168 600 1115 c 0,78,79
 600 1057 600 1057 621 996 c 128,-1,80
 642 935 642 935 685 860 c 2,81,-1
 689 853 l 1,66,67
EndSplineSet
EndChar

StartChar: quotesingle
Encoding: 39 39 10
Width: 413
GlyphClass: 1
Flags: MW
LayerCount: 2
Fore
SplineSet
267 906 m 1,0,-1
 347 1353 l 1,1,-1
 359 1396 l 1,2,-1
 564 1396 l 1,3,-1
 552 1353 l 1,4,-1
 370 906 l 1,5,-1
 267 906 l 1,0,-1
EndSplineSet
EndChar

StartChar: parenleft
Encoding: 40 40 11
Width: 622
GlyphClass: 1
Flags: MW
LayerCount: 2
Fore
SplineSet
821 1394 m 1,0,1
 660 1251 660 1251 553 1115 c 128,-1,2
 446 979 446 979 382.5 843.5 c 128,-1,3
 319 708 319 708 291.5 569.5 c 128,-1,4
 264 431 264 431 264 283 c 0,5,6
 264 200 264 200 274 121.5 c 128,-1,7
 284 43 284 43 306 -36 c 128,-1,8
 328 -115 328 -115 364 -201 c 1,9,-1
 275 -252 l 1,10,11
 213 -134 213 -134 174.5 -30.5 c 128,-1,12
 136 73 136 73 118 167.5 c 128,-1,13
 100 262 100 262 100 351 c 0,14,15
 100 460 100 460 116 564.5 c 128,-1,16
 132 669 132 669 174 774 c 128,-1,17
 216 879 216 879 291 989 c 128,-1,18
 366 1099 366 1099 482 1218.5 c 128,-1,19
 598 1338 598 1338 766 1471 c 1,20,-1
 821 1394 l 1,0,1
EndSplineSet
Substitution2: "'case' Case-Sensitive Forms in Latin lookup 9 subtable" parenleft.case
EndChar

StartChar: parenright
Encoding: 41 41 12
Width: 622
GlyphClass: 1
Flags: MW
LayerCount: 2
Fore
SplineSet
-133 -175 m 1,0,1
 28 -32 28 -32 135.5 104 c 128,-1,2
 243 240 243 240 306.5 375.5 c 128,-1,3
 370 511 370 511 397 649.5 c 128,-1,4
 424 788 424 788 424 936 c 0,5,6
 424 1020 424 1020 414.5 1098 c 128,-1,7
 405 1176 405 1176 383 1255.5 c 128,-1,8
 361 1335 361 1335 324 1419 c 1,9,-1
 414 1471 l 1,10,11
 475 1353 475 1353 514 1249.5 c 128,-1,12
 553 1146 553 1146 571 1052 c 128,-1,13
 589 958 589 958 589 868 c 0,14,15
 589 759 589 759 572.5 654.5 c 128,-1,16
 556 550 556 550 514.5 445 c 128,-1,17
 473 340 473 340 398 230 c 128,-1,18
 323 120 323 120 206.5 0.5 c 128,-1,19
 90 -119 90 -119 -77 -252 c 1,20,-1
 -133 -175 l 1,0,1
EndSplineSet
Substitution2: "'case' Case-Sensitive Forms in Latin lookup 9 subtable" parenright.case
EndChar

StartChar: asterisk
Encoding: 42 42 13
Width: 861
GlyphClass: 1
Flags: MW
LayerCount: 2
Fore
SplineSet
756 761 m 1,0,-1
 670 724 l 1,1,-1
 566 954 l 1,2,-1
 369 806 l 1,3,-1
 310 881 l 1,4,-1
 484 1056 l 1,5,-1
 289 1207 l 1,6,-1
 339 1290 l 1,7,-1
 552 1169 l 1,8,-1
 627 1411 l 1,9,-1
 718 1386 l 1,10,-1
 673 1137 l 1,11,-1
 916 1136 l 1,12,-1
 922 1037 l 1,13,-1
 683 1004 l 1,14,-1
 756 761 l 1,0,-1
EndSplineSet
EndChar

StartChar: plus
Encoding: 43 43 14
Width: 1092
GlyphClass: 1
Flags: MW
LayerCount: 2
Fore
SplineSet
624 559 m 1,0,-1
 949 559 l 1,1,-1
 912 433 l 1,2,-1
 587 433 l 1,3,-1
 485 84 l 1,4,-1
 367 84 l 1,5,-1
 468 433 l 1,6,-1
 142 433 l 1,7,-1
 180 559 l 1,8,-1
 504 559 l 1,9,-1
 605 907 l 1,10,-1
 725 907 l 1,11,-1
 624 559 l 1,0,-1
EndSplineSet
EndChar

StartChar: comma
Encoding: 44 44 15
Width: 497
GlyphClass: 1
Flags: MW
LayerCount: 2
Fore
SplineSet
-143 -276 m 1,0,1
 -49 -213 -49 -213 2.5 -167.5 c 128,-1,2
 54 -122 54 -122 74.5 -86.5 c 128,-1,3
 95 -51 95 -51 95 -18 c 0,4,5
 95 9 95 9 83 29 c 128,-1,6
 71 49 71 49 55.5 64 c 128,-1,7
 40 79 40 79 28.5 92 c 128,-1,8
 17 105 17 105 17 118 c 0,9,10
 17 154 17 154 37 187.5 c 128,-1,11
 57 221 57 221 93 242.5 c 128,-1,12
 129 264 129 264 178 264 c 0,13,14
 234 264 234 264 267 233 c 128,-1,15
 300 202 300 202 300 139 c 0,16,17
 300 82 300 82 283 27 c 128,-1,18
 266 -28 266 -28 222.5 -86.5 c 128,-1,19
 179 -145 179 -145 101.5 -211.5 c 128,-1,20
 24 -278 24 -278 -97 -356 c 1,21,-1
 -143 -276 l 1,0,1
EndSplineSet
EndChar

StartChar: hyphen
Encoding: 45 45 16
Width: 727
GlyphClass: 1
Flags: MW
LayerCount: 2
Fore
SplineSet
160 581 m 1,0,-1
 618 581 l 1,1,-1
 571 421 l 1,2,-1
 114 421 l 1,3,-1
 160 581 l 1,0,-1
EndSplineSet
Substitution2: "'case' Case-Sensitive Forms in Latin lookup 9 subtable" hyphen.case
EndChar

StartChar: period
Encoding: 46 46 17
Width: 485
GlyphClass: 1
Flags: MW
LayerCount: 2
Fore
SplineSet
188 270 m 0,0,1
 242 270 242 270 271 241.5 c 128,-1,2
 300 213 300 213 300 163 c 0,3,4
 300 114 300 114 279 73 c 128,-1,5
 258 32 258 32 219 7 c 128,-1,6
 180 -18 180 -18 123 -18 c 0,7,8
 70 -18 70 -18 40.5 10 c 128,-1,9
 11 38 11 38 11 88 c 128,-1,10
 11 138 11 138 32 179 c 128,-1,11
 53 220 53 220 92.5 245 c 128,-1,12
 132 270 132 270 188 270 c 0,0,1
EndSplineSet
EndChar

StartChar: slash
Encoding: 47 47 18
Width: 810
GlyphClass: 1
Flags: MW
LayerCount: 2
Fore
SplineSet
-70 0 m 1,0,-1
 852 1396 l 1,1,-1
 999 1396 l 1,2,-1
 77 0 l 1,3,-1
 -70 0 l 1,0,-1
EndSplineSet
EndChar

StartChar: zero
Encoding: 48 48 19
Width: 1210
GlyphClass: 1
Flags: MW
LayerCount: 2
Fore
SplineSet
828 1417 m 0,0,1
 955 1417 955 1417 1041.5 1364.5 c 128,-1,2
 1128 1312 1128 1312 1171 1213.5 c 128,-1,3
 1214 1115 1214 1115 1214 976 c 0,4,5
 1214 859 1214 859 1185 724 c 128,-1,6
 1156 589 1156 589 1098.5 457.5 c 128,-1,7
 1041 326 1041 326 955.5 217.5 c 128,-1,8
 870 109 870 109 755.5 44.5 c 128,-1,9
 641 -20 641 -20 499 -20 c 0,10,11
 372 -20 372 -20 286 32 c 128,-1,12
 200 84 200 84 156.5 183 c 128,-1,13
 113 282 113 282 113 420 c 0,14,15
 113 537 113 537 142 672 c 128,-1,16
 171 807 171 807 228.5 939 c 128,-1,17
 286 1071 286 1071 371.5 1179 c 128,-1,18
 457 1287 457 1287 571.5 1352 c 128,-1,19
 686 1417 686 1417 828 1417 c 0,0,1
314 387 m 0,20,21
 314 247 314 247 362.5 181 c 128,-1,22
 411 115 411 115 512 115 c 0,23,24
 587 115 587 115 653 154.5 c 128,-1,25
 719 194 719 194 774.5 264 c 128,-1,26
 830 334 830 334 875 423 c 128,-1,27
 920 512 920 512 950.5 612.5 c 128,-1,28
 981 713 981 713 997.5 814.5 c 128,-1,29
 1014 916 1014 916 1014 1009 c 0,30,31
 1014 1149 1014 1149 965.5 1215 c 128,-1,32
 917 1281 917 1281 815 1281 c 0,33,34
 741 1281 741 1281 674.5 1241.5 c 128,-1,35
 608 1202 608 1202 552.5 1132.5 c 128,-1,36
 497 1063 497 1063 452.5 973.5 c 128,-1,37
 408 884 408 884 377.5 783.5 c 128,-1,38
 347 683 347 683 330.5 581.5 c 128,-1,39
 314 480 314 480 314 387 c 0,20,21
EndSplineSet
Substitution2: "'tnum' Tabular Numbers in Latin lookup 7 subtable" zero
Substitution2: "'pnum' Proportional Numbers in Latin lookup 6 subtable" zero.lf
Substitution2: "'sups' Superscript in Latin lookup 5 subtable" zerosuperior
EndChar

StartChar: one
Encoding: 49 49 20
Width: 1210
GlyphClass: 1
Flags: MW
LayerCount: 2
Fore
SplineSet
758 1177 m 1,0,-1
 433 1078 l 1,1,-1
 404 1196 l 1,2,-1
 899 1413 l 1,3,-1
 1029 1413 l 1,4,-1
 657 137 l 1,5,-1
 878 82 l 1,6,-1
 854 0 l 1,7,-1
 176 0 l 1,8,-1
 200 82 l 1,9,-1
 456 138 l 1,10,-1
 758 1177 l 1,0,-1
EndSplineSet
Substitution2: "'tnum' Tabular Numbers in Latin lookup 7 subtable" one
Substitution2: "'pnum' Proportional Numbers in Latin lookup 6 subtable" one.lf
Substitution2: "'sups' Superscript in Latin lookup 5 subtable" uni00B9
EndChar

StartChar: colon
Encoding: 58 58 29
Width: 553
GlyphClass: 1
Flags: MW
LayerCount: 2
Fore
SplineSet
411 1002 m 0,0,1
 465 1002 465 1002 494.5 973 c 128,-1,2
 524 944 524 944 524 894 c 0,3,4
 524 847 524 847 504 806 c 128,-1,5
 484 765 484 765 445 740.5 c 128,-1,6
 406 716 406 716 349 716 c 0,7,8
 295 716 295 716 265.5 744.5 c 128,-1,9
 236 773 236 773 236 823 c 0,10,11
 236 871 236 871 256 911.5 c 128,-1,12
 276 952 276 952 315.5 977 c 128,-1,13
 355 1002 355 1002 411 1002 c 0,0,1
202 268 m 0,14,15
 256 268 256 268 285.5 239.5 c 128,-1,16
 315 211 315 211 315 160 c 0,17,18
 315 113 315 113 295 72.5 c 128,-1,19
 275 32 275 32 236 7 c 128,-1,20
 197 -18 197 -18 140 -18 c 0,21,22
 86 -18 86 -18 57 10.5 c 128,-1,23
 28 39 28 39 28 89 c 0,24,25
 28 137 28 137 48 177.5 c 128,-1,26
 68 218 68 218 107.5 243 c 128,-1,27
 147 268 147 268 202 268 c 0,14,15
EndSplineSet
EndChar

StartChar: semicolon
Encoding: 59 59 30
Width: 567
GlyphClass: 1
Flags: MW
LayerCount: 2
Fore
SplineSet
423 1002 m 0,0,1
 477 1002 477 1002 506.5 973 c 128,-1,2
 536 944 536 944 536 894 c 0,3,4
 536 847 536 847 515.5 806 c 128,-1,5
 495 765 495 765 456 740.5 c 128,-1,6
 417 716 417 716 360 716 c 0,7,8
 306 716 306 716 276.5 744.5 c 128,-1,9
 247 773 247 773 247 823 c 0,10,11
 247 871 247 871 267.5 911.5 c 128,-1,12
 288 952 288 952 327.5 977 c 128,-1,13
 367 1002 367 1002 423 1002 c 0,0,1
-128 -276 m 1,14,15
 -34 -213 -34 -213 17.5 -167.5 c 128,-1,16
 69 -122 69 -122 89.5 -86.5 c 128,-1,17
 110 -51 110 -51 110 -18 c 0,18,19
 110 9 110 9 98 29 c 128,-1,20
 86 49 86 49 70.5 64 c 128,-1,21
 55 79 55 79 43.5 92 c 128,-1,22
 32 105 32 105 32 118 c 0,23,24
 32 154 32 154 52 187.5 c 128,-1,25
 72 221 72 221 108 242.5 c 128,-1,26
 144 264 144 264 193 264 c 0,27,28
 249 264 249 264 282 233 c 128,-1,29
 315 202 315 202 315 139 c 0,30,31
 315 82 315 82 298 27 c 128,-1,32
 281 -28 281 -28 237.5 -86.5 c 128,-1,33
 194 -145 194 -145 116.5 -211.5 c 128,-1,34
 39 -278 39 -278 -82 -356 c 1,35,-1
 -128 -276 l 1,14,15
EndSplineSet
EndChar

StartChar: less
Encoding: 60 60 31
Width: 1092
GlyphClass: 1
Flags: MW
LayerCount: 2
Fore
SplineSet
272 484 m 1,0,-1
 853 167 l 1,1,-1
 817 42 l 1,2,-1
 105 435 l 1,3,-1
 141 556 l 1,4,-1
 1080 950 l 1,5,-1
 1036 798 l 1,6,-1
 272 484 l 1,0,-1
EndSplineSet
EndChar

StartChar: greater
Encoding: 62 62 33
Width: 1092
GlyphClass: 1
Flags: MW
LayerCount: 2
Fore
SplineSet
821 508 m 1,0,-1
 239 824 l 1,1,2
 240 824 240 824 276 950 c 1,3,-1
 986 556 l 1,4,-1
 952 435 l 1,5,-1
 12 42 l 1,6,-1
 56 194 l 1,7,-1
 821 508 l 1,0,-1
EndSplineSet
EndChar

StartChar: question
Encoding: 63 63 34
Width: 1042
GlyphClass: 1
Flags: MW
LayerCount: 2
Fore
SplineSet
607 1417 m 0,0,1
 704 1417 704 1417 786.5 1387.5 c 128,-1,2
 869 1358 869 1358 931.5 1303.5 c 128,-1,3
 994 1249 994 1249 1028 1175 c 128,-1,4
 1062 1101 1062 1101 1062 1011 c 0,5,6
 1062 886 1062 886 1010.5 798 c 128,-1,7
 959 710 959 710 840 668 c 0,8,9
 740 631 740 631 580 633 c 1,10,-1
 508 435 l 1,11,-1
 403 435 l 1,12,-1
 470 798 l 1,13,14
 636 787 636 787 729 809.5 c 128,-1,15
 822 832 822 832 860 889.5 c 128,-1,16
 898 947 898 947 898 1037 c 0,17,18
 898 1108 898 1108 869.5 1166 c 128,-1,19
 841 1224 841 1224 786 1258.5 c 128,-1,20
 731 1293 731 1293 650 1293 c 0,21,22
 584 1293 584 1293 538 1274 c 128,-1,23
 492 1255 492 1255 463 1230 c 128,-1,24
 434 1205 434 1205 413.5 1185.5 c 128,-1,25
 393 1166 393 1166 375 1166 c 0,26,27
 333 1166 333 1166 306.5 1191.5 c 128,-1,28
 280 1217 280 1217 280 1257 c 0,29,30
 280 1301 280 1301 310 1337 c 128,-1,31
 340 1373 340 1373 411.5 1395 c 128,-1,32
 483 1417 483 1417 607 1417 c 0,0,1
417 266 m 0,33,34
 470 266 470 266 499 238 c 128,-1,35
 528 210 528 210 528 160 c 0,36,37
 528 112 528 112 507.5 71.5 c 128,-1,38
 487 31 487 31 448 6 c 0,39,40
 410 -18 410 -18 352 -18 c 0,41,42
 299 -18 299 -18 269.5 10 c 128,-1,43
 240 38 240 38 240 87 c 128,-1,44
 240 136 240 136 260.5 176 c 128,-1,45
 281 216 281 216 320.5 241 c 128,-1,46
 360 266 360 266 417 266 c 0,33,34
EndSplineSet
EndChar

StartChar: at
Encoding: 64 64 35
Width: 1795
GlyphClass: 1
Flags: MW
LayerCount: 2
Fore
SplineSet
1328 300 m 0,0,1
 1396 300 1396 300 1456 341 c 128,-1,2
 1516 382 1516 382 1561.5 455 c 128,-1,3
 1607 528 1607 528 1633 626 c 128,-1,4
 1659 724 1659 724 1659 839 c 128,-1,5
 1659 954 1659 954 1623.5 1043.5 c 128,-1,6
 1588 1133 1588 1133 1519.5 1195.5 c 128,-1,7
 1451 1258 1451 1258 1349 1290.5 c 128,-1,8
 1247 1323 1247 1323 1113 1323 c 0,9,10
 940 1323 940 1323 802 1275 c 128,-1,11
 664 1227 664 1227 561 1141.5 c 128,-1,12
 458 1056 458 1056 389 942 c 128,-1,13
 320 828 320 828 285.5 694.5 c 128,-1,14
 251 561 251 561 251 419 c 0,15,16
 251 242 251 242 320 118 c 128,-1,17
 389 -6 389 -6 524 -71 c 128,-1,18
 659 -136 659 -136 861 -136 c 0,19,20
 956 -136 956 -136 1051.5 -117.5 c 128,-1,21
 1147 -99 1147 -99 1242.5 -62 c 128,-1,22
 1338 -25 1338 -25 1433 30 c 1,23,-1
 1475 -61 l 1,24,25
 1377 -121 1377 -121 1276.5 -162.5 c 128,-1,26
 1176 -204 1176 -204 1065.5 -226 c 128,-1,27
 955 -248 955 -248 827 -248 c 0,28,29
 603 -248 603 -248 442.5 -175 c 128,-1,30
 282 -102 282 -102 195.5 41.5 c 128,-1,31
 109 185 109 185 109 397 c 0,32,33
 109 560 109 560 151.5 712 c 128,-1,34
 194 864 194 864 277 994.5 c 128,-1,35
 360 1125 360 1125 483 1222.5 c 128,-1,36
 606 1320 606 1320 768 1375 c 128,-1,37
 930 1430 930 1430 1130 1430 c 0,38,39
 1336 1430 1336 1430 1483.5 1362 c 128,-1,40
 1631 1294 1631 1294 1710 1165 c 128,-1,41
 1789 1036 1789 1036 1789 852 c 0,42,43
 1789 712 1789 712 1753 592 c 128,-1,44
 1717 472 1717 472 1651 382.5 c 128,-1,45
 1585 293 1585 293 1494 242.5 c 128,-1,46
 1403 192 1403 192 1294 192 c 0,47,48
 1180 192 1180 192 1123.5 238.5 c 128,-1,49
 1067 285 1067 285 1067 371 c 0,50,51
 1067 397 1067 397 1073 428 c 128,-1,52
 1079 459 1079 459 1089 492 c 2,53,-1
 1107 548 l 1,54,-1
 1101 548 l 1,55,56
 1043 448 1043 448 994 380.5 c 128,-1,57
 945 313 945 313 901.5 273 c 128,-1,58
 858 233 858 233 815 216 c 128,-1,59
 772 199 772 199 726 199 c 0,60,61
 625 199 625 199 571.5 258 c 128,-1,62
 518 317 518 317 518 417 c 0,63,64
 518 494 518 494 542.5 577 c 128,-1,65
 567 660 567 660 611.5 739 c 128,-1,66
 656 818 656 818 716.5 881.5 c 128,-1,67
 777 945 777 945 849.5 982.5 c 128,-1,68
 922 1020 922 1020 1000 1020 c 0,69,70
 1074 1020 1074 1020 1122 976 c 0,71,72
 1155 945 1155 945 1181 897 c 1,73,-1
 1235 1004 l 1,74,-1
 1401 1004 l 1,75,-1
 1259 519 l 2,76,77
 1247 479 1247 479 1241.5 448 c 128,-1,78
 1236 417 1236 417 1236 392 c 0,79,80
 1236 342 1236 342 1259 321 c 128,-1,81
 1282 300 1282 300 1328 300 c 0,0,1
1162 847 m 1,82,83
 1147 869 1147 869 1130 882 c 0,84,85
 1100 905 1100 905 1054 905 c 0,86,87
 1006 905 1006 905 959.5 874 c 128,-1,88
 913 843 913 843 872 792 c 128,-1,89
 831 741 831 741 799.5 679.5 c 128,-1,90
 768 618 768 618 750 555 c 128,-1,91
 732 492 732 492 732 439 c 0,92,93
 732 390 732 390 753 367 c 128,-1,94
 774 344 774 344 819 344 c 0,95,96
 855 344 855 344 897 372.5 c 128,-1,97
 939 401 939 401 980 452 c 128,-1,98
 1021 503 1021 503 1057.5 571 c 128,-1,99
 1094 639 1094 639 1120 717 c 2,100,-1
 1162 847 l 1,82,83
EndSplineSet
EndChar

StartChar: A
Encoding: 65 65 36
Width: 1454
GlyphClass: 2
Flags: MW
AnchorPoint: "Anchor-4" 574 0 basechar 0
AnchorPoint: "Anchor-3" 1183 0 basechar 0
LayerCount: 2
Fore
SplineSet
1196 132 m 1,0,-1
 1342 85 l 1,1,-1
 1318 0 l 1,2,-1
 781 0 l 1,3,-1
 806 85 l 1,4,-1
 982 131 l 1,5,-1
 957 473 l 1,6,-1
 438 473 l 1,7,-1
 231 131 l 1,8,-1
 378 85 l 1,9,-1
 353 0 l 1,10,-1
 -122 0 l 1,11,-1
 -96 85 l 1,12,-1
 65 131 l 1,13,-1
 864 1413 l 1,14,-1
 1089 1413 l 1,15,-1
 1196 132 l 1,0,-1
901 1240 m 1,16,-1
 520 610 l 1,17,-1
 947 610 l 1,18,-1
 901 1240 l 1,16,-1
EndSplineSet
Substitution2: "Single Substitution lookup 3 subtable" ordfeminine
EndChar

StartChar: B
Encoding: 66 66 37
Width: 1335
GlyphClass: 2
Flags: MW
AnchorPoint: "Anchor-4" 565 0 basechar 0
LayerCount: 2
Fore
SplineSet
487 1262 m 1,0,-1
 329 1310 l 1,1,-1
 353 1396 l 1,2,-1
 649 1396 l 1,3,-1
 736 1396 l 1,4,-1
 972 1396 l 2,5,6
 1099 1396 1099 1396 1174.5 1358.5 c 128,-1,7
 1250 1321 1250 1321 1283.5 1258.5 c 128,-1,8
 1317 1196 1317 1196 1317 1119 c 0,9,10
 1317 1005 1317 1005 1269.5 921.5 c 128,-1,11
 1222 838 1222 838 1132 790 c 0,12,13
 1071 758 1071 758 993 745 c 1,14,15
 1087 725 1087 725 1138 668 c 0,16,17
 1208 592 1208 592 1208 470 c 0,18,19
 1208 337 1208 337 1148.5 231 c 128,-1,20
 1089 125 1089 125 970 62.5 c 128,-1,21
 851 0 851 0 674 0 c 2,22,-1
 331 0 l 1,23,-1
 244 0 l 1,24,-1
 -41 0 l 1,25,-1
 -15 85 l 1,26,-1
 159 134 l 1,27,-1
 487 1262 l 1,0,-1
695 1256 m 1,28,-1
 566 810 l 1,29,-1
 830 810 l 2,30,31
 922 810 922 810 985 846.5 c 128,-1,32
 1048 883 1048 883 1080 948 c 128,-1,33
 1112 1013 1112 1013 1112 1097 c 0,34,35
 1112 1149 1112 1149 1090.5 1184.5 c 128,-1,36
 1069 1220 1069 1220 1024.5 1238 c 128,-1,37
 980 1256 980 1256 912 1256 c 2,38,-1
 695 1256 l 1,28,-1
526 672 m 1,39,-1
 372 141 l 1,40,-1
 642 141 l 2,41,42
 759 141 759 141 837.5 182.5 c 128,-1,43
 916 224 916 224 956.5 301.5 c 128,-1,44
 997 379 997 379 997 489 c 0,45,46
 997 572 997 572 948 622 c 128,-1,47
 899 672 899 672 784 672 c 2,48,-1
 526 672 l 1,39,-1
EndSplineSet
EndChar

StartChar: C
Encoding: 67 67 38
Width: 1404
GlyphClass: 2
Flags: MW
AnchorPoint: "Anchor-4" 684 0 basechar 0
AnchorPoint: "Anchor-3" 1187 0 basechar 0
LayerCount: 2
Fore
SplineSet
1274 1212 m 1,0,1
 1224 1240 1224 1240 1174 1252 c 0,2,3
 1106 1269 1106 1269 1022 1269 c 0,4,5
 893 1269 893 1269 789 1233.5 c 128,-1,6
 685 1198 685 1198 607.5 1133 c 128,-1,7
 530 1068 530 1068 478.5 978.5 c 128,-1,8
 427 889 427 889 401 781.5 c 128,-1,9
 375 674 375 674 375 553 c 0,10,11
 375 409 375 409 423.5 313 c 128,-1,12
 472 217 472 217 564 169 c 128,-1,13
 656 121 656 121 786 121 c 0,14,15
 865 121 865 121 948 139 c 0,16,17
 970 144 970 144 991 149 c 1,18,-1
 1181 421 l 1,19,-1
 1301 421 l 1,20,-1
 1163 54 l 1,21,22
 1081 20 1081 20 972 -0.5 c 128,-1,23
 863 -21 863 -21 741 -21 c 0,24,25
 544 -21 544 -21 414.5 46.5 c 128,-1,26
 285 114 285 114 221.5 238.5 c 128,-1,27
 158 363 158 363 158 535 c 0,28,29
 158 687 158 687 196.5 821 c 128,-1,30
 235 955 235 955 310.5 1064.5 c 128,-1,31
 386 1174 386 1174 495 1253 c 128,-1,32
 604 1332 604 1332 745 1374.5 c 128,-1,33
 886 1417 886 1417 1056 1417 c 0,34,35
 1119 1417 1119 1417 1175 1410 c 0,36,37
 1219 1404 1219 1404 1282 1390 c 0,38,39
 1308 1384 1308 1384 1331 1377 c 1,40,-1
 1376 1354 l 1,41,-1
 1473 1293 l 1,42,-1
 1395 948 l 1,43,-1
 1278 948 l 1,44,-1
 1274 1212 l 1,0,1
EndSplineSet
EndChar

StartChar: D
Encoding: 68 68 39
Width: 1512
GlyphClass: 2
Flags: MW
AnchorPoint: "Anchor-4" 672 0 basechar 0
LayerCount: 2
Fore
SplineSet
487 1264 m 1,0,-1
 328 1310 l 1,1,-1
 353 1396 l 1,2,-1
 616 1396 l 1,3,-1
 736 1396 l 1,4,-1
 865 1396 l 2,5,6
 1085 1396 1085 1396 1219.5 1336.5 c 128,-1,7
 1354 1277 1354 1277 1414.5 1163 c 128,-1,8
 1475 1049 1475 1049 1475 885 c 0,9,10
 1475 688 1475 688 1416.5 526 c 128,-1,11
 1358 364 1358 364 1244 246 c 128,-1,12
 1130 128 1130 128 965.5 64 c 128,-1,13
 801 0 801 0 589 0 c 2,14,-1
 332 0 l 1,15,-1
 211 0 l 1,16,-1
 -40 0 l 1,17,-1
 -14 85 l 1,18,-1
 159 132 l 1,19,-1
 487 1264 l 1,0,-1
581 139 m 2,20,21
 714 139 714 139 821 174.5 c 128,-1,22
 928 210 928 210 1010 276 c 128,-1,23
 1092 342 1092 342 1147 434.5 c 128,-1,24
 1202 527 1202 527 1229.5 642.5 c 128,-1,25
 1257 758 1257 758 1257 891 c 0,26,27
 1257 1006 1257 1006 1216 1088 c 128,-1,28
 1175 1170 1175 1170 1085.5 1213 c 128,-1,29
 996 1256 996 1256 846 1256 c 2,30,-1
 695 1256 l 1,31,-1
 372 139 l 1,32,-1
 581 139 l 2,20,21
EndSplineSet
EndChar

StartChar: E
Encoding: 69 69 40
Width: 1332
GlyphClass: 2
Flags: MW
AnchorPoint: "Anchor-4" 555 0 basechar 0
AnchorPoint: "Anchor-3" 972 0 basechar 0
LayerCount: 2
Fore
SplineSet
931 521 m 1,0,-1
 818 521 l 1,1,-1
 846 660 l 1,2,-1
 523 660 l 1,3,-1
 372 139 l 1,4,-1
 898 139 l 1,5,-1
 1141 419 l 1,6,-1
 1250 414 l 1,7,-1
 1038 0 l 1,8,-1
 928 0 l 1,9,-1
 866 0 l 1,10,-1
 332 0 l 1,11,-1
 213 0 l 1,12,-1
 -40 0 l 1,13,-1
 -14 85 l 1,14,-1
 159 132 l 1,15,-1
 487 1264 l 1,16,-1
 328 1310 l 1,17,-1
 353 1396 l 1,18,-1
 618 1396 l 1,19,-1
 736 1396 l 1,20,-1
 1442 1396.5 l 1,21,-1
 1343 1016 l 1,22,-1
 1232 1016 l 1,23,-1
 1231 1256 l 1,24,-1
 695 1256 l 1,25,-1
 563 797 l 1,26,-1
 885 797 l 1,27,-1
 934 916 l 1,28,-1
 1046 916 l 1,29,-1
 991 727 l 1,30,-1
 931 521 l 1,0,-1
EndSplineSet
EndChar

StartChar: F
Encoding: 70 70 41
Width: 1235
GlyphClass: 2
Flags: MW
AnchorPoint: "Anchor-4" 227 0 basechar 0
LayerCount: 2
Fore
SplineSet
369 131 m 1,0,-1
 528 85 l 1,1,-1
 504 0 l 1,2,-1
 -40 0 l 1,3,-1
 -14 85 l 1,4,-1
 159 132 l 1,5,-1
 487 1264 l 1,6,-1
 328 1310 l 1,7,-1
 353 1396 l 1,8,-1
 618 1396 l 1,9,-1
 736 1396 l 1,10,-1
 1413 1396.5 l 1,11,-1
 1315 996 l 1,12,-1
 1205 996 l 1,13,-1
 1205 1256 l 1,14,-1
 695 1256 l 1,15,-1
 543 731 l 1,16,-1
 862 731 l 1,17,-1
 918 880 l 1,18,-1
 1028 879 l 1,19,-1
 967 661 l 1,20,-1
 904 450 l 1,21,-1
 793 450 l 1,22,-1
 822 594 l 1,23,-1
 503 594 l 1,24,-1
 369 131 l 1,0,-1
EndSplineSet
EndChar

StartChar: G
Encoding: 71 71 42
Width: 1526
GlyphClass: 2
Flags: MW
AnchorPoint: "Anchor-4" 699 0 basechar 0
LayerCount: 2
Fore
SplineSet
786 121 m 0,0,1
 834 121 834 121 886.5 130 c 128,-1,2
 939 139 939 139 992 158 c 0,3,4
 1003 162 1003 162 1014 166 c 1,5,-1
 1118 526 l 1,6,-1
 933 572 l 1,7,-1
 958 657 l 1,8,-1
 1362 653 l 1,9,-1
 1315 521 l 1,10,-1
 1200 67 l 1,11,12
 1119 29 1119 29 1083.5 18.5 c 128,-1,13
 1048 8 1048 8 954 -6.5 c 128,-1,14
 860 -21 860 -21 765 -21 c 0,15,16
 550 -21 550 -21 415.5 47 c 128,-1,17
 281 115 281 115 219.5 240 c 128,-1,18
 158 365 158 365 158 534 c 0,19,20
 158 687 158 687 196.5 821.5 c 128,-1,21
 235 956 235 956 310 1065 c 128,-1,22
 385 1174 385 1174 494.5 1253 c 128,-1,23
 604 1332 604 1332 745.5 1374.5 c 128,-1,24
 887 1417 887 1417 1059 1417 c 0,25,26
 1123 1417 1123 1417 1181 1410 c 0,27,28
 1225 1405 1225 1405 1291 1390 c 0,29,30
 1318 1384 1318 1384 1344 1376 c 1,31,-1
 1501 1334 l 1,32,-1
 1409 948 l 1,33,-1
 1291 948 l 1,34,-1
 1287 1212 l 1,35,36
 1234 1242 1234 1242 1178 1254 c 0,37,38
 1106 1269 1106 1269 1016 1269 c 0,39,40
 887 1269 887 1269 784 1234 c 128,-1,41
 681 1199 681 1199 604.5 1135 c 128,-1,42
 528 1071 528 1071 477 983.5 c 128,-1,43
 426 896 426 896 400.5 790 c 128,-1,44
 375 684 375 684 375 566 c 0,45,46
 375 416 375 416 424 317 c 128,-1,47
 473 218 473 218 565 169.5 c 128,-1,48
 657 121 657 121 786 121 c 0,0,1
EndSplineSet
EndChar

StartChar: H
Encoding: 72 72 43
Width: 1604
GlyphClass: 2
Flags: MW
AnchorPoint: "Anchor-4" 690 0 basechar 0
LayerCount: 2
Fore
SplineSet
1354 1264 m 1,0,-1
 1194 1310 l 1,1,-1
 1219 1396 l 1,2,-1
 1761 1396 l 1,3,-1
 1737 1310 l 1,4,-1
 1564 1263 l 1,5,-1
 1235 131 l 1,6,-1
 1395 85 l 1,7,-1
 1369 0 l 1,8,-1
 827 0 l 1,9,-1
 851 85 l 1,10,-1
 1025 132 l 1,11,-1
 1173 641 l 1,12,-1
 517 641 l 1,13,-1
 369 131 l 1,14,-1
 528 85 l 1,15,-1
 504 0 l 1,16,-1
 -40 0 l 1,17,-1
 -14 85 l 1,18,-1
 159 132 l 1,19,-1
 487 1264 l 1,20,-1
 328 1310 l 1,21,-1
 353 1396 l 1,22,-1
 895 1396 l 1,23,-1
 871 1310 l 1,24,-1
 697 1263 l 1,25,-1
 557 781 l 1,26,-1
 1214 781 l 1,27,-1
 1354 1264 l 1,0,-1
EndSplineSet
EndChar

StartChar: I
Encoding: 73 73 44
Width: 739
GlyphClass: 2
Flags: MW
AnchorPoint: "Anchor-4" 245 0 basechar 0
AnchorPoint: "Anchor-3" 341 0 basechar 0
LayerCount: 2
Fore
SplineSet
487 1264 m 1,0,-1
 328 1310 l 1,1,-1
 353 1396 l 1,2,-1
 895 1396 l 1,3,-1
 871 1310 l 1,4,-1
 697 1263 l 1,5,-1
 369 131 l 1,6,-1
 528 85 l 1,7,-1
 504 0 l 1,8,-1
 -40 0 l 1,9,-1
 -14 85 l 1,10,-1
 159 132 l 1,11,-1
 487 1264 l 1,0,-1
EndSplineSet
EndChar

StartChar: J
Encoding: 74 74 45
Width: 966
GlyphClass: 2
Flags: MW
AnchorPoint: "Anchor-4" 302 0 basechar 0
LayerCount: 2
Fore
SplineSet
692 349 m 2,0,1
 665 259 665 259 620.5 190 c 128,-1,2
 576 121 576 121 513 75 c 128,-1,3
 450 29 450 29 372.5 5.5 c 128,-1,4
 295 -18 295 -18 202 -18 c 0,5,6
 54 -18 54 -18 -7.5 28.5 c 128,-1,7
 -69 75 -69 75 -69 150 c 0,8,9
 -69 198 -69 198 -41.5 228.5 c 128,-1,10
 -14 259 -14 259 30 259 c 0,11,12
 45 259 45 259 60.5 240 c 128,-1,13
 76 221 76 221 97.5 197 c 128,-1,14
 119 173 119 173 152 154 c 128,-1,15
 185 135 185 135 238 135 c 0,16,17
 329 135 329 135 387.5 183 c 128,-1,18
 446 231 446 231 484 360 c 2,19,-1
 747 1264 l 1,20,-1
 588 1310 l 1,21,-1
 613 1396 l 1,22,-1
 1155 1396 l 1,23,24
 1154 1396 1154 1396 1130 1310 c 1,25,-1
 958 1263 l 1,26,-1
 692 349 l 2,0,1
EndSplineSet
EndChar

StartChar: K
Encoding: 75 75 46
Width: 1481
GlyphClass: 2
Flags: MW
AnchorPoint: "Anchor-4" 697 0 basechar 0
LayerCount: 2
Fore
SplineSet
487 1264 m 1,0,-1
 328 1310 l 1,1,-1
 353 1396 l 1,2,-1
 895 1396 l 1,3,-1
 871 1310 l 1,4,-1
 697 1263 l 1,5,-1
 560 791 l 1,6,-1
 719 791 l 1,7,-1
 1282 1270 l 1,8,-1
 1150 1310 l 1,9,-1
 1176 1396 l 1,10,-1
 1647 1396 l 1,11,-1
 1623 1310 l 1,12,-1
 1461 1264 l 1,13,-1
 855 751 l 1,14,-1
 1213 125 l 1,15,-1
 1352 90 l 1,16,-1
 1325 0 l 1,17,-1
 923 0 l 1,18,-1
 941 63 l 1,19,-1
 984 101 l 1,20,-1
 674 653 l 1,21,-1
 520 653 l 1,22,-1
 369 131 l 1,23,-1
 528 85 l 1,24,-1
 504 0 l 1,25,-1
 -40 0 l 1,26,-1
 -14 85 l 1,27,-1
 159 132 l 1,28,-1
 487 1264 l 1,0,-1
EndSplineSet
EndChar

StartChar: L
Encoding: 76 76 47
Width: 1204
GlyphClass: 2
Flags: MW
AnchorPoint: "Anchor-4" 491 0 basechar 0
AnchorPoint: "Anchor-3" 932 1396 basechar 0
LayerCount: 2
Fore
SplineSet
811 139 m 1,0,-1
 1036 452 l 1,1,-1
 1145 447 l 1,2,-1
 964 0 l 1,3,-1
 788 0 l 1,4,-1
 332 0 l 1,5,-1
 151 0 l 1,6,-1
 -40 0 l 1,7,-1
 -14 85 l 1,8,-1
 159 133 l 1,9,-1
 487 1264 l 1,10,-1
 328 1310 l 1,11,-1
 353 1396 l 1,12,-1
 895 1396 l 1,13,-1
 871 1310 l 1,14,-1
 697 1263 l 1,15,-1
 372 139 l 1,16,-1
 811 139 l 1,0,-1
EndSplineSet
EndChar

StartChar: M
Encoding: 77 77 48
Width: 1955
GlyphClass: 2
Flags: MW
AnchorPoint: "Anchor-4" 808 0 basechar 0
LayerCount: 2
Fore
SplineSet
1646 1206 m 1,0,-1
 889 -4 l 1,1,-1
 688 -4 l 1,2,-1
 642 1204 l 1,3,-1
 257 132 l 1,4,-1
 406 85 l 1,5,-1
 382 0 l 1,6,-1
 -64 0 l 1,7,-1
 -39 85 l 2,8,9
 -38 85 -38 85 124 132 c 1,10,-1
 522 1249 l 1,11,-1
 364 1310 l 1,12,-1
 390 1396 l 1,13,-1
 836 1396 l 1,14,-1
 880 194 l 1,15,-1
 1621 1396 l 1,16,-1
 1689 1396 l 1,17,-1
 1752 1396 l 1,18,-1
 2073 1396 l 1,19,-1
 2048 1310 l 1,20,-1
 1868 1255 l 1,21,-1
 1614 131 l 1,22,-1
 1760 85 l 1,23,-1
 1736 0 l 1,24,-1
 1208 0 l 1,25,-1
 1233 85 l 1,26,-1
 1404 132 l 1,27,-1
 1646 1206 l 1,0,-1
EndSplineSet
EndChar

StartChar: N
Encoding: 78 78 49
Width: 1539
GlyphClass: 2
Flags: MW
AnchorPoint: "Anchor-4" 675 0 basechar 0
LayerCount: 2
Fore
SplineSet
611 1219 m 1,0,-1
 294 132 l 1,1,-1
 455 85 l 1,2,-1
 432 0 l 1,3,-1
 -40 0 l 1,4,-1
 -16 85 l 1,5,-1
 157 132 l 1,6,-1
 485 1258 l 1,7,-1
 331 1311 l 1,8,-1
 355 1396 l 2,9,10
 356 1396 356 1396 770 1396 c 1,11,-1
 1077 208 l 1,12,-1
 1385 1264 l 1,13,-1
 1224 1310 l 1,14,-1
 1247 1396 l 2,15,16
 1248 1396 1248 1396 1720 1396 c 1,17,-1
 1696 1310 l 1,18,-1
 1522 1264 l 1,19,-1
 1152 -4 l 1,20,-1
 932 -4 l 1,21,-1
 611 1219 l 1,0,-1
EndSplineSet
EndChar

StartChar: O
Encoding: 79 79 50
Width: 1532
GlyphClass: 2
Flags: MW
AnchorPoint: "Anchor-4" 619 0 basechar 0
AnchorPoint: "Anchor-3" 746 0 basechar 0
AnchorPoint: "Anchor-2" 1321 1396 basechar 0
LayerCount: 2
Fore
SplineSet
1499 878 m 0,0,1
 1499 735 1499 735 1460.5 601.5 c 128,-1,2
 1422 468 1422 468 1351 355 c 128,-1,3
 1280 242 1280 242 1181 157.5 c 128,-1,4
 1082 73 1082 73 960.5 26 c 128,-1,5
 839 -21 839 -21 701 -21 c 0,6,7
 523 -21 523 -21 400 44.5 c 128,-1,8
 277 110 277 110 213.5 231 c 128,-1,9
 150 352 150 352 150 517 c 0,10,11
 150 661 150 661 188.5 794 c 128,-1,12
 227 927 227 927 298.5 1040 c 128,-1,13
 370 1153 370 1153 469 1238 c 128,-1,14
 568 1323 568 1323 689.5 1370 c 128,-1,15
 811 1417 811 1417 949 1417 c 0,16,17
 1127 1417 1127 1417 1250 1351 c 128,-1,18
 1373 1285 1373 1285 1436 1164.5 c 128,-1,19
 1499 1044 1499 1044 1499 878 c 0,0,1
364 506 m 0,20,21
 364 328 364 328 448.5 228 c 128,-1,22
 533 128 533 128 708 128 c 0,23,24
 795 128 795 128 872 156 c 128,-1,25
 949 184 949 184 1013 235.5 c 128,-1,26
 1077 287 1077 287 1128 357.5 c 128,-1,27
 1179 428 1179 428 1214 513 c 128,-1,28
 1249 598 1249 598 1267.5 693.5 c 128,-1,29
 1286 789 1286 789 1286 889 c 0,30,31
 1286 1068 1286 1068 1201.5 1168 c 128,-1,32
 1117 1268 1117 1268 942 1268 c 0,33,34
 855 1268 855 1268 778 1240 c 128,-1,35
 701 1212 701 1212 637 1160.5 c 128,-1,36
 573 1109 573 1109 522 1038.5 c 128,-1,37
 471 968 471 968 436 883 c 128,-1,38
 401 798 401 798 382.5 702.5 c 128,-1,39
 364 607 364 607 364 506 c 0,20,21
EndSplineSet
Substitution2: "Single Substitution lookup 3 subtable" ordmasculine
EndChar

StartChar: P
Encoding: 80 80 51
Width: 1255
GlyphClass: 2
Flags: MW
AnchorPoint: "Anchor-4" 224 0 basechar 0
LayerCount: 2
Fore
SplineSet
369 131 m 1,0,-1
 528 85 l 1,1,-1
 504 0 l 1,2,-1
 -40 0 l 1,3,-1
 -14 85 l 1,4,-1
 159 132 l 1,5,-1
 487 1264 l 1,6,-1
 328 1310 l 1,7,-1
 353 1396 l 1,8,-1
 583 1396 l 1,9,-1
 736 1396 l 1,10,-1
 913 1396 l 2,11,12
 1061 1396 1061 1396 1153 1357.5 c 128,-1,13
 1245 1319 1245 1319 1288.5 1247.5 c 128,-1,14
 1332 1176 1332 1176 1332 1077 c 0,15,16
 1332 965 1332 965 1296 871.5 c 128,-1,17
 1260 778 1260 778 1187 709.5 c 128,-1,18
 1114 641 1114 641 1006 604 c 128,-1,19
 898 567 898 567 753 567 c 2,20,-1
 495 567 l 1,21,-1
 369 131 l 1,0,-1
777 706 m 2,22,23
 863 706 863 706 927.5 731.5 c 128,-1,24
 992 757 992 757 1034.5 804 c 128,-1,25
 1077 851 1077 851 1099.5 917 c 128,-1,26
 1122 983 1122 983 1122 1063 c 0,27,28
 1122 1125 1122 1125 1096 1168 c 128,-1,29
 1070 1211 1070 1211 1011 1233.5 c 128,-1,30
 952 1256 952 1256 852 1256 c 2,31,-1
 695 1256 l 1,32,-1
 536 706 l 1,33,-1
 777 706 l 2,22,23
EndSplineSet
EndChar

StartChar: Q
Encoding: 81 81 52
Width: 1531
GlyphClass: 2
Flags: MW
AnchorPoint: "Anchor-4" 418 -165 basechar 0
LayerCount: 2
Fore
SplineSet
364 506 m 0,0,1
 364 328 364 328 448.5 228 c 128,-1,2
 533 128 533 128 707 128 c 0,3,4
 793 128 793 128 870 156 c 128,-1,5
 947 184 947 184 1011 235.5 c 128,-1,6
 1075 287 1075 287 1126 358 c 128,-1,7
 1177 429 1177 429 1212.5 514 c 128,-1,8
 1248 599 1248 599 1266.5 694 c 128,-1,9
 1285 789 1285 789 1285 889 c 0,10,11
 1285 1067 1285 1067 1201 1167.5 c 128,-1,12
 1117 1268 1117 1268 942 1268 c 0,13,14
 856 1268 856 1268 779 1239.5 c 128,-1,15
 702 1211 702 1211 638 1159.5 c 128,-1,16
 574 1108 574 1108 523 1037.5 c 128,-1,17
 472 967 472 967 436.5 882 c 128,-1,18
 401 797 401 797 382.5 702 c 128,-1,19
 364 607 364 607 364 506 c 0,0,1
623 -247 m 2,20,-1
 290 123 l 2,21,22
 244 175 244 175 212.5 235 c 128,-1,23
 181 295 181 295 165.5 365 c 128,-1,24
 150 435 150 435 150 517 c 0,25,26
 150 660 150 660 188.5 793 c 128,-1,27
 227 926 227 926 299 1039.5 c 128,-1,28
 371 1153 371 1153 470 1237.5 c 128,-1,29
 569 1322 569 1322 690 1369.5 c 128,-1,30
 811 1417 811 1417 948 1417 c 0,31,32
 1126 1417 1126 1417 1248.5 1351 c 128,-1,33
 1371 1285 1371 1285 1435 1164.5 c 128,-1,34
 1499 1044 1499 1044 1499 878 c 0,35,36
 1499 730 1499 730 1457 589.5 c 128,-1,37
 1415 449 1415 449 1334.5 331 c 128,-1,38
 1254 213 1254 213 1140 133 c 128,-1,39
 1026 53 1026 53 882 22 c 0,40,41
 756 -4 756 -4 611 20 c 1,42,-1
 828 -178 l 2,43,44
 886 -231 886 -231 929.5 -260.5 c 128,-1,45
 973 -290 973 -290 1013.5 -303 c 128,-1,46
 1054 -316 1054 -316 1103.5 -317 c 128,-1,47
 1153 -318 1153 -318 1224 -312 c 1,48,-1
 1196 -421 l 1,49,50
 1161 -429 1161 -429 1128.5 -435 c 128,-1,51
 1096 -441 1096 -441 1061 -444 c 128,-1,52
 1026 -447 1026 -447 982 -447 c 0,53,54
 907 -447 907 -447 850 -427.5 c 128,-1,55
 793 -408 793 -408 740 -364 c 128,-1,56
 687 -320 687 -320 623 -247 c 2,20,-1
EndSplineSet
EndChar

StartChar: R
Encoding: 82 82 53
Width: 1370
GlyphClass: 2
Flags: MW
AnchorPoint: "Anchor-4" 682 0 basechar 0
LayerCount: 2
Fore
SplineSet
369 131 m 1,0,-1
 528 85 l 1,1,-1
 504 0 l 1,2,-1
 -40 0 l 1,3,-1
 -14 85 l 1,4,-1
 159 132 l 1,5,-1
 487 1264 l 1,6,-1
 328 1310 l 1,7,-1
 353 1396 l 1,8,-1
 638 1396 l 1,9,-1
 736 1396 l 1,10,-1
 962 1396 l 2,11,12
 1099 1396 1099 1396 1181.5 1360.5 c 128,-1,13
 1264 1325 1264 1325 1301.5 1261 c 128,-1,14
 1339 1197 1339 1197 1339 1110 c 0,15,16
 1339 994 1339 994 1290 902 c 128,-1,17
 1241 810 1241 810 1144 754 c 0,18,19
 1059 703 1059 703 936 691 c 1,20,21
 982 682 982 682 1012 662 c 0,22,23
 1051 635 1051 635 1070.5 582 c 128,-1,24
 1090 529 1090 529 1100 443 c 2,25,-1
 1128 247 l 2,26,27
 1138 180 1138 180 1152 148.5 c 128,-1,28
 1166 117 1166 117 1191.5 108.5 c 128,-1,29
 1217 100 1217 100 1259 100 c 1,30,-1
 1233 0 l 1,31,32
 1140 -5 1140 -5 1082.5 -0.5 c 128,-1,33
 1025 4 1025 4 992.5 25 c 128,-1,34
 960 46 960 46 944 88 c 0,35,36
 930 131 930 131 922 202 c 2,37,-1
 891 439 l 2,38,39
 882 524 882 524 868 564 c 128,-1,40
 854 604 854 604 825.5 616.5 c 128,-1,41
 797 629 797 629 742 629 c 2,42,-1
 513 629 l 1,43,-1
 369 131 l 1,0,-1
803 766 m 2,44,45
 918 766 918 766 988 808.5 c 128,-1,46
 1058 851 1058 851 1090.5 924 c 128,-1,47
 1123 997 1123 997 1123 1087 c 0,48,49
 1123 1169 1123 1169 1072.5 1212.5 c 128,-1,50
 1022 1256 1022 1256 908 1256 c 2,51,-1
 695 1256 l 1,52,-1
 553 766 l 1,53,-1
 803 766 l 2,44,45
EndSplineSet
EndChar

StartChar: S
Encoding: 83 83 54
Width: 1167
GlyphClass: 2
Flags: MW
AnchorPoint: "Anchor-4" 516 0 basechar 0
LayerCount: 2
Fore
SplineSet
1065 1378 m 1,0,-1
 1214 1327 l 1,1,-1
 1134 970 l 1,2,-1
 1024 970 l 1,3,-1
 1007 1234 l 1,4,5
 969 1254 969 1254 937 1264 c 0,6,7
 872 1284 872 1284 788 1284 c 0,8,9
 675 1284 675 1284 605.5 1255.5 c 128,-1,10
 536 1227 536 1227 504.5 1175 c 128,-1,11
 473 1123 473 1123 473 1052 c 0,12,13
 473 982 473 982 508 941 c 128,-1,14
 543 900 543 900 603.5 873 c 128,-1,15
 664 846 664 846 738 816 c 0,16,17
 814 786 814 786 882 745.5 c 128,-1,18
 950 705 950 705 993 637.5 c 128,-1,19
 1036 570 1036 570 1036 459 c 0,20,21
 1036 314 1036 314 967 206 c 128,-1,22
 898 98 898 98 766 38.5 c 128,-1,23
 634 -21 634 -21 443 -21 c 0,24,25
 324 -21 324 -21 243 -7 c 128,-1,26
 162 7 162 7 90 35 c 1,27,-1
 79 429 l 1,28,-1
 190 429 l 1,29,-1
 285 132 l 1,30,31
 306 128 306 128 327 124 c 0,32,33
 383 116 383 116 451 116 c 0,34,35
 581 116 581 116 667 151.5 c 128,-1,36
 753 187 753 187 796.5 251 c 128,-1,37
 840 315 840 315 840 401 c 0,38,39
 840 464 840 464 814 505.5 c 128,-1,40
 788 547 788 547 745.5 575.5 c 0,41,42
 697 608 697 608 650.5 625 c 0,43,44
 597 644 597 644 543 667 c 0,45,46
 471 697 471 697 411.5 733.5 c 128,-1,47
 352 770 352 770 317 829.5 c 128,-1,48
 282 889 282 889 282 985 c 0,49,50
 282 1114 282 1114 341.5 1210.5 c 128,-1,51
 401 1307 401 1307 520 1362 c 128,-1,52
 639 1417 639 1417 817 1417 c 0,53,54
 913 1417 913 1417 994 1399 c 0,55,56
 1030 1391 1030 1391 1065 1378 c 1,0,-1
EndSplineSet
EndChar

StartChar: T
Encoding: 84 84 55
Width: 1361
GlyphClass: 2
Flags: MW
AnchorPoint: "Anchor-4" 556 0 basechar 0
LayerCount: 2
Fore
SplineSet
1224 1396.5 m 1,0,-1
 1398 1396.5 l 1,1,-1
 1514 1396.5 l 1,2,-1
 1450 978 l 1,3,-1
 1339 949 l 1,4,-1
 1311 1248 l 1,5,-1
 1003 1248 l 1,6,-1
 678 131 l 1,7,-1
 837 85 l 1,8,-1
 813 0 l 1,9,-1
 270 0 l 1,10,-1
 294 85 l 1,11,-1
 468 132 l 1,12,-1
 793 1248 l 1,13,-1
 499 1248 l 1,14,-1
 302 949 l 1,15,-1
 198 974 l 1,16,-1
 368 1396.5 l 1,17,-1
 448 1396.5 l 1,18,-1
 648 1396.5 l 1,19,-1
 1224 1396.5 l 1,0,-1
EndSplineSet
EndChar

StartChar: U
Encoding: 85 85 56
Width: 1518
GlyphClass: 2
Flags: MW
AnchorPoint: "Anchor-4" 626 0 basechar 0
AnchorPoint: "Anchor-3" 772 0 basechar 0
AnchorPoint: "Anchor-2" 1551 1396 basechar 0
LayerCount: 2
Fore
SplineSet
442 523 m 2,0,1
 406 396 406 396 426 312.5 c 128,-1,2
 446 229 446 229 520 188.5 c 128,-1,3
 594 148 594 148 713 148 c 0,4,5
 829 148 829 148 913.5 184 c 128,-1,6
 998 220 998 220 1056 298.5 c 128,-1,7
 1114 377 1114 377 1151 506 c 2,8,-1
 1372 1264 l 1,9,-1
 1210 1310 l 1,10,-1
 1234 1396 l 1,11,-1
 1706 1396 l 1,12,-1
 1682 1310 l 1,13,-1
 1509 1264 l 1,14,-1
 1288 502 l 2,15,16
 1234 315 1234 315 1151.5 199.5 c 128,-1,17
 1069 84 1069 84 950 31.5 c 128,-1,18
 831 -21 831 -21 670 -21 c 0,19,20
 487 -21 487 -21 371 41 c 128,-1,21
 255 103 255 103 220.5 234.5 c 128,-1,22
 186 366 186 366 247 576 c 2,23,-1
 447 1264 l 1,24,-1
 288 1310 l 1,25,-1
 313 1396 l 1,26,-1
 855 1396 l 1,27,-1
 831 1310 l 1,28,-1
 657 1263 l 1,29,-1
 442 523 l 2,0,1
EndSplineSet
EndChar

StartChar: V
Encoding: 86 86 57
Width: 1419
GlyphClass: 2
Flags: MW
AnchorPoint: "Anchor-4" 614 0 basechar 0
LayerCount: 2
Fore
SplineSet
372 1263 m 1,0,-1
 226 1310 l 1,1,-1
 251 1396 l 1,2,-1
 788 1396 l 1,3,-1
 763 1310 l 1,4,-1
 586 1264 l 1,5,-1
 662 159 l 1,6,-1
 1304 1264 l 1,7,-1
 1156 1310 l 1,8,-1
 1181 1396 l 1,9,-1
 1656 1396 l 1,10,-1
 1631 1310 l 1,11,-1
 1471 1264 l 1,12,-1
 699 -18 l 1,13,-1
 474 -18 l 1,14,-1
 372 1263 l 1,0,-1
EndSplineSet
EndChar

StartChar: W
Encoding: 87 87 58
Width: 1953
GlyphClass: 2
Flags: MW
AnchorPoint: "Anchor-4" 864 0 basechar 0
LayerCount: 2
Fore
SplineSet
1853 1264 m 1,0,-1
 1703 1310 l 1,1,-1
 1728 1396 l 1,2,-1
 2188 1396 l 1,3,-1
 2164 1310 l 1,4,-1
 2006 1264 l 1,5,-1
 1385 -4 l 1,6,-1
 1151 -4 l 1,7,-1
 1162 1117 l 1,8,-1
 515 -4 l 1,9,-1
 275 -4 l 1,10,-1
 390 1262 l 1,11,-1
 245 1310 l 1,12,-1
 269 1396 l 1,13,-1
 809 1396 l 1,14,-1
 785 1310 l 1,15,-1
 610 1263 l 1,16,-1
 509 242 l 1,17,-1
 1165 1400 l 1,18,-1
 1385 1400 l 1,19,-1
 1375 257 l 1,20,-1
 1853 1264 l 1,0,-1
EndSplineSet
EndChar

StartChar: X
Encoding: 88 88 59
Width: 1473
GlyphClass: 2
Flags: MW
AnchorPoint: "Anchor-4" 592 0 basechar 0
LayerCount: 2
Fore
SplineSet
918 741 m 1,0,-1
 1192 135 l 1,1,-1
 1340 85 l 1,2,-1
 1315 0 l 1,3,-1
 770 0 l 1,4,-1
 796 85 l 1,5,-1
 957 133 l 1,6,-1
 741 612 l 1,7,-1
 250 132 l 1,8,-1
 388 85 l 1,9,-1
 364 0 l 1,10,-1
 -110 0 l 1,11,-1
 -86 85 l 1,12,-1
 75 134 l 1,13,-1
 692 722 l 1,14,-1
 446 1262 l 1,15,-1
 299 1310 l 1,16,-1
 323 1396 l 1,17,-1
 865 1396 l 1,18,-1
 841 1310 l 1,19,-1
 680 1264 l 1,20,-1
 867 851 l 1,21,-1
 1288 1263 l 1,22,-1
 1150 1310 l 1,23,-1
 1174 1396 l 1,24,-1
 1648 1396 l 1,25,-1
 1624 1310 l 1,26,-1
 1463 1262 l 1,27,-1
 918 741 l 1,0,-1
EndSplineSet
EndChar

StartChar: Y
Encoding: 89 89 60
Width: 1386
GlyphClass: 2
Flags: MW
AnchorPoint: "Anchor-4" 580 0 basechar 0
LayerCount: 2
Fore
SplineSet
1264 1265 m 1,0,-1
 1117 1310 l 1,1,-1
 1142 1396 l 1,2,-1
 1616 1396 l 1,3,-1
 1590 1310 l 1,4,-1
 1436 1265 l 1,5,-1
 835 591 l 1,6,-1
 701 131 l 1,7,-1
 860 85 l 1,8,-1
 836 0 l 1,9,-1
 293 0 l 1,10,-1
 318 85 l 1,11,-1
 491 132 l 1,12,-1
 622 583 l 1,13,-1
 384 1262 l 1,14,-1
 237 1310 l 1,15,-1
 261 1396 l 1,16,-1
 785 1396 l 1,17,-1
 760 1310 l 1,18,-1
 599 1263 l 1,19,-1
 786 712 l 1,20,-1
 1264 1265 l 1,0,-1
EndSplineSet
EndChar

StartChar: Z
Encoding: 90 90 61
Width: 1250
GlyphClass: 2
Flags: MW
AnchorPoint: "Anchor-4" 471 0 basechar 0
LayerCount: 2
Fore
SplineSet
1378 1396 m 1,0,-1
 1344 1280 l 1,1,-1
 279 139 l 1,2,-1
 839 139 l 1,3,-1
 1045 421 l 2,4,5
 1045 421 1045 421 1150 419 c 1,6,-1
 970 0 l 1,7,-1
 811 0 l 1,8,-1
 -27 0 l 1,9,-1
 7 115 l 1,10,-1
 1070 1256 l 1,11,-1
 530 1256 l 1,12,-1
 361 985 l 1,13,-1
 253 990 l 2,14,15
 253 990 253 990 384 1396.5 c 1,16,-1
 553 1396 l 1,17,-1
 1378 1396 l 1,0,-1
EndSplineSet
EndChar

StartChar: bracketleft
Encoding: 91 91 62
Width: 688
GlyphClass: 1
Flags: MW
LayerCount: 2
Fore
SplineSet
-10 -230 m 1,0,-1
 477 1448 l 1,1,-1
 916 1448 l 1,2,-1
 881 1331 l 1,3,-1
 615 1331 l 1,4,-1
 196 -113 l 1,5,-1
 462 -113 l 1,6,-1
 428 -230 l 1,7,-1
 -10 -230 l 1,0,-1
EndSplineSet
Substitution2: "'case' Case-Sensitive Forms in Latin lookup 9 subtable" bracketleft.case
EndChar

StartChar: backslash
Encoding: 92 92 63
Width: 771
GlyphClass: 1
Flags: MW
LayerCount: 2
Fore
SplineSet
572 0 m 1,0,-1
 447 0 l 1,1,-1
 315 1396 l 1,2,-1
 441 1396 l 1,3,-1
 572 0 l 1,0,-1
EndSplineSet
EndChar

StartChar: bracketright
Encoding: 93 93 64
Width: 688
GlyphClass: 1
Flags: MW
LayerCount: 2
Fore
SplineSet
766 1448 m 1,0,-1
 278 -230 l 1,1,-1
 -161 -230 l 1,2,-1
 -126 -113 l 1,3,-1
 141 -113 l 1,4,-1
 560 1331 l 1,5,-1
 294 1331 l 1,6,-1
 328 1448 l 1,7,-1
 766 1448 l 1,0,-1
EndSplineSet
Substitution2: "'case' Case-Sensitive Forms in Latin lookup 9 subtable" bracketright.case
EndChar

StartChar: asciicircum
Encoding: 94 94 65
Width: 1092
GlyphClass: 1
Flags: MW
LayerCount: 2
Fore
SplineSet
778 1240 m 1,0,-1
 343 633 l 1,1,-1
 204 633 l 1,2,-1
 753 1396 l 1,3,-1
 868 1396 l 1,4,-1
 977 633 l 1,5,-1
 861 633 l 1,6,-1
 778 1240 l 1,0,-1
EndSplineSet
EndChar

StartChar: a
Encoding: 97 97 68
Width: 1211
GlyphClass: 2
Flags: MW
AnchorPoint: "Anchor-4" 445 0 basechar 0
AnchorPoint: "Anchor-3" 1012 0 basechar 0
AnchorPoint: "Anchor-0" 779 1062 basechar 0
LayerCount: 2
Fore
SplineSet
683 94 m 2,0,-1
 820 498 l 1,1,-1
 808 498 l 1,2,3
 711 336 711 336 634.5 233.5 c 128,-1,4
 558 131 558 131 496.5 75 c 128,-1,5
 435 19 435 19 383 -1.5 c 128,-1,6
 331 -22 331 -22 280 -22 c 0,7,8
 209 -22 209 -22 154 7 c 128,-1,9
 99 36 99 36 67.5 93 c 128,-1,10
 36 150 36 150 36 235 c 0,11,12
 36 337 36 337 69 451.5 c 128,-1,13
 102 566 102 566 161.5 677 c 128,-1,14
 221 788 221 788 302.5 879.5 c 128,-1,15
 384 971 384 971 481 1025.5 c 128,-1,16
 578 1080 578 1080 685 1080 c 0,17,18
 775 1080 775 1080 835 1038 c 128,-1,19
 895 996 895 996 914 940 c 1,20,-1
 1023 1062 l 1,21,-1
 1142 1062 l 1,22,-1
 856 151 l 1,23,24
 874 153 874 153 893 156 c 0,25,26
 948 167 948 167 1010.5 196.5 c 128,-1,27
 1073 226 1073 226 1139 276 c 1,28,-1
 1179 208 l 1,29,30
 1037 70 1037 70 936 23.5 c 128,-1,31
 835 -23 835 -23 770 -23 c 0,32,33
 706 -23 706 -23 684 5.5 c 0,34,35
 662 33 662 33 683 94 c 2,0,-1
884 848 m 1,36,37
 857 897 857 897 822 922 c 0,38,39
 774 954 774 954 715 954 c 0,40,41
 637 954 637 954 565.5 906.5 c 128,-1,42
 494 859 494 859 433.5 781 c 128,-1,43
 373 703 373 703 328.5 611 c 128,-1,44
 284 519 284 519 259.5 429 c 128,-1,45
 235 339 235 339 235 269 c 0,46,47
 235 201 235 201 269 168 c 128,-1,48
 303 135 303 135 360 135 c 0,49,50
 410 135 410 135 478 187 c 128,-1,51
 546 239 546 239 617.5 326 c 128,-1,52
 689 413 689 413 750.5 521 c 128,-1,53
 812 629 812 629 849 740 c 2,54,-1
 884 848 l 1,36,37
EndSplineSet
Substitution2: "Single Substitution lookup 3 subtable" ordfeminine
EndChar

StartChar: b
Encoding: 98 98 69
Width: 1105
GlyphClass: 2
Flags: MW
AnchorPoint: "Anchor-4" 355 0 basechar 0
LayerCount: 2
Fore
SplineSet
378 1355 m 1,0,1
 359 1367 359 1367 328 1383 c 128,-1,2
 297 1399 297 1399 263.5 1416 c 128,-1,3
 230 1433 230 1433 201 1446 c 1,4,-1
 217 1513 l 1,5,-1
 634 1587 l 1,6,-1
 347 684 l 1,7,-1
 361 692 l 1,8,9
 447 837 447 837 526 923.5 c 128,-1,10
 605 1010 605 1010 677.5 1047 c 128,-1,11
 750 1084 750 1084 816 1084 c 0,12,13
 931 1084 931 1084 993 999 c 128,-1,14
 1055 914 1055 914 1055 789 c 0,15,16
 1055 672 1055 672 1022 557 c 128,-1,17
 989 442 989 442 929 337.5 c 128,-1,18
 869 233 869 233 789 152 c 128,-1,19
 709 71 709 71 614 24 c 128,-1,20
 519 -23 519 -23 416 -23 c 0,21,22
 261 -23 261 -23 180.5 53 c 128,-1,23
 100 129 100 129 100 258 c 0,24,25
 100 291 100 291 105.5 328.5 c 128,-1,26
 111 366 111 366 122 406 c 2,27,-1
 378 1355 l 1,0,1
300 368 m 2,28,29
 290 336 290 336 286 308 c 128,-1,30
 282 280 282 280 282 256 c 0,31,32
 282 180 282 180 324 138 c 0,33,34
 367 96 367 96 441 96 c 0,35,36
 503 96 503 96 563 134 c 128,-1,37
 623 172 623 172 675 237 c 128,-1,38
 727 302 727 302 767.5 387 c 128,-1,39
 808 472 808 472 830 565.5 c 128,-1,40
 852 659 852 659 852 752 c 0,41,42
 852 829 852 829 820 870.5 c 128,-1,43
 788 912 788 912 725 912 c 0,44,45
 684 912 684 912 638 889.5 c 128,-1,46
 592 867 592 867 547 826 c 128,-1,47
 502 785 502 785 460.5 729.5 c 128,-1,48
 419 674 419 674 385.5 608.5 c 128,-1,49
 352 543 352 543 331 471 c 2,50,-1
 300 368 l 2,28,29
EndSplineSet
EndChar

StartChar: c
Encoding: 99 99 70
Width: 941
GlyphClass: 2
Flags: MW
AnchorPoint: "Anchor-4" 395 0 basechar 0
AnchorPoint: "Anchor-3" 670 0 basechar 0
AnchorPoint: "Anchor-0" 622 1062 basechar 0
LayerCount: 2
Fore
SplineSet
617 966 m 0,0,1
 541 966 541 966 477.5 920.5 c 128,-1,2
 414 875 414 875 367 795.5 c 128,-1,3
 320 716 320 716 294 611.5 c 128,-1,4
 268 507 268 507 268 388 c 0,5,6
 268 249 268 249 315.5 195 c 128,-1,7
 363 141 363 141 457 141 c 0,8,9
 516 141 516 141 567.5 162.5 c 128,-1,10
 619 184 619 184 666.5 231.5 c 128,-1,11
 714 279 714 279 756 359 c 1,12,-1
 846 359 l 1,13,14
 794 230 794 230 729.5 145 c 128,-1,15
 665 60 665 60 584.5 18.5 c 128,-1,16
 504 -23 504 -23 402 -23 c 0,17,18
 240 -23 240 -23 156 66.5 c 128,-1,19
 72 156 72 156 72 338 c 0,20,21
 72 494 72 494 117 629.5 c 128,-1,22
 162 765 162 765 242.5 867.5 c 128,-1,23
 323 970 323 970 432 1027 c 128,-1,24
 541 1084 541 1084 670 1084 c 0,25,26
 801 1084 801 1084 869.5 1033 c 128,-1,27
 938 982 938 982 938 907 c 0,28,29
 938 851 938 851 900.5 814 c 128,-1,30
 863 777 863 777 818 777 c 0,31,32
 800 777 800 777 777.5 802 c 128,-1,33
 755 827 755 827 725 872 c 128,-1,34
 695 917 695 917 668.5 941.5 c 128,-1,35
 642 966 642 966 617 966 c 0,0,1
EndSplineSet
EndChar

StartChar: d
Encoding: 100 100 71
Width: 1210
GlyphClass: 2
Flags: MW
AnchorPoint: "Anchor-4" 465 0 basechar 0
AnchorPoint: "Anchor-3" 1286 1564 basechar 0
AnchorPoint: "Anchor-1" 1058 1267 basechar 0
LayerCount: 2
Fore
SplineSet
857 151 m 1,0,1
 876 153 876 153 896 156 c 0,2,3
 951 167 951 167 1013 196.5 c 128,-1,4
 1075 226 1075 226 1142 276 c 1,5,-1
 1182 208 l 1,6,7
 1040 70 1040 70 939 23.5 c 128,-1,8
 838 -23 838 -23 773 -23 c 0,9,10
 709 -23 709 -23 686.5 5 c 128,-1,11
 664 33 664 33 685 93 c 2,12,-1
 822 498 l 1,13,-1
 809 498 l 1,14,15
 711 336 711 336 635.5 233.5 c 128,-1,16
 560 131 560 131 498 75 c 128,-1,17
 436 19 436 19 383.5 -1.5 c 128,-1,18
 331 -22 331 -22 280 -22 c 0,19,20
 210 -22 210 -22 154.5 7 c 128,-1,21
 99 36 99 36 67.5 93.5 c 128,-1,22
 36 151 36 151 36 237 c 0,23,24
 36 339 36 339 69 453.5 c 128,-1,25
 102 568 102 568 162 679.5 c 128,-1,26
 222 791 222 791 304 882 c 128,-1,27
 386 973 386 973 483 1028 c 128,-1,28
 580 1083 580 1083 687 1083 c 0,29,30
 779 1083 779 1083 835 1032 c 0,31,32
 880 990 880 990 906 918 c 1,33,-1
 1030 1354 l 1,34,35
 1012 1366 1012 1366 981 1383 c 128,-1,36
 950 1400 950 1400 916 1417 c 128,-1,37
 882 1434 882 1434 854 1446 c 1,38,-1
 869 1513 l 1,39,-1
 1247 1587 l 1,40,-1
 1286 1587 l 1,41,-1
 857 151 l 1,0,1
886 849 m 1,42,43
 859 899 859 899 823 924 c 0,44,45
 776 957 776 957 717 957 c 0,46,47
 638 957 638 957 566.5 909.5 c 128,-1,48
 495 862 495 862 434 783.5 c 128,-1,49
 373 705 373 705 329 613.5 c 128,-1,50
 285 522 285 522 260.5 431 c 128,-1,51
 236 340 236 340 236 270 c 0,52,53
 236 202 236 202 269.5 168.5 c 128,-1,54
 303 135 303 135 360 135 c 0,55,56
 402 135 402 135 457 171 c 128,-1,57
 512 207 512 207 572 270.5 c 128,-1,58
 632 334 632 334 690 417 c 128,-1,59
 748 500 748 500 795 597 c 128,-1,60
 842 694 842 694 871 796 c 2,61,-1
 886 849 l 1,42,43
EndSplineSet
EndChar

StartChar: e
Encoding: 101 101 72
Width: 974
GlyphClass: 2
Flags: MW
AnchorPoint: "Anchor-4" 400 0 basechar 0
AnchorPoint: "Anchor-3" 705 0 basechar 0
AnchorPoint: "Anchor-0" 623 1062 basechar 0
LayerCount: 2
Fore
SplineSet
629 966 m 0,0,1
 570 966 570 966 516 937 c 128,-1,2
 462 908 462 908 416.5 856 c 128,-1,3
 371 804 371 804 338 732 c 0,4,5
 306 661 306 661 288 578 c 1,6,7
 406 601 406 601 488 623 c 0,8,9
 582 648 582 648 637.5 670 c 128,-1,10
 693 692 693 692 719 716 c 128,-1,11
 745 740 745 740 752 767 c 128,-1,12
 759 794 759 794 759 827 c 0,13,14
 759 869 759 869 744.5 900 c 128,-1,15
 730 931 730 931 701 948.5 c 128,-1,16
 672 966 672 966 629 966 c 0,0,1
273 474 m 1,17,18
 269 432 269 432 269 388 c 0,19,20
 269 249 269 249 315 195 c 128,-1,21
 361 141 361 141 456 141 c 0,22,23
 515 141 515 141 568.5 162.5 c 128,-1,24
 622 184 622 184 671 231 c 128,-1,25
 720 278 720 278 762 356 c 1,26,-1
 852 356 l 1,27,28
 791 212 791 212 720.5 130 c 128,-1,29
 650 48 650 48 569.5 12.5 c 128,-1,30
 489 -23 489 -23 399 -23 c 0,31,32
 292 -23 292 -23 218.5 17 c 128,-1,33
 145 57 145 57 108.5 136.5 c 128,-1,34
 72 216 72 216 72 335 c 0,35,36
 72 464 72 464 102 577.5 c 128,-1,37
 132 691 132 691 186 784 c 128,-1,38
 240 877 240 877 315 944.5 c 128,-1,39
 390 1012 390 1012 479 1048 c 128,-1,40
 568 1084 568 1084 670 1084 c 0,41,42
 767 1084 767 1084 826 1050 c 128,-1,43
 885 1016 885 1016 912.5 958.5 c 128,-1,44
 940 901 940 901 940 831 c 0,45,46
 940 777 940 777 923.5 721 c 128,-1,47
 907 665 907 665 881 622 c 1,48,49
 801 596 801 596 719 573 c 128,-1,50
 637 550 637 550 555.5 531 c 128,-1,51
 474 512 474 512 395 496 c 0,52,53
 332 484 332 484 273 474 c 1,17,18
EndSplineSet
EndChar

StartChar: f
Encoding: 102 102 73
Width: 747
GlyphClass: 2
Flags: MW
AnchorPoint: "Anchor-4" -7 -497 basechar 0
LayerCount: 2
Fore
SplineSet
429 247 m 2,0,1
 392 46 392 46 337.5 -98.5 c 128,-1,2
 283 -243 283 -243 212.5 -337 c 128,-1,3
 142 -431 142 -431 57 -475 c 128,-1,4
 -28 -519 -28 -519 -126 -519 c 0,5,6
 -228 -519 -228 -519 -277 -475 c 128,-1,7
 -326 -431 -326 -431 -326 -357 c 0,8,9
 -326 -293 -326 -293 -289 -259 c 128,-1,10
 -252 -225 -252 -225 -174 -225 c 1,11,12
 -164 -273 -164 -273 -154 -305.5 c 128,-1,13
 -144 -338 -144 -338 -129 -361 c 128,-1,14
 -114 -384 -114 -384 -92.5 -392 c 128,-1,15
 -71 -400 -71 -400 -44 -400 c 0,16,17
 -3 -400 -3 -400 34 -378 c 128,-1,18
 71 -356 71 -356 104 -306 c 128,-1,19
 137 -256 137 -256 165 -170 c 128,-1,20
 193 -84 193 -84 216 45 c 2,21,-1
 371 939 l 1,22,-1
 131 939 l 1,23,-1
 135 1062 l 1,24,-1
 392 1062 l 1,25,26
 422 1218 422 1218 492 1332 c 0,27,28
 565 1454 565 1454 676.5 1520.5 c 128,-1,29
 788 1587 788 1587 932 1587 c 0,30,31
 1020 1587 1020 1587 1078 1567 c 128,-1,32
 1136 1547 1136 1547 1164.5 1511.5 c 128,-1,33
 1193 1476 1193 1476 1193 1429 c 0,34,35
 1193 1366 1193 1366 1154 1331 c 128,-1,36
 1115 1296 1115 1296 1033 1296 c 1,37,38
 1021 1349 1021 1349 1007.5 1385.5 c 128,-1,39
 994 1422 994 1422 976 1443 c 128,-1,40
 958 1464 958 1464 935 1471.5 c 128,-1,41
 912 1479 912 1479 880 1479 c 0,42,43
 806 1479 806 1479 750 1444 c 128,-1,44
 694 1409 694 1409 656 1336 c 128,-1,45
 618 1263 618 1263 597 1146 c 2,46,-1
 581 1062 l 1,47,-1
 843 1062 l 1,48,-1
 839 939 l 1,49,-1
 558 939 l 1,50,-1
 429 247 l 2,0,1
EndSplineSet
EndChar

StartChar: g
Encoding: 103 103 74
Width: 1004
GlyphClass: 2
Flags: MW
AnchorPoint: "Anchor-4" 352 -502 basechar 0
AnchorPoint: "Anchor-0" 572 1062 basechar 0
LayerCount: 2
Fore
SplineSet
341 -519 m 0,0,1
 218 -519 218 -519 130.5 -500 c 128,-1,2
 43 -481 43 -481 -12.5 -445.5 c 128,-1,3
 -68 -410 -68 -410 -94.5 -363 c 128,-1,4
 -121 -316 -121 -316 -121 -260 c 0,5,6
 -121 -192 -121 -192 -88 -143 c 128,-1,7
 -55 -94 -55 -94 20 -60 c 0,8,9
 93 -26 93 -26 214 -4 c 1,10,11
 187 6 187 6 166 18 c 0,12,13
 107 51 107 51 88.5 91 c 128,-1,14
 70 131 70 131 70 173 c 0,15,16
 70 240 70 240 109 279.5 c 128,-1,17
 148 319 148 319 218 342 c 0,18,19
 249 352 249 352 284 360 c 1,20,21
 265 367 265 367 249 376 c 0,22,23
 183 413 183 413 153.5 474.5 c 128,-1,24
 124 536 124 536 124 609 c 0,25,26
 124 703 124 703 159.5 789 c 128,-1,27
 195 875 195 875 257 941.5 c 128,-1,28
 319 1008 319 1008 402.5 1046 c 128,-1,29
 486 1084 486 1084 584 1084 c 0,30,31
 663 1084 663 1084 720 1064 c 1,32,33
 789 1063 789 1063 855 1065 c 0,34,35
 940 1068 940 1068 1007 1072 c 128,-1,36
 1074 1076 1074 1076 1105 1076 c 0,37,38
 1116 1076 1116 1076 1122.5 1070.5 c 128,-1,39
 1129 1065 1129 1065 1129 1053 c 0,40,41
 1129 1036 1129 1036 1118 1009.5 c 128,-1,42
 1107 983 1107 983 1090.5 956.5 c 128,-1,43
 1074 930 1074 930 1057.5 912 c 128,-1,44
 1041 894 1041 894 1031 894 c 128,-1,45
 1021 894 1021 894 1004 900 c 128,-1,46
 987 906 987 906 962 916.5 c 128,-1,47
 937 927 937 927 900 938 c 0,48,49
 878 945 878 945 850 953 c 1,50,51
 851 951 851 951 852 950 c 0,52,53
 881 888 881 888 881 813 c 0,54,55
 881 720 881 720 845.5 634.5 c 128,-1,56
 810 549 810 549 747.5 482.5 c 128,-1,57
 685 416 685 416 602 377.5 c 128,-1,58
 519 339 519 339 421 339 c 0,59,60
 386 339 386 339 355 343 c 1,61,62
 294 336 294 336 267 318 c 0,63,64
 230 293 230 293 230 254 c 0,65,66
 230 233 230 233 239 217.5 c 128,-1,67
 248 202 248 202 274 188.5 c 128,-1,68
 300 175 300 175 351.5 160.5 c 128,-1,69
 403 146 403 146 488 129 c 0,70,71
 634 99 634 99 717 56 c 128,-1,72
 800 13 800 13 832.5 -43.5 c 128,-1,73
 865 -100 865 -100 865 -175 c 0,74,75
 865 -251 865 -251 833.5 -313.5 c 128,-1,76
 802 -376 802 -376 737 -422.5 c 128,-1,77
 672 -469 672 -469 573 -494 c 128,-1,78
 474 -519 474 -519 341 -519 c 0,0,1
431 448 m 0,79,80
 477 448 477 448 518 468 c 128,-1,81
 559 488 559 488 592 522.5 c 128,-1,82
 625 557 625 557 649.5 603 c 128,-1,83
 674 649 674 649 687 703 c 128,-1,84
 700 757 700 757 700 814 c 0,85,86
 699 896 699 896 669.5 935.5 c 128,-1,87
 640 975 640 975 574 975 c 0,88,89
 528 975 528 975 487 955.5 c 128,-1,90
 446 936 446 936 413 901 c 128,-1,91
 380 866 380 866 356 820 c 128,-1,92
 332 774 332 774 318 720 c 128,-1,93
 304 666 304 666 304 609 c 0,94,95
 305 527 305 527 334.5 487 c 128,-1,96
 364 447 364 447 431 448 c 0,79,80
294 -27 m 1,97,98
 260 -31 260 -31 232 -38 c 0,99,100
 168 -53 168 -53 130 -79.5 c 128,-1,101
 92 -106 92 -106 76 -142 c 128,-1,102
 60 -178 60 -178 60 -224 c 0,103,104
 60 -278 60 -278 91.5 -320 c 128,-1,105
 123 -362 123 -362 193 -384.5 c 128,-1,106
 263 -407 263 -407 379 -407 c 0,107,108
 482 -407 482 -407 550.5 -383 c 128,-1,109
 619 -359 619 -359 654 -317 c 128,-1,110
 689 -275 689 -275 689 -226 c 0,111,112
 689 -190 689 -190 673.5 -163.5 c 128,-1,113
 658 -137 658 -137 620.5 -116 c 128,-1,114
 583 -95 583 -95 516.5 -77 c 128,-1,115
 450 -59 450 -59 349 -39 c 0,116,117
 320 -34 320 -34 294 -27 c 1,97,98
EndSplineSet
EndChar

StartChar: h
Encoding: 104 104 75
Width: 1210
GlyphClass: 2
Flags: MW
AnchorPoint: "Anchor-4" 453 0 basechar 0
AnchorPoint: "Anchor-1" 512 1267 basechar 0
LayerCount: 2
Fore
SplineSet
301 252 m 2,0,-1
 229 0 l 1,1,-1
 30 0 l 1,2,-1
 400 1355 l 1,3,4
 382 1366 382 1366 351.5 1383 c 128,-1,5
 321 1400 321 1400 287.5 1417 c 128,-1,6
 254 1434 254 1434 225 1446 c 1,7,-1
 239 1513 l 1,8,-1
 618 1587 l 1,9,-1
 657 1587 l 1,10,-1
 301 502 l 1,11,-1
 325 504 l 1,12,13
 397 662 397 662 465.5 772.5 c 128,-1,14
 534 883 534 883 603.5 952 c 128,-1,15
 673 1021 673 1021 744 1052 c 128,-1,16
 815 1083 815 1083 890 1083 c 0,17,18
 992 1083 992 1083 1038 1030.5 c 128,-1,19
 1084 978 1084 978 1084 899 c 0,20,21
 1084 858 1084 858 1071 800.5 c 128,-1,22
 1058 743 1058 743 1025 653 c 2,23,-1
 838 158 l 1,24,25
 861 160 861 160 884 166 c 0,26,27
 936 177 936 177 995 205 c 128,-1,28
 1054 233 1054 233 1122 278 c 1,29,-1
 1165 205 l 1,30,31
 1067 116 1067 116 984.5 66.5 c 128,-1,32
 902 17 902 17 836 -3 c 128,-1,33
 770 -23 770 -23 713 -23 c 0,34,35
 647 -23 647 -23 624.5 8.5 c 128,-1,36
 602 40 602 40 632 117 c 2,37,-1
 848 692 l 2,38,39
 869 746 869 746 876.5 777.5 c 128,-1,40
 884 809 884 809 884 831 c 0,41,42
 884 863 884 863 862.5 882.5 c 128,-1,43
 841 902 841 902 794 902 c 0,44,45
 728 902 728 902 658 853.5 c 128,-1,46
 588 805 588 805 522 717.5 c 128,-1,47
 456 630 456 630 399 511 c 128,-1,48
 342 392 342 392 301 252 c 2,0,-1
EndSplineSet
EndChar

StartChar: i
Encoding: 105 105 76
Width: 695
GlyphClass: 2
Flags: MW
AnchorPoint: "Anchor-4" 219 0 basechar 0
AnchorPoint: "Anchor-3" 367 0 basechar 0
AnchorPoint: "Anchor-0" 632 1522 basechar 0
LayerCount: 2
Fore
SplineSet
456 1419 m 0,0,1
 456 1467 456 1467 475.5 1504 c 128,-1,2
 495 1541 495 1541 533.5 1562.5 c 128,-1,3
 572 1584 572 1584 627 1584 c 0,4,5
 697 1584 697 1584 733.5 1550 c 128,-1,6
 770 1516 770 1516 770 1461 c 0,7,8
 770 1412 770 1412 750.5 1375 c 128,-1,9
 731 1338 731 1338 693 1316 c 0,10,11
 654 1295 654 1295 598 1295 c 0,12,13
 528 1295 528 1295 492 1329 c 128,-1,14
 456 1363 456 1363 456 1419 c 0,0,1
320 158 m 1,15,16
 339 160 339 160 358 164 c 0,17,18
 412 173 412 173 470 200.5 c 128,-1,19
 528 228 528 228 590 274 c 1,20,-1
 632 203 l 1,21,22
 537 114 537 114 458.5 65 c 128,-1,23
 380 16 380 16 317 -3.5 c 128,-1,24
 254 -23 254 -23 201 -23 c 0,25,26
 129 -23 129 -23 110 9.5 c 128,-1,27
 91 42 91 42 124 136 c 2,28,-1
 391 901 l 1,29,30
 373 898 373 898 355 894 c 0,31,32
 301 881 301 881 238 848.5 c 128,-1,33
 175 816 175 816 103 761 c 1,34,-1
 57 833 l 1,35,36
 165 938 165 938 248.5 992.5 c 128,-1,37
 332 1047 332 1047 394.5 1065.5 c 128,-1,38
 457 1084 457 1084 503 1084 c 0,39,40
 573 1084 573 1084 595.5 1048 c 128,-1,41
 618 1012 618 1012 587 926 c 2,42,-1
 320 158 l 1,15,16
EndSplineSet
EndChar

StartChar: j
Encoding: 106 106 77
Width: 625
GlyphClass: 2
Flags: MW
AnchorPoint: "Anchor-4" -66 -497 basechar 0
AnchorPoint: "Anchor-0" 586 1522 basechar 0
LayerCount: 2
Fore
SplineSet
353 160 m 2,0,1
 292 -62 292 -62 202 -214 c 128,-1,2
 112 -366 112 -366 4.5 -442.5 c 128,-1,3
 -103 -519 -103 -519 -216 -519 c 0,4,5
 -302 -519 -302 -519 -338 -477 c 128,-1,6
 -374 -435 -374 -435 -374 -374 c 0,7,8
 -374 -316 -374 -316 -341.5 -279 c 128,-1,9
 -309 -242 -309 -242 -269 -242 c 0,10,11
 -263 -242 -263 -242 -243.5 -261 c 128,-1,12
 -224 -280 -224 -280 -197 -310 c 0,13,14
 -168 -338 -168 -338 -149 -352 c 128,-1,15
 -130 -366 -130 -366 -119 -366 c 0,16,17
 -87 -366 -87 -366 -56.5 -350 c 128,-1,18
 -26 -334 -26 -334 5.5 -288 c 128,-1,19
 37 -242 37 -242 72 -154 c 0,20,21
 106 -66 106 -66 146 78 c 2,22,-1
 371 901 l 1,23,24
 356 898 356 898 340 894 c 0,25,26
 290 880 290 880 227 846 c 128,-1,27
 164 812 164 812 86 753 c 1,28,-1
 41 824 l 1,29,30
 142 922 142 922 221 979.5 c 128,-1,31
 300 1037 300 1037 363.5 1060.5 c 128,-1,32
 427 1084 427 1084 478 1084 c 0,33,34
 524 1084 524 1084 547 1069 c 128,-1,35
 570 1054 570 1054 573.5 1019 c 128,-1,36
 577 984 577 984 560 926 c 2,37,-1
 353 160 l 2,0,1
430 1419 m 0,38,39
 430 1467 430 1467 449.5 1504 c 128,-1,40
 469 1541 469 1541 507 1562.5 c 128,-1,41
 545 1584 545 1584 600 1584 c 0,42,43
 671 1584 671 1584 708 1550 c 128,-1,44
 745 1516 745 1516 745 1461 c 0,45,46
 745 1412 745 1412 725.5 1375 c 128,-1,47
 706 1338 706 1338 667.5 1316.5 c 128,-1,48
 629 1295 629 1295 574 1295 c 0,49,50
 504 1295 504 1295 467 1329 c 128,-1,51
 430 1363 430 1363 430 1419 c 0,38,39
EndSplineSet
EndChar

StartChar: k
Encoding: 107 107 78
Width: 1138
GlyphClass: 2
Flags: MW
AnchorPoint: "Anchor-4" 459 0 basechar 0
LayerCount: 2
Fore
SplineSet
541 655 m 1,0,1
 598 508 598 508 639 412 c 0,2,3
 685 306 685 306 717 247.5 c 128,-1,4
 749 189 749 189 774.5 167 c 128,-1,5
 800 145 800 145 824 145 c 128,-1,6
 848 145 848 145 875 162.5 c 128,-1,7
 902 180 902 180 938.5 217 c 128,-1,8
 975 254 975 254 1019 309 c 1,9,-1
 1071 254 l 1,10,11
 995 148 995 148 933.5 88 c 128,-1,12
 872 28 872 28 823.5 2.5 c 128,-1,13
 775 -23 775 -23 735 -23 c 0,14,15
 694 -23 694 -23 656 5 c 128,-1,16
 618 33 618 33 577 102 c 128,-1,17
 536 171 536 171 486 290 c 0,18,19
 438 402 438 402 376 574 c 1,20,-1
 218 0 l 1,21,-1
 28 0 l 1,22,-1
 404 1355 l 1,23,24
 386 1366 386 1366 355.5 1383 c 128,-1,25
 325 1400 325 1400 290.5 1417 c 128,-1,26
 256 1434 256 1434 228 1447 c 1,27,-1
 242 1514 l 1,28,-1
 618 1587 l 1,29,-1
 656 1587 l 1,30,-1
 391 628 l 1,31,32
 519 760 519 760 611 848 c 0,33,34
 707 939 707 939 776.5 991 c 128,-1,35
 846 1043 846 1043 901.5 1063.5 c 128,-1,36
 957 1084 957 1084 1013 1084 c 0,37,38
 1085 1084 1085 1084 1120 1045.5 c 128,-1,39
 1155 1007 1155 1007 1155 950 c 0,40,41
 1155 888 1155 888 1129.5 849.5 c 128,-1,42
 1104 811 1104 811 1068.5 793 c 128,-1,43
 1033 775 1033 775 1003 775 c 0,44,45
 995 775 995 775 982 795.5 c 128,-1,46
 969 816 969 816 953 843 c 0,47,48
 938 870 938 870 922 888 c 128,-1,49
 906 906 906 906 893 906 c 0,50,51
 871 906 871 906 839.5 891 c 128,-1,52
 808 876 808 876 759.5 841.5 c 128,-1,53
 711 807 711 807 642 747 c 0,54,55
 598 708 598 708 541 655 c 1,0,1
EndSplineSet
EndChar

StartChar: l
Encoding: 108 108 79
Width: 635
GlyphClass: 2
Flags: MW
AnchorPoint: "Anchor-4" 180 0 basechar 0
AnchorPoint: "Anchor-3" 670 1564 basechar 0
LayerCount: 2
Fore
SplineSet
416 1355 m 1,0,1
 398 1366 398 1366 367 1383 c 128,-1,2
 336 1400 336 1400 302.5 1417 c 128,-1,3
 269 1434 269 1434 240 1446 c 1,4,-1
 256 1513 l 1,5,-1
 630 1587 l 1,6,-1
 668 1587 l 1,7,-1
 269 158 l 1,8,9
 292 160 292 160 316 164 c 0,10,11
 369 174 369 174 427.5 201.5 c 128,-1,12
 486 229 486 229 548 275 c 1,13,-1
 590 203 l 1,14,15
 494 113 494 113 415 64 c 128,-1,16
 336 15 336 15 273 -4 c 128,-1,17
 210 -23 210 -23 159 -23 c 0,18,19
 91 -23 91 -23 70.5 9 c 128,-1,20
 50 41 50 41 76 136 c 2,21,-1
 416 1355 l 1,0,1
EndSplineSet
EndChar

StartChar: m
Encoding: 109 109 80
Width: 1835
GlyphClass: 2
Flags: MW
AnchorPoint: "Anchor-4" 789 0 basechar 0
AnchorPoint: "Anchor-0" 1086 1062 basechar 0
LayerCount: 2
Fore
SplineSet
1463 158 m 1,0,1
 1486 160 1486 160 1510 166 c 0,2,3
 1561 177 1561 177 1620 205 c 128,-1,4
 1679 233 1679 233 1747 278 c 1,5,-1
 1790 205 l 1,6,7
 1691 116 1691 116 1609.5 66.5 c 128,-1,8
 1528 17 1528 17 1461.5 -3 c 128,-1,9
 1395 -23 1395 -23 1339 -23 c 0,10,11
 1273 -23 1273 -23 1250.5 8.5 c 128,-1,12
 1228 40 1228 40 1258 117 c 2,13,-1
 1474 694 l 2,14,15
 1494 748 1494 748 1502 778.5 c 128,-1,16
 1510 809 1510 809 1510 831 c 0,17,18
 1510 863 1510 863 1491 882.5 c 128,-1,19
 1472 902 1472 902 1426 902 c 0,20,21
 1362 902 1362 902 1297 854.5 c 128,-1,22
 1232 807 1232 807 1170.5 722.5 c 128,-1,23
 1109 638 1109 638 1054.5 524 c 128,-1,24
 1000 410 1000 410 959 278 c 2,25,-1
 875 0 l 1,26,-1
 675 0 l 1,27,-1
 887 694 l 2,28,29
 897 731 897 731 904 756 c 128,-1,30
 911 781 911 781 914 799.5 c 128,-1,31
 917 818 917 818 917 831 c 0,32,33
 917 864 917 864 898 883 c 128,-1,34
 879 902 879 902 834 902 c 0,35,36
 773 902 773 902 711.5 854 c 128,-1,37
 650 806 650 806 591 718 c 128,-1,38
 532 630 532 630 480 511.5 c 128,-1,39
 428 393 428 393 389 252 c 2,40,-1
 315 0 l 1,41,-1
 117 0 l 1,42,-1
 363 900 l 1,43,44
 361 900 361 900 358 900 c 128,-1,45
 355 900 355 900 352 900 c 0,46,47
 295 900 295 900 248.5 885 c 128,-1,48
 202 870 202 870 162 835.5 c 128,-1,49
 122 801 122 801 84 740 c 1,50,-1
 64 748 l 1,51,52
 97 880 97 880 149.5 953 c 128,-1,53
 202 1026 202 1026 276 1054.5 c 128,-1,54
 350 1083 350 1083 441 1083 c 0,55,56
 460 1083 460 1083 477 1082 c 128,-1,57
 494 1081 494 1081 512 1080 c 128,-1,58
 530 1079 530 1079 550 1075 c 1,59,-1
 385 503 l 1,60,-1
 410 504 l 1,61,62
 483 675 483 675 549 788 c 128,-1,63
 615 901 615 901 675 965.5 c 128,-1,64
 735 1030 735 1030 792 1057 c 128,-1,65
 849 1084 849 1084 905 1084 c 0,66,67
 994 1084 994 1084 1031 1040 c 128,-1,68
 1068 996 1068 996 1068 926 c 0,69,70
 1068 878 1068 878 1054.5 822 c 128,-1,71
 1041 766 1041 766 1015 677 c 2,72,-1
 966 514 l 1,73,-1
 990 514 l 1,74,75
 1062 678 1062 678 1129 788.5 c 128,-1,76
 1196 899 1196 899 1260.5 963.5 c 128,-1,77
 1325 1028 1325 1028 1389.5 1056 c 128,-1,78
 1454 1084 1454 1084 1522 1084 c 0,79,80
 1620 1084 1620 1084 1664.5 1033 c 128,-1,81
 1709 982 1709 982 1709 904 c 0,82,83
 1709 862 1709 862 1696.5 803.5 c 128,-1,84
 1684 745 1684 745 1650 653 c 2,85,-1
 1463 158 l 1,0,1
EndSplineSet
EndChar

StartChar: n
Encoding: 110 110 81
Width: 1295
GlyphClass: 2
Flags: MW
AnchorPoint: "Anchor-4" 536 0 basechar 0
AnchorPoint: "Anchor-0" 788 1062 basechar 0
LayerCount: 2
Fore
SplineSet
84 740 m 1,0,-1
 64 748 l 1,1,2
 97 880 97 880 149.5 953 c 128,-1,3
 202 1026 202 1026 276 1054.5 c 128,-1,4
 350 1083 350 1083 441 1083 c 0,5,6
 460 1083 460 1083 477 1082 c 128,-1,7
 494 1081 494 1081 512 1080 c 128,-1,8
 530 1079 530 1079 550 1075 c 1,9,-1
 383 497 l 1,10,-1
 409 498 l 1,11,12
 480 657 480 657 549.5 768.5 c 128,-1,13
 619 880 619 880 688 950 c 128,-1,14
 757 1020 757 1020 829 1051.5 c 128,-1,15
 901 1083 901 1083 977 1083 c 0,16,17
 1079 1083 1079 1083 1124.5 1030.5 c 128,-1,18
 1170 978 1170 978 1170 899 c 0,19,20
 1170 858 1170 858 1158 800.5 c 128,-1,21
 1146 743 1146 743 1112 653 c 2,22,-1
 926 158 l 1,23,24
 948 160 948 160 971 166 c 0,25,26
 1022 177 1022 177 1081 205 c 128,-1,27
 1140 233 1140 233 1208 278 c 1,28,-1
 1251 205 l 1,29,30
 1152 116 1152 116 1070.5 66.5 c 128,-1,31
 989 17 989 17 922 -3 c 128,-1,32
 855 -23 855 -23 801 -23 c 0,33,34
 735 -23 735 -23 712 8.5 c 128,-1,35
 689 40 689 40 718 117 c 2,36,-1
 936 692 l 2,37,38
 956 746 956 746 963.5 777.5 c 128,-1,39
 971 809 971 809 971 831 c 0,40,41
 971 863 971 863 949 882.5 c 128,-1,42
 927 902 927 902 881 902 c 0,43,44
 815 902 815 902 745 853.5 c 128,-1,45
 675 805 675 805 608.5 717.5 c 128,-1,46
 542 630 542 630 485 511 c 128,-1,47
 428 392 428 392 389 252 c 2,48,-1
 315 0 l 1,49,-1
 117 0 l 1,50,-1
 363 900 l 1,51,52
 361 900 361 900 358 900 c 128,-1,53
 355 900 355 900 352 900 c 0,54,55
 295 900 295 900 248.5 885 c 128,-1,56
 202 870 202 870 162 836 c 128,-1,57
 122 802 122 802 84 740 c 1,0,-1
EndSplineSet
EndChar

StartChar: o
Encoding: 111 111 82
Width: 1083
GlyphClass: 2
Flags: MW
AnchorPoint: "Anchor-4" 389 0 basechar 0
AnchorPoint: "Anchor-3" 493 0 basechar 0
AnchorPoint: "Anchor-2" 841 1062 basechar 0
AnchorPoint: "Anchor-0" 681 1062 basechar 0
LayerCount: 2
Fore
SplineSet
432 111 m 0,0,1
 499 111 499 111 558.5 145.5 c 128,-1,2
 618 180 618 180 664.5 242.5 c 128,-1,3
 711 305 711 305 744 386 c 128,-1,4
 777 467 777 467 794.5 558.5 c 128,-1,5
 812 650 812 650 812 743 c 0,6,7
 812 845 812 845 770 897.5 c 128,-1,8
 728 950 728 950 649 950 c 0,9,10
 582 950 582 950 523.5 915.5 c 128,-1,11
 465 881 465 881 418 819 c 128,-1,12
 371 757 371 757 338 676 c 128,-1,13
 305 595 305 595 287 504 c 128,-1,14
 269 413 269 413 269 319 c 0,15,16
 269 217 269 217 311.5 164 c 128,-1,17
 354 111 354 111 432 111 c 0,0,1
656 1084 m 0,18,19
 773 1084 773 1084 850.5 1037 c 128,-1,20
 928 990 928 990 968.5 907 c 128,-1,21
 1009 824 1009 824 1009 714 c 0,22,23
 1009 567 1009 567 965.5 434 c 128,-1,24
 922 301 922 301 842.5 198 c 128,-1,25
 763 95 763 95 657 36 c 128,-1,26
 551 -23 551 -23 427 -23 c 0,27,28
 310 -23 310 -23 231.5 24 c 128,-1,29
 153 71 153 71 112.5 155 c 128,-1,30
 72 239 72 239 72 348 c 0,31,32
 72 495 72 495 116.5 627.5 c 128,-1,33
 161 760 161 760 239.5 863.5 c 128,-1,34
 318 967 318 967 424.5 1025.5 c 128,-1,35
 531 1084 531 1084 656 1084 c 0,18,19
EndSplineSet
Substitution2: "Single Substitution lookup 3 subtable" ordmasculine
EndChar

StartChar: p
Encoding: 112 112 83
Width: 1215
GlyphClass: 2
Flags: MW
AnchorPoint: "Anchor-4" 85 -497 basechar 0
AnchorPoint: "Anchor-0" 754 1062 basechar 0
LayerCount: 2
Fore
SplineSet
382 314 m 2,0,1
 376 290 376 290 373.5 272.5 c 128,-1,2
 371 255 371 255 371 241 c 0,3,4
 371 177 371 177 415 134 c 128,-1,5
 459 91 459 91 549 91 c 0,6,7
 615 91 615 91 673.5 127 c 128,-1,8
 732 163 732 163 782.5 227 c 128,-1,9
 833 291 833 291 869.5 372 c 128,-1,10
 906 453 906 453 926 542 c 128,-1,11
 946 631 946 631 946 719 c 0,12,13
 946 824 946 824 911 869.5 c 128,-1,14
 876 915 876 915 809 915 c 0,15,16
 764 915 764 915 715.5 887 c 128,-1,17
 667 859 667 859 620.5 810.5 c 128,-1,18
 574 762 574 762 532.5 703 c 128,-1,19
 491 644 491 644 461 580 c 128,-1,20
 431 516 431 516 418 458 c 2,21,-1
 382 314 l 2,0,1
325 57 m 1,22,-1
 210 -370 l 1,23,-1
 390 -415 l 1,24,-1
 366 -519 l 1,25,-1
 -151 -519 l 1,26,-1
 -127 -416 l 1,27,-1
 22 -370 l 1,28,-1
 361 901 l 1,29,30
 360 901 360 901 357 901 c 128,-1,31
 354 901 354 901 352 901 c 0,32,33
 295 901 295 901 248 886.5 c 128,-1,34
 201 872 201 872 161 836.5 c 128,-1,35
 121 801 121 801 83 741 c 1,36,-1
 64 748 l 1,37,38
 96 880 96 880 148.5 953.5 c 128,-1,39
 201 1027 201 1027 275 1055.5 c 128,-1,40
 349 1084 349 1084 439 1084 c 0,41,42
 467 1084 467 1084 493 1082 c 128,-1,43
 519 1080 519 1080 547 1076 c 1,44,-1
 434 674 l 1,45,-1
 450 680 l 1,46,47
 527 825 527 825 602.5 913.5 c 128,-1,48
 678 1002 678 1002 751 1043 c 128,-1,49
 824 1084 824 1084 894 1084 c 0,50,51
 1022 1084 1022 1084 1087 995.5 c 128,-1,52
 1152 907 1152 907 1152 770 c 0,53,54
 1152 649 1152 649 1122.5 533.5 c 128,-1,55
 1093 418 1093 418 1037.5 317 c 128,-1,56
 982 216 982 216 907 140 c 128,-1,57
 832 64 832 64 740.5 20.5 c 128,-1,58
 649 -23 649 -23 547 -23 c 0,59,60
 444 -23 444 -23 372 20 c 0,61,62
 345 36 345 36 325 57 c 1,22,-1
EndSplineSet
EndChar

StartChar: q
Encoding: 113 113 84
Width: 1133
GlyphClass: 2
Flags: MW
AnchorPoint: "Anchor-4" 609 -497 basechar 0
AnchorPoint: "Anchor-0" 748 1062 basechar 0
LayerCount: 2
Fore
SplineSet
546 -372 m 1,0,-1
 770 391 l 1,1,-1
 757 391 l 1,2,3
 674 258 674 258 607 176 c 128,-1,4
 540 94 540 94 482.5 51.5 c 128,-1,5
 425 9 425 9 375.5 -6.5 c 128,-1,6
 326 -22 326 -22 280 -22 c 0,7,8
 209 -22 209 -22 154 7 c 128,-1,9
 99 36 99 36 67.5 93 c 128,-1,10
 36 150 36 150 36 235 c 0,11,12
 36 337 36 337 69 451.5 c 128,-1,13
 102 566 102 566 161.5 677 c 128,-1,14
 221 788 221 788 302.5 879.5 c 128,-1,15
 384 971 384 971 481 1025.5 c 128,-1,16
 578 1080 578 1080 685 1080 c 0,17,18
 777 1080 777 1080 833 1028 c 0,19,20
 881 984 881 984 906 906 c 1,21,-1
 982 1062 l 1,22,-1
 1121 1062 l 1,23,-1
 739 -369 l 1,24,-1
 883 -416 l 1,25,-1
 860 -519 l 1,26,-1
 335 -519 l 1,27,-1
 357 -415 l 1,28,-1
 546 -372 l 1,0,-1
885 846 m 1,29,30
 858 897 858 897 822 922 c 0,31,32
 774 954 774 954 715 954 c 0,33,34
 637 954 637 954 565.5 906.5 c 128,-1,35
 494 859 494 859 433.5 781 c 128,-1,36
 373 703 373 703 328.5 611 c 128,-1,37
 284 519 284 519 259.5 429 c 128,-1,38
 235 339 235 339 235 269 c 0,39,40
 235 201 235 201 270 168 c 128,-1,41
 305 135 305 135 364 135 c 0,42,43
 418 135 418 135 485 178.5 c 128,-1,44
 552 222 552 222 619 297.5 c 128,-1,45
 686 373 686 373 743 470 c 128,-1,46
 800 567 800 567 832 675 c 2,47,-1
 885 846 l 1,29,30
EndSplineSet
EndChar

StartChar: r
Encoding: 114 114 85
Width: 968
GlyphClass: 2
Flags: MW
AnchorPoint: "Anchor-4" 217 0 basechar 0
AnchorPoint: "Anchor-0" 629 1062 basechar 0
LayerCount: 2
Fore
SplineSet
363 900 m 1,0,1
 361 900 361 900 358 900 c 128,-1,2
 355 900 355 900 352 900 c 0,3,4
 295 900 295 900 248.5 885 c 128,-1,5
 202 870 202 870 162 835.5 c 128,-1,6
 122 801 122 801 84 740 c 1,7,-1
 64 748 l 1,8,9
 97 880 97 880 149.5 953 c 128,-1,10
 202 1026 202 1026 276 1054.5 c 128,-1,11
 350 1083 350 1083 441 1083 c 0,12,13
 461 1083 461 1083 479 1082 c 128,-1,14
 497 1081 497 1081 515.5 1080 c 128,-1,15
 534 1079 534 1079 553 1075 c 1,16,-1
 401 562 l 1,17,18
 402 562 402 562 428 562 c 1,19,20
 521 759 521 759 600 872.5 c 128,-1,21
 679 986 679 986 752.5 1035 c 128,-1,22
 826 1084 826 1084 901 1084 c 0,23,24
 978 1084 978 1084 1011.5 1046.5 c 128,-1,25
 1045 1009 1045 1009 1045 955 c 0,26,27
 1045 897 1045 897 1019 855.5 c 128,-1,28
 993 814 993 814 959.5 793 c 128,-1,29
 926 772 926 772 904 772 c 0,30,31
 899 772 899 772 882.5 788.5 c 128,-1,32
 866 805 866 805 846 826 c 0,33,34
 825 849 825 849 806.5 865 c 128,-1,35
 788 881 788 881 776 881 c 0,36,37
 743 881 743 881 702.5 850 c 128,-1,38
 662 819 662 819 620 761.5 c 128,-1,39
 578 704 578 704 536 628 c 128,-1,40
 494 552 494 552 457.5 462 c 128,-1,41
 421 372 421 372 393 275 c 2,42,-1
 315 0 l 1,43,-1
 116 0 l 1,44,-1
 363 900 l 1,0,1
EndSplineSet
EndChar

StartChar: s
Encoding: 115 115 86
Width: 877
GlyphClass: 2
Flags: MW
AnchorPoint: "Anchor-4" 352 0 basechar 0
AnchorPoint: "Anchor-0" 556 1062 basechar 0
LayerCount: 2
Fore
SplineSet
194 302 m 1,0,1
 204 238 204 238 216 200 c 128,-1,2
 228 162 228 162 248 135 c 0,3,4
 269 108 269 108 291.5 99 c 128,-1,5
 314 90 314 90 347 90 c 0,6,7
 413 90 413 90 466 111.5 c 128,-1,8
 519 133 519 133 550 174.5 c 128,-1,9
 581 216 581 216 581 275 c 0,10,11
 581 315 581 315 566.5 348 c 128,-1,12
 552 381 552 381 510.5 413.5 c 128,-1,13
 469 446 469 446 390 484 c 0,14,15
 312 522 312 522 268 562 c 128,-1,16
 224 602 224 602 206 648 c 128,-1,17
 188 694 188 694 188 751 c 0,18,19
 188 850 188 850 237 925.5 c 128,-1,20
 286 1001 286 1001 375.5 1042.5 c 128,-1,21
 465 1084 465 1084 587 1084 c 0,22,23
 673 1084 673 1084 730.5 1064 c 128,-1,24
 788 1044 788 1044 818 1007 c 128,-1,25
 848 970 848 970 848 916 c 0,26,27
 848 878 848 878 830.5 848.5 c 128,-1,28
 813 819 813 819 779.5 802.5 c 128,-1,29
 746 786 746 786 695 786 c 1,30,31
 684 838 684 838 670 870.5 c 128,-1,32
 656 903 656 903 637 927 c 0,33,34
 617 951 617 951 593.5 960 c 128,-1,35
 570 969 570 969 538 969 c 0,36,37
 453 969 453 969 400 929.5 c 128,-1,38
 347 890 347 890 347 825 c 0,39,40
 347 792 347 792 360 763 c 128,-1,41
 373 734 373 734 414 703 c 128,-1,42
 455 672 455 672 537 627 c 0,43,44
 620 584 620 584 663.5 537.5 c 128,-1,45
 707 491 707 491 723.5 440 c 128,-1,46
 740 389 740 389 740 332 c 0,47,48
 740 223 740 223 683 143.5 c 128,-1,49
 626 64 626 64 527.5 20.5 c 128,-1,50
 429 -23 429 -23 303 -23 c 0,51,52
 202 -23 202 -23 140 2 c 128,-1,53
 78 27 78 27 50.5 69.5 c 128,-1,54
 23 112 23 112 23 163 c 0,55,56
 23 206 23 206 38 237.5 c 128,-1,57
 53 269 53 269 90.5 285.5 c 128,-1,58
 128 302 128 302 194 302 c 1,0,1
EndSplineSet
EndChar

StartChar: t
Encoding: 116 116 87
Width: 777
GlyphClass: 2
Flags: MW
AnchorPoint: "Anchor-4" 318 0 basechar 0
AnchorPoint: "Anchor-3" 695 1602 basechar 0
LayerCount: 2
Fore
SplineSet
381 333 m 2,0,1
 371 298 371 298 364.5 271 c 128,-1,2
 358 244 358 244 355 225 c 128,-1,3
 352 206 352 206 352 195 c 0,4,5
 352 169 352 169 360 160.5 c 128,-1,6
 368 152 368 152 386 152 c 0,7,8
 408 152 408 152 441.5 168 c 128,-1,9
 475 184 475 184 523.5 221.5 c 128,-1,10
 572 259 572 259 637 325 c 1,11,-1
 688 258 l 1,12,13
 622 181 622 181 562.5 128 c 128,-1,14
 503 75 503 75 451 42 c 128,-1,15
 399 9 399 9 355.5 -7 c 128,-1,16
 312 -23 312 -23 273 -23 c 0,17,18
 219 -23 219 -23 188.5 12.5 c 128,-1,19
 158 48 158 48 158 121 c 0,20,21
 158 154 158 154 166.5 203 c 128,-1,22
 175 252 175 252 197 328 c 2,23,-1
 365 939 l 1,24,-1
 142 939 l 1,25,-1
 149 1062 l 1,26,-1
 399 1062 l 1,27,-1
 461 1286 l 1,28,-1
 647 1286 l 1,29,-1
 584 1062 l 1,30,-1
 819 1062 l 1,31,-1
 815 939 l 1,32,-1
 550 939 l 1,33,-1
 381 333 l 2,0,1
EndSplineSet
EndChar

StartChar: u
Encoding: 117 117 88
Width: 1260
GlyphClass: 2
Flags: MW
AnchorPoint: "Anchor-4" 512 0 basechar 0
AnchorPoint: "Anchor-3" 1045 0 basechar 0
AnchorPoint: "Anchor-2" 1122 1062 basechar 0
AnchorPoint: "Anchor-0" 738 1062 basechar 0
LayerCount: 2
Fore
SplineSet
746 91 m 2,0,-1
 866 488 l 1,1,-1
 845 487 l 1,2,3
 761 322 761 322 693 221 c 128,-1,4
 625 120 625 120 566 67 c 128,-1,5
 507 14 507 14 452 -4.5 c 128,-1,6
 397 -23 397 -23 338 -23 c 0,7,8
 235 -23 235 -23 188 28 c 128,-1,9
 141 79 141 79 141 158 c 0,10,11
 141 198 141 198 153 256.5 c 128,-1,12
 165 315 165 315 202 421 c 2,13,-1
 372 902 l 1,14,15
 353 898 353 898 332 892 c 0,16,17
 279 876 279 876 220 842 c 128,-1,18
 161 808 161 808 95 753 c 1,19,20
 95 754 95 754 48 824 c 1,21,22
 152 930 152 930 233.5 986 c 128,-1,23
 315 1042 315 1042 380 1052 c 128,-1,24
 445 1062 445 1062 494 1062 c 0,25,26
 560 1062 560 1062 581 1036 c 128,-1,27
 602 1010 602 1010 572 923 c 2,28,-1
 364 337 l 2,29,30
 351 298 351 298 343 268.5 c 128,-1,31
 335 239 335 239 335 218 c 0,32,33
 335 183 335 183 358.5 165.5 c 128,-1,34
 382 148 382 148 421 148 c 0,35,36
 459 148 459 148 509.5 172.5 c 128,-1,37
 560 197 560 197 617 253.5 c 128,-1,38
 674 310 674 310 729.5 409 c 128,-1,39
 785 508 785 508 835 656 c 2,40,-1
 972 1062 l 1,41,-1
 1170 1062 l 1,42,-1
 904 151 l 1,43,44
 925 153 925 153 946 157 c 0,45,46
 1001 167 1001 167 1064 197 c 128,-1,47
 1127 227 1127 227 1193 278 c 1,48,-1
 1233 208 l 1,49,50
 1091 70 1091 70 989.5 23.5 c 128,-1,51
 888 -23 888 -23 826 -23 c 0,52,53
 767 -23 767 -23 747.5 4.5 c 128,-1,54
 728 32 728 32 746 91 c 2,0,-1
EndSplineSet
EndChar

StartChar: v
Encoding: 118 118 89
Width: 1129
GlyphClass: 2
Flags: MW
AnchorPoint: "Anchor-4" 433 0 basechar 0
AnchorPoint: "Anchor-0" 703 1062 basechar 0
LayerCount: 2
Fore
SplineSet
1074 868 m 0,0,1
 1074 727 1074 727 1037.5 595 c 128,-1,2
 1001 463 1001 463 937 351 c 128,-1,3
 873 239 873 239 789.5 155 c 128,-1,4
 706 71 706 71 610 24 c 128,-1,5
 514 -23 514 -23 415 -23 c 0,6,7
 291 -23 291 -23 228 32 c 128,-1,8
 165 87 165 87 165 189 c 0,9,10
 165 252 165 252 189 328 c 2,11,-1
 369 900 l 1,12,13
 367 900 367 900 364 900 c 128,-1,14
 361 900 361 900 358 900 c 0,15,16
 301 900 301 900 254.5 885 c 128,-1,17
 208 870 208 870 168 835.5 c 128,-1,18
 128 801 128 801 90 740 c 1,19,-1
 70 748 l 1,20,21
 98 847 98 847 135 912 c 128,-1,22
 172 977 172 977 221.5 1015 c 128,-1,23
 271 1053 271 1053 334.5 1068.5 c 128,-1,24
 398 1084 398 1084 478 1084 c 0,25,26
 501 1084 501 1084 521.5 1083 c 128,-1,27
 542 1082 542 1082 562.5 1080.5 c 128,-1,28
 583 1079 583 1079 606 1075 c 1,29,-1
 369 315 l 2,30,31
 362 290 362 290 358 268.5 c 128,-1,32
 354 247 354 247 354 230 c 0,33,34
 354 179 354 179 386 156.5 c 128,-1,35
 418 134 418 134 481 134 c 0,36,37
 542 134 542 134 604 166 c 128,-1,38
 666 198 666 198 723 253.5 c 128,-1,39
 780 309 780 309 824.5 380 c 128,-1,40
 869 451 869 451 895 531.5 c 128,-1,41
 921 612 921 612 921 693 c 0,42,43
 921 750 921 750 898.5 786 c 128,-1,44
 876 822 876 822 846 844.5 c 128,-1,45
 816 867 816 867 793.5 885 c 128,-1,46
 771 903 771 903 771 924 c 0,47,48
 771 1000 771 1000 816 1042 c 128,-1,49
 861 1084 861 1084 922 1084 c 0,50,51
 990 1084 990 1084 1032 1029.5 c 128,-1,52
 1074 975 1074 975 1074 868 c 0,0,1
EndSplineSet
EndChar

StartChar: w
Encoding: 119 119 90
Width: 1611
GlyphClass: 2
Flags: MW
AnchorPoint: "Anchor-4" 702 0 basechar 0
AnchorPoint: "Anchor-0" 984 1062 basechar 0
LayerCount: 2
Fore
SplineSet
916 1062 m 1,0,-1
 1100 1062 l 1,1,-1
 902 314 l 2,2,3
 895 287 895 287 890.5 265.5 c 128,-1,4
 886 244 886 244 886 226 c 0,5,6
 886 176 886 176 913 155 c 128,-1,7
 940 134 940 134 986 134 c 0,8,9
 1046 134 1046 134 1105 166.5 c 128,-1,10
 1164 199 1164 199 1216.5 255.5 c 128,-1,11
 1269 312 1269 312 1310 384 c 128,-1,12
 1351 456 1351 456 1374.5 535.5 c 128,-1,13
 1398 615 1398 615 1398 693 c 0,14,15
 1398 750 1398 750 1375.5 785.5 c 128,-1,16
 1353 821 1353 821 1323.5 843.5 c 128,-1,17
 1294 866 1294 866 1271 884 c 128,-1,18
 1248 902 1248 902 1248 923 c 0,19,20
 1248 998 1248 998 1294 1041 c 128,-1,21
 1340 1084 1340 1084 1400 1084 c 0,22,23
 1446 1084 1446 1084 1479.5 1060.5 c 128,-1,24
 1513 1037 1513 1037 1531.5 989 c 128,-1,25
 1550 941 1550 941 1550 868 c 0,26,27
 1550 728 1550 728 1518 596 c 128,-1,28
 1486 464 1486 464 1427.5 352.5 c 128,-1,29
 1369 241 1369 241 1293 156 c 128,-1,30
 1217 71 1217 71 1130.5 24 c 128,-1,31
 1044 -23 1044 -23 954 -23 c 0,32,33
 865 -23 865 -23 816.5 17.5 c 128,-1,34
 768 58 768 58 768 149 c 0,35,36
 768 179 768 179 774 216.5 c 128,-1,37
 780 254 780 254 791 296 c 2,38,-1
 840 462 l 1,39,-1
 821 462 l 1,40,41
 769 326 769 326 715 232.5 c 128,-1,42
 661 139 661 139 605 83 c 128,-1,43
 549 27 549 27 490.5 2 c 128,-1,44
 432 -23 432 -23 371 -23 c 0,45,46
 273 -23 273 -23 218 32 c 128,-1,47
 163 87 163 87 163 186 c 0,48,49
 163 253 163 253 190 335 c 2,50,-1
 367 900 l 1,51,52
 363 900 363 900 361.5 900 c 128,-1,53
 360 900 360 900 356 900 c 0,54,55
 300 900 300 900 253 885 c 128,-1,56
 206 870 206 870 166 835.5 c 128,-1,57
 126 801 126 801 88 740 c 1,58,-1
 68 748 l 1,59,60
 96 847 96 847 133 912 c 128,-1,61
 170 977 170 977 219.5 1015 c 128,-1,62
 269 1053 269 1053 332.5 1068.5 c 128,-1,63
 396 1084 396 1084 477 1084 c 0,64,65
 499 1084 499 1084 520 1083 c 128,-1,66
 541 1082 541 1082 561.5 1080.5 c 128,-1,67
 582 1079 582 1079 604 1075 c 1,68,-1
 365 307 l 2,69,70
 357 280 357 280 353 257.5 c 128,-1,71
 349 235 349 235 349 217 c 0,72,73
 349 173 349 173 373.5 153.5 c 128,-1,74
 398 134 398 134 446 134 c 0,75,76
 505 134 505 134 567.5 180 c 128,-1,77
 630 226 630 226 688.5 326 c 128,-1,78
 747 426 747 426 789 589 c 2,79,-1
 916 1062 l 1,0,-1
EndSplineSet
EndChar

StartChar: x
Encoding: 120 120 91
Width: 1170
GlyphClass: 2
Flags: MW
AnchorPoint: "Anchor-4" 436 0 basechar 0
AnchorPoint: "Anchor-0" 725 1062 basechar 0
LayerCount: 2
Fore
SplineSet
1101 283 m 1,0,1
 1008 161 1008 161 936.5 94.5 c 128,-1,2
 865 28 865 28 811 2.5 c 128,-1,3
 757 -23 757 -23 715 -23 c 0,4,5
 682 -23 682 -23 661 -11 c 128,-1,6
 640 1 640 1 626 28.5 c 128,-1,7
 612 56 612 56 599 105 c 2,8,-1
 529 401 l 1,9,-1
 374 187 l 2,10,11
 316 108 316 108 269.5 62 c 128,-1,12
 223 16 223 16 180 -3.5 c 128,-1,13
 137 -23 137 -23 89 -23 c 0,14,15
 18 -23 18 -23 -19 16.5 c 128,-1,16
 -56 56 -56 56 -56 113 c 0,17,18
 -56 165 -56 165 -33 203.5 c 128,-1,19
 -10 242 -10 242 19.5 263 c 128,-1,20
 49 284 49 284 68 284 c 0,21,22
 76 284 76 284 91 269.5 c 128,-1,23
 106 255 106 255 124 234 c 0,24,25
 142 215 142 215 157.5 201 c 128,-1,26
 173 187 173 187 182 187 c 0,27,28
 201 187 201 187 229.5 204 c 128,-1,29
 258 221 258 221 298.5 262 c 128,-1,30
 339 303 339 303 391 375 c 2,31,-1
 501 521 l 1,32,-1
 418 869 l 2,33,34
 413 892 413 892 409 899.5 c 128,-1,35
 405 907 405 907 396 907 c 0,36,37
 366 907 366 907 304.5 849 c 128,-1,38
 243 791 243 791 176 679 c 1,39,-1
 111 724 l 1,40,41
 176 858 176 858 237.5 937 c 128,-1,42
 299 1016 299 1016 356 1050 c 128,-1,43
 413 1084 413 1084 464 1084 c 0,44,45
 498 1084 498 1084 520 1072.5 c 128,-1,46
 542 1061 542 1061 556 1032.5 c 128,-1,47
 570 1004 570 1004 581 957 c 2,48,-1
 647 679 l 1,49,-1
 783 875 l 2,50,51
 841 956 841 956 888 1001.5 c 128,-1,52
 935 1047 935 1047 978 1065.5 c 128,-1,53
 1021 1084 1021 1084 1069 1084 c 0,54,55
 1140 1084 1140 1084 1176.5 1044.5 c 128,-1,56
 1213 1005 1213 1005 1213 948 c 0,57,58
 1213 897 1213 897 1190.5 859 c 128,-1,59
 1168 821 1168 821 1138.5 799.5 c 128,-1,60
 1109 778 1109 778 1089 778 c 0,61,62
 1082 778 1082 778 1066.5 792.5 c 128,-1,63
 1051 807 1051 807 1034 827 c 0,64,65
 1016 848 1016 848 999.5 861.5 c 128,-1,66
 983 875 983 875 976 875 c 0,67,68
 956 875 956 875 925 856.5 c 128,-1,69
 894 838 894 838 854 797 c 128,-1,70
 814 756 814 756 765 687 c 2,71,-1
 675 562 l 1,72,-1
 760 203 l 2,73,74
 770 167 770 167 774.5 157.5 c 128,-1,75
 779 148 779 148 789 148 c 0,76,77
 808 148 808 148 845.5 166 c 128,-1,78
 883 184 883 184 935 225 c 128,-1,79
 987 266 987 266 1051 335 c 1,80,-1
 1101 283 l 1,0,1
EndSplineSet
EndChar

StartChar: y
Encoding: 121 121 92
Width: 1138
GlyphClass: 2
Flags: MW
AnchorPoint: "Anchor-4" 838 -146 basechar 0
AnchorPoint: "Anchor-0" 665 1062 basechar 0
LayerCount: 2
Fore
SplineSet
119 599 m 1,0,-1
 43 633 l 1,1,2
 93 776 93 776 141 865 c 128,-1,3
 189 954 189 954 232.5 1002 c 128,-1,4
 276 1050 276 1050 316 1067 c 128,-1,5
 356 1084 356 1084 390 1084 c 0,6,7
 416 1084 416 1084 434 1071 c 128,-1,8
 452 1058 452 1058 468 1027 c 128,-1,9
 484 996 484 996 502 939 c 0,10,11
 522 882 522 882 552 755.5 c 128,-1,12
 582 629 582 629 619 430 c 0,13,14
 647 278 647 278 675 81 c 1,15,16
 706 138 706 138 734 199 c 0,17,18
 784 310 784 310 823.5 440 c 128,-1,19
 863 570 863 570 888 724.5 c 128,-1,20
 913 879 913 879 921 1064 c 1,21,22
 958 1075 958 1075 987 1078.5 c 128,-1,23
 1016 1082 1016 1082 1048 1082 c 0,24,25
 1085 1081 1085 1081 1106 1066.5 c 128,-1,26
 1127 1052 1127 1052 1122 1022 c 0,27,28
 1110 929 1110 929 1089 836 c 128,-1,29
 1068 743 1068 743 1037.5 649 c 128,-1,30
 1007 555 1007 555 967 458 c 128,-1,31
 927 361 927 361 877.5 260 c 128,-1,32
 828 159 828 159 769 52 c 0,33,34
 666 -128 666 -128 553.5 -255.5 c 128,-1,35
 441 -383 441 -383 328.5 -451 c 128,-1,36
 216 -519 216 -519 112 -519 c 0,37,38
 27 -519 27 -519 -8.5 -474 c 128,-1,39
 -44 -429 -44 -429 -44 -365 c 0,40,41
 -44 -306 -44 -306 -10 -268.5 c 128,-1,42
 24 -231 24 -231 64 -231 c 0,43,44
 70 -231 70 -231 87 -247.5 c 128,-1,45
 104 -264 104 -264 129 -288 c 0,46,47
 154 -313 154 -313 177 -331 c 128,-1,48
 200 -349 200 -349 216 -349 c 0,49,50
 258 -349 258 -349 315 -317.5 c 128,-1,51
 372 -286 372 -286 440 -220 c 0,52,53
 481 -181 481 -181 522 -127 c 1,54,55
 501 18 501 18 482 136 c 0,56,57
 458 281 458 281 437.5 389.5 c 128,-1,58
 417 498 417 498 400 576 c 128,-1,59
 383 654 383 654 370 707 c 0,60,61
 353 777 353 777 342.5 812.5 c 128,-1,62
 332 848 332 848 325 859 c 128,-1,63
 318 870 318 870 308 870 c 0,64,65
 294 870 294 870 265 842.5 c 128,-1,66
 236 815 236 815 198.5 755.5 c 128,-1,67
 161 696 161 696 119 599 c 1,0,-1
EndSplineSet
EndChar

StartChar: z
Encoding: 122 122 93
Width: 1026
GlyphClass: 2
Flags: MW
AnchorPoint: "Anchor-4" 399 0 basechar 0
AnchorPoint: "Anchor-0" 621 1062 basechar 0
LayerCount: 2
Fore
SplineSet
178 692 m 1,0,-1
 103 733 l 1,1,2
 170 868 170 868 228 944 c 128,-1,3
 286 1020 286 1020 339 1051 c 128,-1,4
 392 1082 392 1082 443 1080.5 c 128,-1,5
 494 1079 494 1079 548 1057 c 2,6,-1
 824 950 l 1,7,-1
 955 1094 l 1,8,-1
 1026 1011 l 1,9,-1
 395 315 l 1,10,-1
 564 218 l 2,11,12
 617 187 617 187 652.5 175.5 c 128,-1,13
 688 164 688 164 720.5 175.5 c 128,-1,14
 753 187 753 187 797 226.5 c 128,-1,15
 841 266 841 266 910 339 c 1,16,-1
 960 283 l 1,17,18
 870 161 870 161 804 92.5 c 128,-1,19
 738 24 738 24 686.5 -2 c 128,-1,20
 635 -28 635 -28 589.5 -21.5 c 128,-1,21
 544 -15 544 -15 496 11 c 2,22,-1
 245 149 l 1,23,-1
 86 -27 l 1,24,-1
 12 52 l 1,25,-1
 670 779 l 1,26,-1
 498 847 l 2,27,28
 441 870 441 870 403.5 879.5 c 128,-1,29
 366 889 366 889 335.5 875.5 c 128,-1,30
 305 862 305 862 269.5 818.5 c 128,-1,31
 234 775 234 775 178 692 c 1,0,-1
EndSplineSet
EndChar

StartChar: braceleft
Encoding: 123 123 94
Width: 678
GlyphClass: 1
Flags: MW
LayerCount: 2
Fore
SplineSet
77 556 m 1,0,-1
 108 662 l 1,1,-1
 178 663 l 2,2,3
 224 665 224 665 256 679.5 c 128,-1,4
 288 694 288 694 310 725.5 c 128,-1,5
 332 757 332 757 347 807 c 0,6,7
 364 871 364 871 369 935 c 128,-1,8
 374 999 374 999 380 1063.5 c 128,-1,9
 386 1128 386 1128 404 1192 c 0,10,11
 432 1293 432 1293 519.5 1370 c 128,-1,12
 607 1447 607 1447 757 1460 c 2,13,-1
 877 1469 l 1,14,-1
 860 1363 l 1,15,-1
 780 1353 l 2,16,17
 693 1343 693 1343 649.5 1299.5 c 128,-1,18
 606 1256 606 1256 585 1182 c 0,19,20
 571 1130 571 1130 562.5 1071 c 128,-1,21
 554 1012 554 1012 545 950 c 128,-1,22
 536 888 536 888 518 826 c 0,23,24
 491 734 491 734 422 669 c 0,25,26
 377 626 377 626 308 604 c 1,27,28
 322 597 322 597 333 590 c 0,29,30
 367 566 367 566 381.5 533.5 c 128,-1,31
 396 501 396 501 396 460 c 0,32,33
 396 418 396 418 377.5 353 c 128,-1,34
 359 288 359 288 334.5 215.5 c 128,-1,35
 310 143 310 143 291 77 c 128,-1,36
 272 11 272 11 272 -33 c 0,37,38
 272 -79 272 -79 294 -105 c 128,-1,39
 316 -131 316 -131 365 -139 c 2,40,-1
 425 -149 l 1,41,-1
 388 -252 l 1,42,-1
 313 -243 l 2,43,44
 211 -231 211 -231 157.5 -169 c 128,-1,45
 104 -107 104 -107 104 -26 c 0,46,47
 104 28 104 28 125 95 c 128,-1,48
 146 162 146 162 175 231.5 c 128,-1,49
 204 301 204 301 226 363.5 c 128,-1,50
 248 426 248 426 248 472 c 0,51,52
 248 513 248 513 223.5 533 c 128,-1,53
 199 553 199 553 147 554 c 2,54,-1
 77 556 l 1,0,-1
EndSplineSet
Substitution2: "'case' Case-Sensitive Forms in Latin lookup 9 subtable" braceleft.case
EndChar

StartChar: bar
Encoding: 124 124 95
Width: 532
GlyphClass: 1
Flags: MW
LayerCount: 2
Fore
SplineSet
-74 -481 m 1,0,-1
 490 1519 l 1,1,-1
 621 1519 l 1,2,-1
 57 -481 l 1,3,-1
 -74 -481 l 1,0,-1
EndSplineSet
EndChar

StartChar: braceright
Encoding: 125 125 96
Width: 678
GlyphClass: 1
Flags: MW
LayerCount: 2
Fore
SplineSet
668 662 m 1,0,-1
 636 555 l 1,1,-1
 567 554 l 2,2,3
 521 553 521 553 489 538 c 128,-1,4
 457 523 457 523 435 492 c 128,-1,5
 413 461 413 461 398 410 c 0,6,7
 381 347 381 347 375.5 283 c 128,-1,8
 370 219 370 219 364.5 154.5 c 128,-1,9
 359 90 359 90 340 25 c 0,10,11
 312 -75 312 -75 225.5 -152 c 128,-1,12
 139 -229 139 -229 -12 -242 c 2,13,-1
 -132 -252 l 1,14,-1
 -115 -146 l 1,15,-1
 -36 -136 l 2,16,17
 52 -126 52 -126 95.5 -81.5 c 128,-1,18
 139 -37 139 -37 159 35 c 0,19,20
 175 88 175 88 183 147 c 128,-1,21
 191 206 191 206 200.5 268 c 128,-1,22
 210 330 210 330 227 391 c 0,23,24
 254 484 254 484 322 549 c 0,25,26
 367 592 367 592 436 614 c 1,27,28
 423 620 423 620 412 628 c 0,29,30
 378 651 378 651 363.5 683.5 c 128,-1,31
 349 716 349 716 349 757 c 0,32,33
 349 799 349 799 367.5 864 c 128,-1,34
 386 929 386 929 410.5 1001.5 c 128,-1,35
 435 1074 435 1074 454 1140 c 128,-1,36
 473 1206 473 1206 473 1251 c 0,37,38
 473 1297 473 1297 450.5 1322.5 c 128,-1,39
 428 1348 428 1348 380 1356 c 2,40,-1
 320 1366 l 1,41,-1
 357 1469 l 1,42,-1
 432 1460 l 2,43,44
 534 1449 534 1449 587.5 1387 c 128,-1,45
 641 1325 641 1325 641 1244 c 0,46,47
 641 1189 641 1189 619.5 1122.5 c 128,-1,48
 598 1056 598 1056 569.5 986.5 c 128,-1,49
 541 917 541 917 519 854 c 128,-1,50
 497 791 497 791 497 746 c 0,51,52
 497 705 497 705 521.5 685 c 128,-1,53
 546 665 546 665 598 663 c 2,54,-1
 668 662 l 1,0,-1
EndSplineSet
Substitution2: "'case' Case-Sensitive Forms in Latin lookup 9 subtable" braceright.case
EndChar

StartChar: asciitilde
Encoding: 126 126 97
Width: 1092
GlyphClass: 1
Flags: MW
LayerCount: 2
Fore
SplineSet
972 629 m 1,0,1
 942 522 942 522 900.5 461.5 c 128,-1,2
 859 401 859 401 809 377 c 128,-1,3
 759 353 759 353 701 353 c 0,4,5
 647 353 647 353 606.5 376.5 c 128,-1,6
 566 400 566 400 533 431 c 128,-1,7
 500 462 500 462 466 486 c 128,-1,8
 432 510 432 510 390 510 c 0,9,10
 338 510 338 510 302 475.5 c 128,-1,11
 266 441 266 441 239 362 c 1,12,-1
 122 362 l 1,13,14
 152 469 152 469 193 529 c 128,-1,15
 234 589 234 589 284 613.5 c 128,-1,16
 334 638 334 638 391 638 c 0,17,18
 446 638 446 638 486 614 c 128,-1,19
 526 590 526 590 559.5 559.5 c 128,-1,20
 593 529 593 529 626.5 505 c 128,-1,21
 660 481 660 481 703 481 c 0,22,23
 756 481 756 481 791 515.5 c 128,-1,24
 826 550 826 550 854 629 c 1,25,-1
 972 629 l 1,0,1
EndSplineSet
EndChar

StartChar: exclamdown
Encoding: 161 161 99
Width: 555
GlyphClass: 1
Flags: MW
LayerCount: 2
Fore
SplineSet
351 715 m 0,0,1
 298 715 298 715 268.5 743 c 128,-1,2
 239 771 239 771 239 820 c 0,3,4
 239 868 239 868 259 908.5 c 128,-1,5
 279 949 279 949 319 974 c 128,-1,6
 359 999 359 999 415 999 c 0,7,8
 469 999 469 999 498 971 c 128,-1,9
 527 943 527 943 527 893 c 0,10,11
 527 845 527 845 506.5 804.5 c 128,-1,12
 486 764 486 764 447.5 739.5 c 128,-1,13
 409 715 409 715 351 715 c 0,0,1
-87 -381 m 2,14,-1
 -59 -288 l 2,15,16
 -53 -272 -53 -272 -33.5 -217.5 c 128,-1,17
 -14 -163 -14 -163 14 -84.5 c 128,-1,18
 42 -6 42 -6 74.5 83.5 c 128,-1,19
 107 173 107 173 139 261 c 128,-1,20
 171 349 171 349 198 422 c 128,-1,21
 225 495 225 495 241 540 c 1,22,-1
 347 540 l 1,23,24
 337 495 337 495 321.5 422 c 128,-1,25
 306 349 306 349 286.5 261 c 128,-1,26
 267 173 267 173 247.5 83.5 c 128,-1,27
 228 -6 228 -6 211 -84.5 c 128,-1,28
 194 -163 194 -163 182 -217.5 c 128,-1,29
 170 -272 170 -272 165 -288 c 2,30,-1
 140 -381 l 2,31,32
 135 -399 135 -399 122.5 -410.5 c 128,-1,33
 110 -422 110 -422 84.5 -427.5 c 128,-1,34
 59 -433 59 -433 14 -433 c 128,-1,35
 -31 -433 -31 -433 -55 -427.5 c 128,-1,36
 -79 -422 -79 -422 -85.5 -410 c 128,-1,37
 -92 -398 -92 -398 -87 -381 c 2,14,-1
EndSplineSet
Substitution2: "'case' Case-Sensitive Forms in Latin lookup 9 subtable" exclamdown.case
EndChar

StartChar: currency
Encoding: 164 164 102
Width: 980
GlyphClass: 1
Flags: MW
LayerCount: 2
Fore
SplineSet
456 284 m 0,0,1
 529 284 529 284 582 318.5 c 128,-1,2
 635 353 635 353 663.5 410.5 c 128,-1,3
 692 468 692 468 692 537 c 0,4,5
 692 615 692 615 646 661 c 128,-1,6
 600 707 600 707 522 707 c 0,7,8
 449 707 449 707 396.5 672.5 c 128,-1,9
 344 638 344 638 315.5 580.5 c 128,-1,10
 287 523 287 523 287 454 c 0,11,12
 287 377 287 377 332.5 330.5 c 128,-1,13
 378 284 378 284 456 284 c 0,0,1
539 813 m 0,14,15
 620 813 620 813 679 780 c 0,16,17
 702 767 702 767 721 750 c 1,18,-1
 833 842 l 1,19,-1
 896 744 l 1,20,-1
 786 654 l 1,21,22
 803 609 803 609 803 554 c 0,23,24
 803 452 803 452 758 366 c 0,25,26
 736 322 736 322 703 287 c 1,27,-1
 766 187 l 1,28,-1
 666 115 l 1,29,-1
 604 213 l 1,30,31
 532 178 532 178 440 178 c 0,32,33
 359 178 359 178 300 211 c 0,34,35
 276 224 276 224 257 241 c 1,36,-1
 145 149 l 1,37,-1
 83 248 l 1,38,-1
 193 337 l 1,39,40
 176 383 176 383 176 438 c 0,41,42
 176 540 176 540 220 626 c 0,43,44
 243 670 243 670 276 705 c 1,45,-1
 213 805 l 1,46,-1
 313 876 l 1,47,-1
 375 778 l 1,48,49
 447 813 447 813 539 813 c 0,14,15
EndSplineSet
EndChar

StartChar: brokenbar
Encoding: 166 166 104
Width: 532
GlyphClass: 1
Flags: MW
LayerCount: 2
Fore
SplineSet
-74 -481 m 1,0,-1
 148 306 l 1,1,-1
 280 306 l 1,2,-1
 57 -481 l 1,3,-1
 -74 -481 l 1,0,-1
401 735 m 1,4,-1
 269 735 l 1,5,-1
 490 1519 l 1,6,-1
 622 1519 l 1,7,-1
 401 735 l 1,4,-1
EndSplineSet
EndChar

StartChar: section
Encoding: 167 167 105
Width: 1121
GlyphClass: 1
Flags: MW
LayerCount: 2
Fore
SplineSet
878 581 m 128,-1,1
 878 644 878 644 840.5 680 c 128,-1,2
 803 716 803 716 743.5 738 c 128,-1,3
 684 760 684 760 618 780 c 0,4,5
 586 789 586 789 555 801 c 1,6,7
 482 794 482 794 430 774 c 0,8,9
 360 746 360 746 327 699.5 c 128,-1,10
 294 653 294 653 294 592 c 0,11,12
 294 528 294 528 332 491.5 c 128,-1,13
 370 455 370 455 429 433 c 128,-1,14
 488 411 488 411 554 391 c 0,15,16
 586 381 586 381 617 369 c 1,17,18
 688 377 688 377 740 396 c 0,19,20
 810 424 810 424 844 471 c 128,-1,0
 878 518 878 518 878 581 c 128,-1,1
464 846 m 1,21,22
 423 873 423 873 396 913 c 0,23,24
 358 966 358 966 358 1056 c 0,25,26
 358 1156 358 1156 412 1237.5 c 128,-1,27
 466 1319 466 1319 575.5 1368 c 128,-1,28
 685 1417 685 1417 854 1417 c 0,29,30
 983 1417 983 1417 1049 1393 c 128,-1,31
 1115 1369 1115 1369 1139 1332.5 c 128,-1,32
 1163 1296 1163 1296 1163 1258 c 0,33,34
 1162 1201 1162 1201 1127 1168.5 c 128,-1,35
 1092 1136 1092 1136 1045 1136 c 0,36,37
 1029 1136 1029 1136 1009.5 1159.5 c 128,-1,38
 990 1183 990 1183 962 1214 c 128,-1,39
 934 1245 934 1245 892 1268 c 0,40,41
 850 1292 850 1292 788 1292 c 0,42,43
 701 1292 701 1292 647 1267 c 128,-1,44
 593 1242 593 1242 567.5 1202.5 c 128,-1,45
 542 1163 542 1163 542 1117 c 0,46,47
 542 1059 542 1059 580 1024.5 c 128,-1,48
 618 990 618 990 677.5 968 c 128,-1,49
 737 946 737 946 803.5 925 c 128,-1,50
 870 904 870 904 929.5 873 c 128,-1,51
 989 842 989 842 1026.5 789 c 128,-1,52
 1064 736 1064 736 1064 649 c 0,53,54
 1064 499 1064 499 952 411 c 0,55,56
 864 341 864 341 710 323 c 1,57,58
 749 296 749 296 777 258 c 0,59,60
 815 204 815 204 815 114 c 0,61,62
 815 12 815 12 760.5 -70.5 c 128,-1,63
 706 -153 706 -153 596 -202.5 c 128,-1,64
 486 -252 486 -252 320 -252 c 0,65,66
 194 -252 194 -252 127 -229.5 c 128,-1,67
 60 -207 60 -207 35 -171 c 128,-1,68
 10 -135 10 -135 10 -95 c 0,69,70
 11 -37 11 -37 45.5 -4.5 c 128,-1,71
 80 28 80 28 124 28 c 0,72,73
 140 28 140 28 159.5 4.5 c 128,-1,74
 179 -19 179 -19 208 -50 c 128,-1,75
 237 -81 237 -81 280 -104.5 c 128,-1,76
 323 -128 323 -128 388 -128 c 0,77,78
 474 -128 474 -128 527 -102.5 c 128,-1,79
 580 -77 580 -77 604.5 -36.5 c 128,-1,80
 629 4 629 4 629 49 c 0,81,82
 629 108 629 108 591.5 142 c 128,-1,83
 554 176 554 176 494.5 198 c 128,-1,84
 435 220 435 220 369 241 c 128,-1,85
 303 262 303 262 243.5 293.5 c 128,-1,86
 184 325 184 325 146.5 378.5 c 128,-1,87
 109 432 109 432 109 519 c 0,88,89
 109 668 109 668 220 756 c 0,90,91
 308 827 308 827 464 846 c 1,21,22
EndSplineSet
EndChar

StartChar: copyright
Encoding: 169 169 107
Width: 1653
GlyphClass: 1
Flags: MW
LayerCount: 2
Fore
SplineSet
964 1417 m 0,0,1
 1167 1417 1167 1417 1308.5 1349 c 128,-1,2
 1450 1281 1450 1281 1523 1154.5 c 128,-1,3
 1596 1028 1596 1028 1596 850 c 0,4,5
 1596 683 1596 683 1544 526.5 c 128,-1,6
 1492 370 1492 370 1391.5 246.5 c 128,-1,7
 1291 123 1291 123 1144.5 51 c 128,-1,8
 998 -21 998 -21 806 -21 c 0,9,10
 604 -21 604 -21 463 46.5 c 128,-1,11
 322 114 322 114 248.5 241 c 128,-1,12
 175 368 175 368 175 545 c 0,13,14
 175 714 175 714 226 869.5 c 128,-1,15
 277 1025 277 1025 378 1148.5 c 128,-1,16
 479 1272 479 1272 626 1344.5 c 128,-1,17
 773 1417 773 1417 964 1417 c 0,0,1
815 86 m 0,18,19
 978 86 978 86 1102.5 149.5 c 128,-1,20
 1227 213 1227 213 1311.5 320.5 c 128,-1,21
 1396 428 1396 428 1438.5 561 c 128,-1,22
 1481 694 1481 694 1481 835 c 0,23,24
 1481 986 1481 986 1420 1092 c 128,-1,25
 1359 1198 1359 1198 1242 1253.5 c 128,-1,26
 1125 1309 1125 1309 955 1309 c 0,27,28
 793 1309 793 1309 668 1245.5 c 128,-1,29
 543 1182 543 1182 459 1075 c 128,-1,30
 375 968 375 968 332.5 834.5 c 128,-1,31
 290 701 290 701 290 561 c 0,32,33
 290 410 290 410 350.5 304 c 128,-1,34
 411 198 411 198 528.5 142 c 128,-1,35
 646 86 646 86 815 86 c 0,18,19
897 396 m 0,36,37
 936 396 936 396 976 404 c 0,38,39
 989 407 989 407 1002 410 c 1,40,-1
 1100 561 l 1,41,-1
 1168 561 l 1,42,-1
 1082 338 l 1,43,44
 1024 319 1024 319 972 308 c 128,-1,45
 920 297 920 297 854 297 c 0,46,47
 734 297 734 297 651 334 c 128,-1,48
 568 371 568 371 525 443 c 128,-1,49
 482 515 482 515 482 619 c 128,-1,50
 482 723 482 723 517 812.5 c 128,-1,51
 552 902 552 902 619.5 968 c 128,-1,52
 687 1034 687 1034 784.5 1071.5 c 128,-1,53
 882 1109 882 1109 1006 1109 c 0,54,55
 1065 1109 1065 1109 1120 1100 c 0,56,57
 1153 1094 1153 1094 1183 1085 c 1,58,-1
 1229 1128 l 1,59,-1
 1280 1128 l 1,60,-1
 1204 829 l 1,61,-1
 1136 828 l 1,62,-1
 1134 975 l 1,63,64
 1113 986 1113 986 1090 992 c 0,65,66
 1046 1005 1046 1005 985 1005 c 0,67,68
 901 1005 901 1005 839 976 c 128,-1,69
 777 947 777 947 735 894.5 c 128,-1,70
 693 842 693 842 672 772.5 c 128,-1,71
 651 703 651 703 651 622 c 0,72,73
 651 514 651 514 713.5 455 c 128,-1,74
 776 396 776 396 897 396 c 0,36,37
EndSplineSet
EndChar

StartChar: ordfeminine
Encoding: 170 170 108
Width: 990
GlyphClass: 1
Flags: MW
LayerCount: 2
Fore
SplineSet
683 897 m 2,0,-1
 751 1104 l 1,1,-1
 750 1104 l 1,2,3
 681 982 681 982 624.5 916 c 128,-1,4
 568 850 568 850 518.5 825.5 c 128,-1,5
 469 801 469 801 421 801 c 0,6,7
 348 801 348 801 302.5 845.5 c 128,-1,8
 257 890 257 890 257 976 c 0,9,10
 257 1060 257 1060 291.5 1155 c 128,-1,11
 326 1250 326 1250 385 1333 c 128,-1,12
 444 1416 444 1416 519.5 1468.5 c 128,-1,13
 595 1521 595 1521 678 1521 c 0,14,15
 742 1521 742 1521 780 1481 c 0,16,17
 804 1456 804 1456 822 1418 c 1,18,-1
 894 1508 l 1,19,-1
 1025 1508 l 1,20,-1
 843 915 l 1,21,22
 859 916 859 916 874 920 c 0,23,24
 924 930 924 930 998 970 c 1,25,-1
 1016 922 l 1,26,27
 952 871 952 871 904 845.5 c 128,-1,28
 856 820 856 820 818 810 c 128,-1,29
 780 800 780 800 745 800 c 0,30,31
 700 800 700 800 683 821 c 128,-1,32
 666 842 666 842 683 897 c 2,0,-1
185 530 m 1,33,-1
 225 671 l 1,34,-1
 864 671 l 1,35,-1
 825 530 l 1,36,-1
 185 530 l 1,33,-1
804 1363 m 1,37,38
 790 1388 790 1388 772 1402 c 0,39,40
 746 1423 746 1423 710 1423 c 0,41,42
 669 1423 669 1423 628.5 1394 c 128,-1,43
 588 1365 588 1365 553 1317.5 c 128,-1,44
 518 1270 518 1270 491.5 1214 c 128,-1,45
 465 1158 465 1158 449.5 1103 c 128,-1,46
 434 1048 434 1048 434 1004 c 0,47,48
 434 963 434 963 450.5 943.5 c 128,-1,49
 467 924 467 924 504 924 c 0,50,51
 537 924 537 924 574.5 951 c 128,-1,52
 612 978 612 978 648.5 1024 c 128,-1,53
 685 1070 685 1070 716.5 1128 c 128,-1,54
 748 1186 748 1186 768 1247 c 2,55,-1
 804 1363 l 1,37,38
EndSplineSet
EndChar

StartChar: guillemotleft
Encoding: 171 171 109
Width: 1059
GlyphClass: 1
Flags: MW
LayerCount: 2
Fore
SplineSet
705 478 m 1,0,-1
 854 100 l 1,1,-1
 757 46 l 1,2,-1
 486 435 l 1,3,-1
 523 564 l 1,4,-1
 1008 953 l 1,5,-1
 1075 861 l 1,6,-1
 705 478 l 1,0,-1
286 477 m 1,7,-1
 434 100 l 1,8,-1
 337 46 l 2,9,10
 336 46 336 46 66 435 c 1,11,-1
 104 564 l 1,12,-1
 588 953 l 1,13,-1
 656 861 l 1,14,-1
 286 477 l 1,7,-1
EndSplineSet
Substitution2: "'case' Case-Sensitive Forms in Latin lookup 9 subtable" guillemotleft.case
EndChar

StartChar: logicalnot
Encoding: 172 172 110
Width: 1092
GlyphClass: 1
Flags: MW
LayerCount: 2
Fore
SplineSet
220 747 m 1,0,-1
 998 747 l 1,1,-1
 850 237 l 1,2,-1
 732 237 l 1,3,-1
 844 620 l 1,4,-1
 184 620 l 1,5,-1
 220 747 l 1,0,-1
EndSplineSet
EndChar

StartChar: registered
Encoding: 174 174 112
Width: 1119
GlyphClass: 1
Flags: MW
LayerCount: 2
Fore
SplineSet
741 1417 m 0,0,1
 939 1417 939 1417 1040 1324 c 128,-1,2
 1141 1231 1141 1231 1141 1068 c 0,3,4
 1141 934 1141 934 1086.5 816 c 128,-1,5
 1032 698 1032 698 923 625.5 c 128,-1,6
 814 553 814 553 655 553 c 0,7,8
 457 553 457 553 356 645 c 128,-1,9
 255 737 255 737 255 901 c 0,10,11
 255 1035 255 1035 310 1153 c 128,-1,12
 365 1271 365 1271 472.5 1344 c 128,-1,13
 580 1417 580 1417 741 1417 c 0,0,1
665 635 m 0,14,15
 802 635 802 635 887.5 697 c 128,-1,16
 973 759 973 759 1013 857.5 c 128,-1,17
 1053 956 1053 956 1053 1063 c 0,18,19
 1053 1147 1053 1147 1019 1208 c 128,-1,20
 985 1269 985 1269 914 1301.5 c 128,-1,21
 843 1334 843 1334 731 1334 c 0,22,23
 595 1334 595 1334 509 1272 c 128,-1,24
 423 1210 423 1210 383 1112 c 128,-1,25
 343 1014 343 1014 343 906 c 0,26,27
 343 822 343 822 376.5 761 c 128,-1,28
 410 700 410 700 481.5 667.5 c 128,-1,29
 553 635 553 635 665 635 c 0,14,15
890 826 m 1,30,-1
 876 781 l 1,31,32
 822 775 822 775 794 778 c 128,-1,33
 766 781 766 781 755.5 796.5 c 128,-1,34
 745 812 745 812 744 843 c 2,35,-1
 743 914 l 2,36,37
 742 946 742 946 735 955 c 128,-1,38
 728 964 728 964 698 964 c 2,39,-1
 640 964 l 1,40,-1
 601 829 l 1,41,-1
 644 816 l 1,42,-1
 634 781 l 1,43,-1
 425 781 l 1,44,-1
 434 816 l 1,45,-1
 491 829 l 1,46,-1
 588 1165 l 1,47,-1
 539 1177 l 1,48,-1
 550 1213 l 1,49,-1
 642 1213 l 1,50,-1
 712 1213 l 1,51,-1
 794 1213 l 2,52,53
 864 1213 864 1213 893.5 1189.5 c 128,-1,54
 923 1166 923 1166 923 1122 c 0,55,56
 923 1066 923 1066 888 1032 c 0,57,58
 857 1000 857 1000 791 992 c 1,59,60
 820 988 820 988 832 974 c 0,61,62
 846 957 846 957 847 920 c 2,63,-1
 851 868 l 2,64,65
 853 839 853 839 859.5 832.5 c 128,-1,66
 866 826 866 826 890 826 c 1,30,-1
693 1146 m 1,67,-1
 656 1019 l 1,68,-1
 724 1019 l 2,69,70
 768 1019 768 1019 789 1042 c 128,-1,71
 810 1065 810 1065 810 1106 c 0,72,73
 810 1127 810 1127 797.5 1136.5 c 128,-1,74
 785 1146 785 1146 751 1146 c 2,75,-1
 693 1146 l 1,67,-1
EndSplineSet
EndChar

StartChar: degree
Encoding: 176 176 114
Width: 753
GlyphClass: 1
Flags: MW
LayerCount: 2
Fore
SplineSet
526 911 m 0,0,1
 594 911 594 911 644 945 c 128,-1,2
 694 979 694 979 720.5 1034 c 128,-1,3
 747 1089 747 1089 747 1153 c 0,4,5
 747 1232 747 1232 701 1278 c 128,-1,6
 655 1324 655 1324 575 1324 c 0,7,8
 507 1324 507 1324 457.5 1290 c 128,-1,9
 408 1256 408 1256 381 1201.5 c 128,-1,10
 354 1147 354 1147 354 1082 c 0,11,12
 354 1003 354 1003 400 957 c 128,-1,13
 446 911 446 911 526 911 c 0,0,1
586 1413 m 0,14,15
 701 1413 701 1413 771 1344 c 128,-1,16
 841 1275 841 1275 841 1165 c 0,17,18
 841 1072 841 1072 800 994 c 128,-1,19
 759 916 759 916 686 869 c 128,-1,20
 613 822 613 822 516 822 c 0,21,22
 401 822 401 822 330.5 891.5 c 128,-1,23
 260 961 260 961 260 1070 c 0,24,25
 260 1163 260 1163 301 1241 c 128,-1,26
 342 1319 342 1319 415.5 1366 c 128,-1,27
 489 1413 489 1413 586 1413 c 0,14,15
EndSplineSet
EndChar

StartChar: plusminus
Encoding: 177 177 115
Width: 1092
GlyphClass: 1
Flags: MW
LayerCount: 2
Fore
SplineSet
55 127 m 1,0,-1
 825 127 l 1,1,-1
 788 0 l 1,2,-1
 17 0 l 1,3,-1
 55 127 l 1,0,-1
630 987 m 1,4,-1
 749 987 l 1,5,-1
 648 639 l 1,6,-1
 973 639 l 1,7,-1
 936 512 l 1,8,-1
 610 512 l 1,9,-1
 509 164 l 1,10,-1
 390 164 l 1,11,-1
 491 512 l 1,12,-1
 166 512 l 1,13,-1
 202 639 l 1,14,-1
 529 639 l 1,15,-1
 630 987 l 1,4,-1
EndSplineSet
EndChar

StartChar: uni00B2
Encoding: 178 178 116
Width: 730
GlyphClass: 1
Flags: MW
LayerCount: 2
Fore
SplineSet
383 797 m 1,0,-1
 622 797 l 1,1,-1
 716 899 l 1,2,-1
 786 899 l 1,3,-1
 655 612 l 1,4,-1
 610 612 l 1,5,-1
 585 645 l 1,6,-1
 163 645 l 1,7,-1
 189 732 l 1,8,-1
 424 926 l 2,9,10
 505 990 505 990 546 1033 c 128,-1,11
 587 1076 587 1076 601.5 1109 c 128,-1,12
 616 1142 616 1142 616 1176 c 0,13,14
 616 1222 616 1222 587 1249.5 c 128,-1,15
 558 1277 558 1277 504 1277 c 0,16,17
 439 1277 439 1277 397.5 1240 c 128,-1,18
 356 1203 356 1203 323 1122 c 1,19,-1
 253 1153 l 1,20,21
 284 1245 284 1245 327.5 1302.5 c 128,-1,22
 371 1360 371 1360 431.5 1386.5 c 128,-1,23
 492 1413 492 1413 572 1413 c 0,24,25
 671 1413 671 1413 730.5 1367 c 128,-1,26
 790 1321 790 1321 790 1236 c 0,27,28
 790 1196 790 1196 780 1159 c 128,-1,29
 770 1122 770 1122 743 1082.5 c 128,-1,30
 716 1043 716 1043 664 997 c 128,-1,31
 612 951 612 951 527 894 c 2,32,-1
 383 797 l 1,0,-1
EndSplineSet
EndChar

StartChar: uni00B3
Encoding: 179 179 117
Width: 690
GlyphClass: 1
Flags: MW
LayerCount: 2
Fore
SplineSet
394 980 m 1,0,-1
 404 1054 l 1,1,2
 488 1067 488 1067 532 1089 c 128,-1,3
 576 1111 576 1111 592.5 1141 c 128,-1,4
 609 1171 609 1171 609 1207 c 0,5,6
 609 1248 609 1248 583 1267 c 128,-1,7
 557 1286 557 1286 509 1286 c 0,8,9
 451 1286 451 1286 412 1258.5 c 128,-1,10
 373 1231 373 1231 343 1164 c 1,11,-1
 280 1196 l 1,12,13
 318 1294 318 1294 384 1352.5 c 128,-1,14
 450 1411 450 1411 578 1411 c 0,15,16
 672 1411 672 1411 718 1373 c 128,-1,17
 764 1335 764 1335 764 1266 c 0,18,19
 764 1218 764 1218 742 1178 c 128,-1,20
 720 1138 720 1138 674 1110 c 0,21,22
 636 1088 636 1088 581 1076 c 1,23,24
 651 1072 651 1072 689 1036 c 0,25,26
 733 993 733 993 733 923 c 0,27,28
 733 841 733 841 688.5 775 c 128,-1,29
 644 709 644 709 557.5 671 c 128,-1,30
 471 633 471 633 343 633 c 0,31,32
 231 633 231 633 190.5 664 c 128,-1,33
 150 695 150 695 150 731 c 0,34,35
 150 764 150 764 168 786.5 c 128,-1,36
 186 809 186 809 221 809 c 0,37,38
 231 809 231 809 242.5 796 c 128,-1,39
 254 783 254 783 271 765.5 c 128,-1,40
 288 748 288 748 314 735 c 128,-1,41
 340 722 340 722 379 722 c 0,42,43
 424 722 424 722 460 735.5 c 128,-1,44
 496 749 496 749 521.5 773 c 128,-1,45
 547 797 547 797 560.5 830.5 c 128,-1,46
 574 864 574 864 574 902 c 0,47,48
 574 952 574 952 544 974 c 128,-1,49
 514 996 514 996 436 986 c 2,50,-1
 394 980 l 1,0,-1
EndSplineSet
EndChar

StartChar: uni00B5
Encoding: 181 181 119
Width: 1312
GlyphClass: 1
Flags: MW
LayerCount: 2
Fore
SplineSet
824 656 m 2,0,-1
 960 1062 l 1,1,-1
 1160 1062 l 1,2,-1
 894 151 l 1,3,4
 914 153 914 153 936 157 c 0,5,6
 990 167 990 167 1052.5 197 c 128,-1,7
 1115 227 1115 227 1182 278 c 1,8,-1
 1224 208 l 1,9,10
 1082 70 1082 70 980 23.5 c 128,-1,11
 878 -23 878 -23 816 -23 c 0,12,13
 757 -23 757 -23 737 4 c 128,-1,14
 717 31 717 31 735 91 c 2,15,-1
 855 488 l 1,16,-1
 834 487 l 1,17,18
 751 322 751 322 687.5 220.5 c 128,-1,19
 624 119 624 119 571.5 66.5 c 128,-1,20
 519 14 519 14 467.5 -4.5 c 128,-1,21
 416 -23 416 -23 356 -23 c 0,22,23
 295 -23 295 -23 255 1.5 c 128,-1,24
 215 26 215 26 195 70 c 0,25,26
 192 77 192 77 189 84 c 1,27,-1
 123 -492 l 2,28,29
 122 -492 122 -492 -48 -510 c 1,30,-1
 -84 -510 l 1,31,-1
 372 1062 l 1,32,-1
 572 1062 l 1,33,-1
 360 337 l 2,34,35
 350 301 350 301 343.5 273.5 c 128,-1,36
 337 246 337 246 337 227 c 0,37,38
 337 191 337 191 359 169.5 c 128,-1,39
 381 148 381 148 428 148 c 0,40,41
 466 148 466 148 514 172.5 c 128,-1,42
 562 197 562 197 615 253.5 c 128,-1,43
 668 310 668 310 721 409 c 128,-1,44
 774 508 774 508 824 656 c 2,0,-1
EndSplineSet
EndChar

StartChar: paragraph
Encoding: 182 182 120
Width: 1225
GlyphClass: 1
Flags: MW
LayerCount: 2
Fore
SplineSet
753 -230 m 1,0,-1
 637 -230 l 1,1,-1
 1077 1281 l 1,2,-1
 919 1281 l 1,3,-1
 480 -230 l 1,4,-1
 364 -230 l 1,5,-1
 636 708 l 1,6,-1
 480 708 l 2,7,8
 344 708 344 708 277.5 764 c 128,-1,9
 211 820 211 820 211 938 c 0,10,11
 211 1023 211 1023 234 1104.5 c 128,-1,12
 257 1186 257 1186 308.5 1252 c 128,-1,13
 360 1318 360 1318 445 1357 c 128,-1,14
 530 1396 530 1396 653 1396 c 2,15,-1
 836 1396 l 1,16,-1
 907 1396 l 1,17,-1
 1110 1396 l 1,18,-1
 1156 1396 l 1,19,-1
 1397 1396 l 1,20,-1
 1375 1316 l 1,21,-1
 1192 1282 l 1,22,-1
 753 -230 l 1,0,-1
EndSplineSet
EndChar

StartChar: uni00B9
Encoding: 185 185 123
Width: 599
GlyphClass: 1
Flags: MW
LayerCount: 2
Fore
SplineSet
462 1232 m 1,0,-1
 276 1178 l 1,1,-1
 259 1258 l 1,2,-1
 569 1397 l 1,3,-1
 676 1397 l 1,4,-1
 485 738 l 1,5,-1
 604 707 l 1,6,-1
 586 645 l 1,7,-1
 169 645 l 1,8,-1
 186 707 l 1,9,-1
 318 738 l 1,10,-1
 462 1232 l 1,0,-1
EndSplineSet
EndChar

StartChar: ordmasculine
Encoding: 186 186 124
Width: 939
GlyphClass: 1
Flags: MW
LayerCount: 2
Fore
SplineSet
585 920 m 0,0,1
 642 920 642 920 687 951.5 c 128,-1,2
 732 983 732 983 763 1034.5 c 128,-1,3
 794 1086 794 1086 810.5 1149.5 c 128,-1,4
 827 1213 827 1213 827 1277 c 0,5,6
 827 1348 827 1348 798 1381 c 128,-1,7
 769 1414 769 1414 713 1414 c 128,-1,8
 657 1414 657 1414 612 1382 c 128,-1,9
 567 1350 567 1350 535.5 1297.5 c 128,-1,10
 504 1245 504 1245 487 1182.5 c 128,-1,11
 470 1120 470 1120 470 1055 c 0,12,13
 470 985 470 985 501 952.5 c 128,-1,14
 532 920 532 920 585 920 c 0,0,1
730 1529 m 0,15,16
 859 1529 859 1529 926 1464.5 c 128,-1,17
 993 1400 993 1400 993 1282 c 0,18,19
 993 1191 993 1191 965.5 1105.5 c 128,-1,20
 938 1020 938 1020 882.5 951.5 c 128,-1,21
 827 883 827 883 749 842.5 c 128,-1,22
 671 802 671 802 568 802 c 0,23,24
 439 802 439 802 372 867.5 c 128,-1,25
 305 933 305 933 305 1051 c 0,26,27
 305 1142 305 1142 333.5 1227 c 128,-1,28
 362 1312 362 1312 416 1380.5 c 128,-1,29
 470 1449 470 1449 549 1489 c 128,-1,30
 628 1529 628 1529 730 1529 c 0,15,16
144 530 m 1,31,-1
 184 671 l 1,32,-1
 824 671 l 1,33,-1
 785 530 l 1,34,-1
 144 530 l 1,31,-1
EndSplineSet
EndChar

StartChar: guillemotright
Encoding: 187 187 125
Width: 1088
GlyphClass: 1
Flags: MW
LayerCount: 2
Fore
SplineSet
786 522 m 1,0,-1
 637 899 l 1,1,-1
 734 953 l 1,2,-1
 1005 564 l 1,3,-1
 967 435 l 1,4,-1
 484 46 l 1,5,-1
 416 138 l 1,6,-1
 786 522 l 1,0,-1
366 522 m 1,7,-1
 218 899 l 1,8,-1
 314 953 l 1,9,-1
 585 564 l 1,10,-1
 548 435 l 1,11,-1
 64 46 l 1,12,-1
 -4 138 l 1,13,-1
 366 522 l 1,7,-1
EndSplineSet
Substitution2: "'case' Case-Sensitive Forms in Latin lookup 9 subtable" guillemotright.case
EndChar

StartChar: questiondown
Encoding: 191 191 129
Width: 1027
GlyphClass: 1
Flags: MW
LayerCount: 2
Fore
SplineSet
428 -434 m 0,0,1
 331 -434 331 -434 248 -405 c 128,-1,2
 165 -376 165 -376 103 -321.5 c 128,-1,3
 41 -267 41 -267 6.5 -192.5 c 128,-1,4
 -28 -118 -28 -118 -28 -29 c 0,5,6
 -28 97 -28 97 24 184.5 c 128,-1,7
 76 272 76 272 195 315 c 0,8,9
 296 351 296 351 454 349 c 1,10,-1
 526 547 l 1,11,-1
 632 547 l 1,12,-1
 564 184 l 1,13,14
 399 195 399 195 306 172.5 c 128,-1,15
 213 150 213 150 175 93 c 128,-1,16
 137 36 137 36 137 -55 c 0,17,18
 137 -125 137 -125 165.5 -183.5 c 128,-1,19
 194 -242 194 -242 249 -276.5 c 128,-1,20
 304 -311 304 -311 385 -311 c 0,21,22
 452 -311 452 -311 497 -292 c 128,-1,23
 542 -273 542 -273 571 -248 c 128,-1,24
 600 -223 600 -223 620.5 -203.5 c 128,-1,25
 641 -184 641 -184 659 -184 c 0,26,27
 702 -184 702 -184 728 -209.5 c 128,-1,28
 754 -235 754 -235 754 -275 c 0,29,30
 754 -318 754 -318 724 -354.5 c 128,-1,31
 694 -391 694 -391 623 -412.5 c 128,-1,32
 552 -434 552 -434 428 -434 c 0,0,1
618 716 m 0,33,34
 565 716 565 716 535.5 744 c 128,-1,35
 506 772 506 772 506 822 c 0,36,37
 506 870 506 870 526.5 910.5 c 128,-1,38
 547 951 547 951 586.5 975.5 c 128,-1,39
 626 1000 626 1000 683 1000 c 0,40,41
 736 1000 736 1000 765 972 c 128,-1,42
 794 944 794 944 794 895 c 0,43,44
 794 847 794 847 773.5 806 c 128,-1,45
 753 765 753 765 714.5 740.5 c 128,-1,46
 676 716 676 716 618 716 c 0,33,34
EndSplineSet
Substitution2: "'case' Case-Sensitive Forms in Latin lookup 9 subtable" questiondown.case
EndChar

StartChar: AE
Encoding: 198 198 136
Width: 2033
GlyphClass: 2
Flags: MW
AnchorPoint: "Anchor-4" 921 0 basechar 0
LayerCount: 2
Fore
SplineSet
1509 470 m 1,0,-1
 1547 660 l 1,1,-1
 1224 660 l 1,2,-1
 1073 139 l 1,3,-1
 1599 139 l 1,4,-1
 1842 419 l 1,5,-1
 1951 414 l 1,6,-1
 1710 -72 l 1,7,-1
 1617 -72 l 1,8,9
 1618 -72 1618 -72 1568 0 c 1,10,-1
 1033 0 l 1,11,-1
 914 0 l 1,12,-1
 661 0 l 1,13,-1
 687 85 l 1,14,-1
 860 132 l 1,15,-1
 963 488 l 1,16,-1
 526 488 l 1,17,-1
 222 131 l 1,18,-1
 370 85 l 1,19,-1
 346 0 l 1,20,-1
 -142 0 l 1,21,-1
 -116 85 l 1,22,-1
 45 131 l 1,23,-1
 1013 1262 l 1,24,-1
 833 1310 l 1,25,-1
 859 1396 l 1,26,-1
 1319 1396 l 1,27,-1
 1436 1396 l 1,28,-1
 1970 1396 l 1,29,-1
 2075 1463 l 1,30,-1
 2156 1463 l 1,31,-1
 2044 1016 l 1,32,-1
 1933 1016 l 1,33,-1
 1932 1256 l 1,34,-1
 1396 1256 l 1,35,-1
 1263 797 l 1,36,-1
 1586 797 l 1,37,-1
 1658 984 l 1,38,-1
 1767 984 l 1,39,-1
 1692 727 l 1,40,-1
 1618 470 l 1,41,-1
 1509 470 l 1,0,-1
644 626 m 1,42,-1
 1003 626 l 1,43,-1
 1188 1265 l 1,44,-1
 1187 1263 l 1,45,-1
 644 626 l 1,42,-1
EndSplineSet
EndChar

StartChar: Ccedilla
Encoding: 199 199 137
Width: 1404
GlyphClass: 1
Flags: MW
LayerCount: 2
Fore
SplineSet
536 -410 m 0,0,1
 591 -410 591 -410 621.5 -382 c 128,-1,2
 652 -354 652 -354 652 -309 c 0,3,4
 652 -275 652 -275 615.5 -251.5 c 128,-1,5
 579 -228 579 -228 479 -212 c 1,6,-1
 485 -191 l 1,7,-1
 642 -16 l 1,8,9
 510 -3 510 -3 414 46 c 0,10,11
 285 114 285 114 221 238.5 c 128,-1,12
 157 363 157 363 157 535 c 0,13,14
 157 687 157 687 196 821 c 128,-1,15
 235 955 235 955 310.5 1064.5 c 128,-1,16
 386 1174 386 1174 495 1253 c 128,-1,17
 604 1332 604 1332 745 1374.5 c 128,-1,18
 886 1417 886 1417 1056 1417 c 0,19,20
 1119 1417 1119 1417 1175 1410 c 128,-1,21
 1231 1403 1231 1403 1282 1390 c 0,22,23
 1307 1384 1307 1384 1331 1377 c 1,24,-1
 1434 1465 l 1,25,-1
 1520 1465 l 1,26,-1
 1395 948 l 1,27,-1
 1278 948 l 1,28,-1
 1273 1212 l 1,29,30
 1224 1240 1224 1240 1174 1252 c 0,31,32
 1106 1269 1106 1269 1022 1269 c 0,33,34
 892 1269 892 1269 788.5 1233.5 c 128,-1,35
 685 1198 685 1198 607.5 1133 c 128,-1,36
 530 1068 530 1068 478.5 978.5 c 128,-1,37
 427 889 427 889 401 781.5 c 128,-1,38
 375 674 375 674 375 553 c 0,39,40
 375 409 375 409 423.5 313 c 128,-1,41
 472 217 472 217 564 169 c 128,-1,42
 656 121 656 121 786 121 c 0,43,44
 865 121 865 121 948 139 c 0,45,46
 970 144 970 144 991 149 c 1,47,-1
 1181 421 l 1,48,-1
 1301 421 l 1,49,-1
 1162 54 l 1,50,51
 1081 20 1081 20 972 -0.5 c 128,-1,52
 863 -21 863 -21 741 -21 c 0,53,54
 734 -21 734 -21 727 -21 c 1,55,-1
 637 -119 l 1,56,57
 706 -139 706 -139 736 -170 c 0,58,59
 776 -209 776 -209 776 -260 c 0,60,61
 776 -322 776 -322 744.5 -372 c 128,-1,62
 713 -422 713 -422 651 -451.5 c 128,-1,63
 589 -481 589 -481 497 -481 c 0,64,65
 428 -481 428 -481 399.5 -462.5 c 128,-1,66
 371 -444 371 -444 371 -413 c 0,67,68
 371 -389 371 -389 386 -372 c 128,-1,69
 401 -355 401 -355 424 -355 c 0,70,71
 436 -355 436 -355 449.5 -368.5 c 128,-1,72
 463 -382 463 -382 483.5 -396 c 128,-1,73
 504 -410 504 -410 536 -410 c 0,0,1
EndSplineSet
EndChar

StartChar: multiply
Encoding: 215 215 153
Width: 1092
GlyphClass: 1
Flags: MW
LayerCount: 2
Fore
SplineSet
294 791 m 1,0,-1
 393 863 l 1,1,-1
 564 584 l 1,2,-1
 912 863 l 1,3,-1
 973 764 l 1,4,-1
 625 485 l 1,5,-1
 800 199 l 1,6,-1
 700 129 l 1,7,-1
 529 408 l 1,8,-1
 180 129 l 1,9,-1
 119 227 l 1,10,-1
 468 507 l 1,11,-1
 294 791 l 1,0,-1
EndSplineSet
EndChar

StartChar: Oslash
Encoding: 216 216 154
Width: 1556
GlyphClass: 2
Flags: MW
AnchorPoint: "Anchor-4" 632 0 basechar 0
LayerCount: 2
Fore
SplineSet
1511 878 m 0,0,1
 1511 735 1511 735 1472.5 601.5 c 128,-1,2
 1434 468 1434 468 1362.5 355 c 128,-1,3
 1291 242 1291 242 1192 157.5 c 128,-1,4
 1093 73 1093 73 972 26 c 128,-1,5
 851 -21 851 -21 713 -21 c 0,6,7
 535 -21 535 -21 412 44 c 0,8,9
 349 79 349 79 301 128 c 1,10,-1
 158 0 l 1,11,-1
 -31 0 l 1,12,-1
 226 231 l 1,13,14
 162 352 162 352 162 517 c 0,15,16
 162 661 162 661 200.5 794 c 128,-1,17
 239 927 239 927 311 1040 c 128,-1,18
 383 1153 383 1153 481.5 1238 c 128,-1,19
 580 1323 580 1323 701.5 1370 c 128,-1,20
 823 1417 823 1417 960 1417 c 0,21,22
 1139 1417 1139 1417 1262 1351 c 0,23,24
 1325 1317 1325 1317 1373 1268 c 1,25,-1
 1516 1396 l 1,26,-1
 1705 1396 l 1,27,-1
 1448 1164 l 1,28,29
 1511 1044 1511 1044 1511 878 c 0,0,1
391 371 m 1,30,-1
 1234 1141 l 1,31,32
 1224 1155 1224 1155 1214 1168 c 0,33,34
 1129 1268 1129 1268 955 1268 c 0,35,36
 868 1268 868 1268 790.5 1240 c 128,-1,37
 713 1212 713 1212 648.5 1160.5 c 128,-1,38
 584 1109 584 1109 534 1038.5 c 128,-1,39
 484 968 484 968 448.5 883 c 128,-1,40
 413 798 413 798 394.5 702.5 c 128,-1,41
 376 607 376 607 376 506 c 0,42,43
 376 432 376 432 391 371 c 1,30,-1
440 255 m 1,44,45
 450 241 450 241 460 228 c 0,46,47
 545 128 545 128 719 128 c 0,48,49
 806 128 806 128 883 156 c 128,-1,50
 960 184 960 184 1025 235.5 c 128,-1,51
 1090 287 1090 287 1140 357.5 c 128,-1,52
 1190 428 1190 428 1225.5 513 c 128,-1,53
 1261 598 1261 598 1279.5 693.5 c 128,-1,54
 1298 789 1298 789 1298 889 c 0,55,56
 1298 964 1298 964 1283 1025 c 1,57,-1
 440 255 l 1,44,45
EndSplineSet
EndChar

StartChar: Thorn
Encoding: 222 222 160
Width: 1275
GlyphClass: 1
Flags: MW
LayerCount: 2
Fore
SplineSet
487 1264 m 1,0,-1
 328 1310 l 1,1,-1
 353 1396 l 1,2,-1
 895 1396 l 1,3,-1
 871 1310 l 1,4,-1
 697 1263 l 1,5,-1
 655 1119 l 1,6,-1
 832 1119 l 2,7,8
 980 1119 980 1119 1073 1081 c 128,-1,9
 1166 1043 1166 1043 1208.5 971.5 c 128,-1,10
 1251 900 1251 900 1251 801 c 0,11,12
 1251 689 1251 689 1215 595.5 c 128,-1,13
 1179 502 1179 502 1107 433.5 c 128,-1,14
 1035 365 1035 365 926 328 c 128,-1,15
 817 291 817 291 673 291 c 2,16,-1
 415 291 l 1,17,-1
 369 131 l 1,18,-1
 528 85 l 1,19,-1
 504 0 l 1,20,-1
 -40 0 l 1,21,-1
 -14 85 l 1,22,-1
 159 132 l 1,23,-1
 487 1264 l 1,0,-1
696 430 m 2,24,25
 782 430 782 430 846.5 455 c 128,-1,26
 911 480 911 480 954.5 527.5 c 128,-1,27
 998 575 998 575 1019.5 641 c 128,-1,28
 1041 707 1041 707 1041 787 c 0,29,30
 1041 849 1041 849 1015.5 892 c 128,-1,31
 990 935 990 935 930.5 957.5 c 128,-1,32
 871 980 871 980 772 980 c 2,33,-1
 615 980 l 1,34,-1
 456 430 l 1,35,-1
 696 430 l 2,24,25
EndSplineSet
EndChar

StartChar: germandbls
Encoding: 223 223 161
Width: 1370
GlyphClass: 1
Flags: MW
LayerCount: 2
Fore
SplineSet
429 247 m 2,0,1
 392 46 392 46 337.5 -98.5 c 128,-1,2
 283 -243 283 -243 212.5 -337 c 128,-1,3
 142 -431 142 -431 57 -475 c 128,-1,4
 -28 -519 -28 -519 -126 -519 c 0,5,6
 -228 -519 -228 -519 -277 -475 c 128,-1,7
 -326 -431 -326 -431 -326 -357 c 0,8,9
 -326 -293 -326 -293 -289 -259 c 128,-1,10
 -252 -225 -252 -225 -174 -225 c 1,11,12
 -164 -273 -164 -273 -154 -305.5 c 128,-1,13
 -144 -338 -144 -338 -129 -361 c 128,-1,14
 -114 -384 -114 -384 -92.5 -392 c 128,-1,15
 -71 -400 -71 -400 -44 -400 c 0,16,17
 -3 -400 -3 -400 34 -378 c 128,-1,18
 71 -356 71 -356 104 -306 c 128,-1,19
 137 -256 137 -256 165 -170 c 128,-1,20
 193 -84 193 -84 216 45 c 2,21,-1
 371 939 l 1,22,-1
 131 939 l 1,23,-1
 135 1062 l 1,24,-1
 392 1062 l 1,25,26
 424 1231 424 1231 490 1346 c 0,27,28
 559 1467 559 1467 667.5 1527 c 128,-1,29
 776 1587 776 1587 924 1587 c 0,30,31
 1049 1587 1049 1587 1127.5 1555 c 128,-1,32
 1206 1523 1206 1523 1242.5 1466 c 128,-1,33
 1279 1409 1279 1409 1279 1335 c 0,34,35
 1279 1245 1279 1245 1235.5 1177 c 128,-1,36
 1192 1109 1192 1109 1091 1043 c 0,37,38
 1025 1000 1025 1000 988.5 966 c 128,-1,39
 952 932 952 932 938.5 901 c 128,-1,40
 925 870 925 870 925 837 c 0,41,42
 925 810 925 810 935.5 784 c 128,-1,43
 946 758 946 758 976.5 724 c 128,-1,44
 1007 690 1007 690 1067 640 c 0,45,46
 1156 564 1156 564 1191 492.5 c 128,-1,47
 1226 421 1226 421 1226 339 c 0,48,49
 1226 228 1226 228 1178 146.5 c 128,-1,50
 1130 65 1130 65 1042 21 c 128,-1,51
 954 -23 954 -23 838 -23 c 0,52,53
 689 -23 689 -23 625.5 30 c 128,-1,54
 562 83 562 83 562 160 c 0,55,56
 562 205 562 205 579 235.5 c 128,-1,57
 596 266 596 266 634 282 c 0,58,59
 672 297 672 297 732 297 c 1,60,61
 742 233 742 233 755 196.5 c 128,-1,62
 768 160 768 160 784 134 c 0,63,64
 802 108 802 108 824.5 99 c 128,-1,65
 847 90 847 90 879 90 c 0,66,67
 935 90 935 90 977 111.5 c 128,-1,68
 1019 133 1019 133 1043.5 174.5 c 128,-1,69
 1068 216 1068 216 1068 275 c 0,70,71
 1068 330 1068 330 1039.5 379.5 c 128,-1,72
 1011 429 1011 429 918 501 c 0,73,74
 825 574 825 574 791.5 634 c 128,-1,75
 758 694 758 694 758 766 c 0,76,77
 758 817 758 817 773.5 862.5 c 128,-1,78
 789 908 789 908 827 954.5 c 128,-1,79
 865 1001 865 1001 932 1052 c 0,80,81
 998 1104 998 1104 1034.5 1147 c 128,-1,82
 1071 1190 1071 1190 1085 1232 c 128,-1,83
 1099 1274 1099 1274 1099 1319 c 0,84,85
 1099 1397 1099 1397 1056 1440.5 c 128,-1,86
 1013 1484 1013 1484 912 1484 c 0,87,88
 821 1484 821 1484 758 1449 c 128,-1,89
 695 1414 695 1414 656.5 1339 c 128,-1,90
 618 1264 618 1264 597 1146 c 2,91,-1
 429 247 l 2,0,1
EndSplineSet
EndChar

StartChar: ae
Encoding: 230 230 168
Width: 1680
GlyphClass: 2
Flags: MW
AnchorPoint: "Anchor-4" 699 0 basechar 0
AnchorPoint: "Anchor-0" 999 1062 basechar 0
LayerCount: 2
Fore
SplineSet
884 848 m 1,0,1
 857 897 857 897 822 922 c 0,2,3
 774 954 774 954 715 954 c 0,4,5
 637 954 637 954 565.5 906.5 c 128,-1,6
 494 859 494 859 433.5 781 c 128,-1,7
 373 703 373 703 328.5 611 c 128,-1,8
 284 519 284 519 259.5 429 c 128,-1,9
 235 339 235 339 235 269 c 0,10,11
 235 201 235 201 269 168 c 128,-1,12
 303 135 303 135 360 135 c 0,13,14
 410 135 410 135 478 187 c 128,-1,15
 546 239 546 239 617.5 326 c 128,-1,16
 689 413 689 413 750.5 521 c 128,-1,17
 812 629 812 629 849 740 c 2,18,-1
 884 848 l 1,0,1
905 911 m 1,19,-1
 1004 1062 l 1,20,-1
 1112 1062 l 1,21,-1
 1092 948 l 1,22,23
 1145 1000 1145 1000 1210 1036 c 0,24,25
 1299 1084 1299 1084 1405 1084 c 0,26,27
 1492 1084 1492 1084 1544.5 1050 c 128,-1,28
 1597 1016 1597 1016 1620.5 958.5 c 128,-1,29
 1644 901 1644 901 1644 831 c 0,30,31
 1644 777 1644 777 1628 720.5 c 128,-1,32
 1612 664 1612 664 1586 622 c 1,33,34
 1506 596 1506 596 1424 573 c 128,-1,35
 1342 550 1342 550 1260.5 531 c 128,-1,36
 1179 512 1179 512 1100 496 c 0,37,38
 1037 484 1037 484 979 474 c 1,39,40
 975 432 975 432 975 388 c 0,41,42
 975 249 975 249 1021 195 c 128,-1,43
 1067 141 1067 141 1162 141 c 0,44,45
 1221 141 1221 141 1274.5 162.5 c 128,-1,46
 1328 184 1328 184 1377 231 c 128,-1,47
 1426 278 1426 278 1469 356 c 1,48,-1
 1558 356 l 1,49,50
 1497 212 1497 212 1426.5 130 c 128,-1,51
 1356 48 1356 48 1275.5 12.5 c 128,-1,52
 1195 -23 1195 -23 1105 -23 c 0,53,54
 976 -23 976 -23 898 36 c 128,-1,55
 820 95 820 95 800 212 c 128,-1,56
 780 329 780 329 822 505 c 1,57,-1
 808 498 l 1,58,59
 711 336 711 336 635 233.5 c 128,-1,60
 559 131 559 131 497 75 c 128,-1,61
 435 19 435 19 383 -1.5 c 128,-1,62
 331 -22 331 -22 280 -22 c 0,63,64
 209 -22 209 -22 154 7 c 128,-1,65
 99 36 99 36 67.5 93 c 128,-1,66
 36 150 36 150 36 235 c 0,67,68
 36 337 36 337 69 451.5 c 128,-1,69
 102 566 102 566 161.5 677 c 128,-1,70
 221 788 221 788 302.5 879.5 c 128,-1,71
 384 971 384 971 481 1025.5 c 128,-1,72
 578 1080 578 1080 685 1080 c 0,73,74
 777 1080 777 1080 833 1028 c 0,75,76
 879 985 879 985 905 911 c 1,19,-1
994 578 m 1,77,78
 1112 602 1112 602 1192 623 c 0,79,80
 1287 648 1287 648 1342.5 670 c 128,-1,81
 1398 692 1398 692 1424 716 c 128,-1,82
 1450 740 1450 740 1457.5 767 c 128,-1,83
 1465 794 1465 794 1465 827 c 0,84,85
 1465 869 1465 869 1450 900 c 128,-1,86
 1435 931 1435 931 1406.5 948.5 c 128,-1,87
 1378 966 1378 966 1335 966 c 0,88,89
 1276 966 1276 966 1222 937 c 128,-1,90
 1168 908 1168 908 1122.5 855 c 128,-1,91
 1077 802 1077 802 1044 730 c 0,92,93
 1012 661 1012 661 994 578 c 1,77,78
EndSplineSet
EndChar

StartChar: ccedilla
Encoding: 231 231 169
Width: 942
GlyphClass: 1
Flags: MW
LayerCount: 2
Fore
SplineSet
617 966 m 0,0,1
 541 966 541 966 477.5 920.5 c 128,-1,2
 414 875 414 875 367 795.5 c 128,-1,3
 320 716 320 716 294 611.5 c 128,-1,4
 268 507 268 507 268 388 c 0,5,6
 268 249 268 249 315.5 195 c 128,-1,7
 363 141 363 141 457 141 c 0,8,9
 516 141 516 141 567.5 162.5 c 128,-1,10
 619 184 619 184 666.5 231.5 c 128,-1,11
 714 279 714 279 756 359 c 1,12,-1
 846 359 l 1,13,14
 794 230 794 230 729.5 145 c 128,-1,15
 665 60 665 60 584 18 c 0,16,17
 520 -15 520 -15 442 -21 c 1,18,-1
 348 -129 l 1,19,20
 419 -151 419 -151 450 -184 c 0,21,22
 491 -226 491 -226 491 -281 c 0,23,24
 491 -348 491 -348 458.5 -402 c 128,-1,25
 426 -456 426 -456 362 -487.5 c 128,-1,26
 298 -519 298 -519 203 -519 c 0,27,28
 131 -519 131 -519 102.5 -499.5 c 128,-1,29
 74 -480 74 -480 74 -446 c 0,30,31
 74 -420 74 -420 89 -401.5 c 128,-1,32
 104 -383 104 -383 127 -383 c 0,33,34
 139 -383 139 -383 153.5 -398 c 128,-1,35
 168 -413 168 -413 189 -428 c 128,-1,36
 210 -443 210 -443 242 -443 c 0,37,38
 300 -443 300 -443 331.5 -412.5 c 128,-1,39
 363 -382 363 -382 363 -334 c 0,40,41
 363 -297 363 -297 325.5 -271.5 c 128,-1,42
 288 -246 288 -246 185 -229 c 1,43,-1
 191 -206 l 1,44,-1
 351 -21 l 1,45,46
 226 -8 226 -8 156 66 c 0,47,48
 72 156 72 156 72 338 c 0,49,50
 72 494 72 494 117 629.5 c 128,-1,51
 162 765 162 765 242.5 867.5 c 128,-1,52
 323 970 323 970 432 1027 c 128,-1,53
 541 1084 541 1084 670 1084 c 0,54,55
 801 1084 801 1084 869.5 1033 c 128,-1,56
 938 982 938 982 938 907 c 0,57,58
 938 851 938 851 900.5 814 c 128,-1,59
 863 777 863 777 818 777 c 0,60,61
 800 777 800 777 777.5 802 c 128,-1,62
 755 827 755 827 725 872 c 128,-1,63
 695 917 695 917 668.5 941.5 c 128,-1,64
 642 966 642 966 617 966 c 0,0,1
EndSplineSet
EndChar

StartChar: eth
Encoding: 240 240 178
Width: 1085
GlyphClass: 1
Flags: MW
LayerCount: 2
Fore
SplineSet
474 1117 m 1,0,-1
 425 1216 l 1,1,-1
 645 1352 l 1,2,3
 623 1368 623 1368 598 1383 c 0,4,5
 499 1441 499 1441 357 1482 c 1,6,-1
 388 1587 l 1,7,8
 570 1549 570 1549 692 1480 c 0,9,10
 735 1457 735 1457 771 1430 c 1,11,-1
 1000 1571 l 1,12,-1
 1049 1473 l 1,13,-1
 855 1353 l 1,14,15
 872 1334 872 1334 887 1314 c 0,16,17
 959 1217 959 1217 989.5 1096.5 c 128,-1,18
 1020 976 1020 976 1020 835 c 0,19,20
 1019 648 1019 648 974 492 c 128,-1,21
 929 336 929 336 849 220.5 c 128,-1,22
 769 105 769 105 660.5 41 c 128,-1,23
 552 -23 552 -23 425 -23 c 0,24,25
 309 -23 309 -23 230.5 22.5 c 128,-1,26
 152 68 152 68 111.5 149.5 c 128,-1,27
 71 231 71 231 71 337 c 0,28,29
 71 482 71 482 112.5 611 c 128,-1,30
 154 740 154 740 225.5 839.5 c 128,-1,31
 297 939 297 939 392 996 c 128,-1,32
 487 1053 487 1053 596 1053 c 0,33,34
 683 1053 683 1053 740 1011.5 c 128,-1,35
 797 970 797 970 824 898 c 0,36,37
 831 880 831 880 837 861 c 1,38,39
 841 953 841 953 830 1028 c 0,40,41
 813 1152 813 1152 755 1238 c 0,42,43
 743 1257 743 1257 728 1274 c 1,44,-1
 474 1117 l 1,0,-1
431 110 m 0,45,46
 498 110 498 110 557.5 144 c 128,-1,47
 617 178 617 178 663.5 238 c 128,-1,48
 710 298 710 298 743 376.5 c 128,-1,49
 776 455 776 455 793.5 544 c 128,-1,50
 811 633 811 633 811 724 c 0,51,52
 811 821 811 821 769 871.5 c 128,-1,53
 727 922 727 922 648 922 c 0,54,55
 581 922 581 922 522.5 888 c 128,-1,56
 464 854 464 854 417 794.5 c 128,-1,57
 370 735 370 735 337 657 c 128,-1,58
 304 579 304 579 286 490 c 128,-1,59
 268 401 268 401 268 309 c 0,60,61
 268 213 268 213 310.5 161.5 c 128,-1,62
 353 110 353 110 431 110 c 0,45,46
EndSplineSet
EndChar

StartChar: divide
Encoding: 247 247 185
Width: 1092
GlyphClass: 1
Flags: MW
LayerCount: 2
Fore
SplineSet
456 267 m 0,0,1
 506 267 506 267 535 237.5 c 128,-1,2
 564 208 564 208 564 156 c 0,3,4
 564 98 564 98 529 60 c 128,-1,5
 494 22 494 22 433 22 c 0,6,7
 383 22 383 22 353.5 52 c 128,-1,8
 324 82 324 82 324 133 c 0,9,10
 324 191 324 191 359.5 229 c 128,-1,11
 395 267 395 267 456 267 c 0,0,1
659 970 m 0,12,13
 710 970 710 970 739.5 940.5 c 128,-1,14
 769 911 769 911 769 859 c 0,15,16
 769 801 769 801 733 763 c 128,-1,17
 697 725 697 725 637 725 c 0,18,19
 587 725 587 725 557 755 c 128,-1,20
 527 785 527 785 527 836 c 0,21,22
 527 894 527 894 563 932 c 128,-1,23
 599 970 599 970 659 970 c 0,12,13
180 559 m 1,24,-1
 950 559 l 1,25,-1
 913 433 l 1,26,-1
 143 433 l 1,27,-1
 180 559 l 1,24,-1
EndSplineSet
EndChar

StartChar: oslash
Encoding: 248 248 186
Width: 1126
GlyphClass: 2
Flags: MW
AnchorPoint: "Anchor-4" 411 0 basechar 0
AnchorPoint: "Anchor-0" 703 1062 basechar 0
LayerCount: 2
Fore
SplineSet
1016 1062 m 1,0,-1
 1176 1062 l 1,1,-1
 1000 888 l 1,2,3
 1032 812 1032 812 1032 714 c 0,4,5
 1032 567 1032 567 987.5 434 c 128,-1,6
 943 301 943 301 864.5 198 c 128,-1,7
 786 95 786 95 680 36 c 128,-1,8
 574 -23 574 -23 448 -23 c 0,9,10
 332 -23 332 -23 254 24 c 0,11,12
 216 47 216 47 187 78 c 1,13,-1
 108 0 l 1,14,-1
 -52 0 l 1,15,-1
 126 174 l 1,16,17
 95 251 95 251 95 348 c 0,18,19
 95 495 95 495 138.5 627.5 c 128,-1,20
 182 760 182 760 261 863.5 c 128,-1,21
 340 967 340 967 446.5 1025.5 c 128,-1,22
 553 1084 553 1084 677 1084 c 0,23,24
 794 1084 794 1084 872 1037 c 0,25,26
 910 1015 910 1015 938 984 c 1,27,-1
 1016 1062 l 1,0,-1
455 111 m 0,28,29
 522 111 522 111 580.5 145.5 c 128,-1,30
 639 180 639 180 685.5 242.5 c 128,-1,31
 732 305 732 305 765 386 c 128,-1,32
 798 467 798 467 816 558 c 0,33,34
 834 645 834 645 835 732 c 1,35,-1
 314 198 l 1,36,37
 322 179 322 179 334 164 c 0,38,39
 377 111 377 111 455 111 c 0,28,29
292 332 m 1,40,-1
 813 864 l 1,41,42
 805 883 805 883 792 898 c 0,43,44
 750 950 750 950 672 950 c 0,45,46
 605 950 605 950 545.5 915.5 c 128,-1,47
 486 881 486 881 439.5 819 c 128,-1,48
 393 757 393 757 360 676 c 128,-1,49
 327 595 327 595 310 504 c 0,50,51
 293 419 293 419 292 332 c 1,40,-1
EndSplineSet
EndChar

StartChar: thorn
Encoding: 254 254 192
Width: 1127
GlyphClass: 1
Flags: MW
LayerCount: 2
Fore
SplineSet
348 674 m 1,0,-1
 363 680 l 1,1,2
 440 825 440 825 515.5 913.5 c 128,-1,3
 591 1002 591 1002 664 1043 c 0,4,5
 738 1084 738 1084 808 1084 c 0,6,7
 936 1084 936 1084 1001 995.5 c 128,-1,8
 1066 907 1066 907 1066 770 c 0,9,10
 1066 649 1066 649 1036 533.5 c 128,-1,11
 1006 418 1006 418 950.5 317 c 128,-1,12
 895 216 895 216 820 140 c 128,-1,13
 745 64 745 64 653 20.5 c 128,-1,14
 561 -23 561 -23 460 -23 c 0,15,16
 357 -23 357 -23 284 20 c 0,17,18
 257 36 257 36 238 57 c 1,19,20
 205 -68 205 -68 124 -370 c 1,21,-1
 302 -415 l 1,22,-1
 279 -497 l 2,23,24
 278 -497 278 -497 -238 -497 c 1,25,-1
 -215 -416 l 1,26,-1
 -66 -370 l 1,27,-1
 396 1355 l 1,28,29
 378 1366 378 1366 347.5 1383 c 128,-1,30
 317 1400 317 1400 283.5 1417 c 128,-1,31
 250 1434 250 1434 221 1446 c 1,32,-1
 236 1513 l 1,33,-1
 606 1587 l 1,34,-1
 644 1587 l 1,35,-1
 348 674 l 1,0,-1
294 314 m 2,36,37
 288 290 288 290 286.5 272.5 c 128,-1,38
 285 255 285 255 285 241 c 0,39,40
 285 177 285 177 328 134 c 128,-1,41
 371 91 371 91 462 91 c 0,42,43
 528 91 528 91 587 127 c 128,-1,44
 646 163 646 163 696 227 c 128,-1,45
 746 291 746 291 782.5 372 c 128,-1,46
 819 453 819 453 839 542 c 128,-1,47
 859 631 859 631 859 719 c 0,48,49
 859 824 859 824 823.5 869.5 c 128,-1,50
 788 915 788 915 722 915 c 0,51,52
 677 915 677 915 628.5 887 c 128,-1,53
 580 859 580 859 533 810.5 c 128,-1,54
 486 762 486 762 445 703 c 128,-1,55
 404 644 404 644 374.5 580 c 128,-1,56
 345 516 345 516 331 458 c 2,57,-1
 294 314 l 2,36,37
EndSplineSet
EndChar

StartChar: Aogonek
Encoding: 260 260 198
Width: 1454
GlyphClass: 1
Flags: MW
LayerCount: 2
Fore
SplineSet
940 -305 m 0,0,1
 940 -340 940 -340 960 -359 c 128,-1,2
 980 -378 980 -378 1018 -378 c 0,3,4
 1046 -378 1046 -378 1074 -369 c 128,-1,5
 1102 -360 1102 -360 1145 -332 c 0,6,7
 1146 -332 1146 -332 1150 -391 c 1,8,9
 1085 -442 1085 -442 1038 -462 c 0,10,11
 990 -481 990 -481 940 -481 c 0,12,13
 875 -481 875 -481 843.5 -445 c 128,-1,14
 812 -409 812 -409 812 -354 c 0,15,16
 812 -320 812 -320 823.5 -284 c 128,-1,17
 835 -248 835 -248 866.5 -201 c 128,-1,18
 898 -154 898 -154 956 -87 c 2,19,-1
 1032 0 l 1,20,-1
 781 0 l 1,21,-1
 806 85 l 1,22,-1
 982 131 l 1,23,-1
 957 473 l 1,24,-1
 438 473 l 1,25,-1
 231 131 l 1,26,-1
 378 85 l 1,27,-1
 353 0 l 1,28,-1
 -122 0 l 1,29,-1
 -96 85 l 1,30,-1
 65 131 l 1,31,-1
 864 1413 l 1,32,-1
 1089 1413 l 1,33,-1
 1196 132 l 1,34,-1
 1342 85 l 1,35,-1
 1318 0 l 1,36,-1
 1106 0 l 1,37,-1
 1033 -104 l 2,38,39
 996 -156 996 -156 976 -193 c 128,-1,40
 956 -230 956 -230 948 -256.5 c 128,-1,41
 940 -283 940 -283 940 -305 c 0,0,1
901 1240 m 1,42,-1
 520 610 l 1,43,-1
 947 610 l 1,44,-1
 901 1240 l 1,42,-1
EndSplineSet
EndChar

StartChar: aogonek
Encoding: 261 261 199
Width: 1216
GlyphClass: 1
Flags: MW
LayerCount: 2
Fore
SplineSet
1179 208 m 1,0,1
 1145 169 1145 169 1109 129 c 128,-1,2
 1073 89 1073 89 1033 46 c 2,3,-1
 884 -107 l 2,4,5
 830 -162 830 -162 803.5 -201.5 c 128,-1,6
 777 -241 777 -241 768 -270 c 128,-1,7
 759 -299 759 -299 759 -327 c 0,8,9
 759 -364 759 -364 781 -386 c 128,-1,10
 803 -408 803 -408 843 -408 c 0,11,12
 872 -408 872 -408 900 -398.5 c 128,-1,13
 928 -389 928 -389 973 -359 c 1,14,-1
 978 -422 l 1,15,16
 912 -477 912 -477 863 -498 c 128,-1,17
 814 -519 814 -519 762 -519 c 0,18,19
 695 -519 695 -519 661 -478.5 c 128,-1,20
 627 -438 627 -438 627 -379 c 0,21,22
 627 -339 627 -339 641.5 -298.5 c 128,-1,23
 656 -258 656 -258 696 -207.5 c 128,-1,24
 736 -157 736 -157 811 -85 c 2,25,-1
 913 12 l 1,26,27
 882 -3 882 -3 854 -10 c 0,28,29
 806 -23 806 -23 770 -23 c 0,30,31
 706 -23 706 -23 684 5 c 128,-1,32
 662 33 662 33 683 94 c 2,33,-1
 820 498 l 1,34,-1
 808 498 l 1,35,36
 711 336 711 336 634.5 233.5 c 128,-1,37
 558 131 558 131 496.5 75 c 128,-1,38
 435 19 435 19 383 -1.5 c 128,-1,39
 331 -22 331 -22 280 -22 c 0,40,41
 209 -22 209 -22 154 7 c 128,-1,42
 99 36 99 36 67.5 93 c 128,-1,43
 36 150 36 150 36 235 c 0,44,45
 36 337 36 337 69 451.5 c 128,-1,46
 102 566 102 566 161.5 677 c 128,-1,47
 221 788 221 788 302.5 879.5 c 128,-1,48
 384 971 384 971 481 1025.5 c 128,-1,49
 578 1080 578 1080 685 1080 c 0,50,51
 777 1080 777 1080 833 1028 c 0,52,53
 879 985 879 985 905 911 c 1,54,-1
 1023 1062 l 1,55,-1
 1142 1062 l 1,56,-1
 856 151 l 1,57,58
 874 153 874 153 893 156 c 0,59,60
 948 167 948 167 1010.5 196.5 c 128,-1,61
 1073 226 1073 226 1139 276 c 1,62,-1
 1179 208 l 1,0,1
884 848 m 1,63,64
 857 897 857 897 822 922 c 0,65,66
 774 954 774 954 715 954 c 0,67,68
 637 954 637 954 565.5 906.5 c 128,-1,69
 494 859 494 859 433.5 781 c 128,-1,70
 373 703 373 703 328.5 611 c 128,-1,71
 284 519 284 519 259.5 429 c 128,-1,72
 235 339 235 339 235 269 c 0,73,74
 235 201 235 201 269 168 c 128,-1,75
 303 135 303 135 360 135 c 0,76,77
 410 135 410 135 478 187 c 128,-1,78
 546 239 546 239 617.5 326 c 128,-1,79
 689 413 689 413 750.5 521 c 128,-1,80
 812 629 812 629 849 740 c 2,81,-1
 884 848 l 1,63,64
EndSplineSet
EndChar

StartChar: Dcroat
Encoding: 272 272 210
Width: 1515
GlyphClass: 1
Flags: MW
LayerCount: 2
Fore
SplineSet
490 1264 m 1,0,-1
 331 1310 l 1,1,-1
 355 1396 l 1,2,-1
 618 1396 l 1,3,-1
 738 1396 l 1,4,-1
 868 1396 l 2,5,6
 1088 1396 1088 1396 1222.5 1336.5 c 128,-1,7
 1357 1277 1357 1277 1417.5 1163 c 128,-1,8
 1478 1049 1478 1049 1478 885 c 0,9,10
 1478 688 1478 688 1419 526 c 128,-1,11
 1360 364 1360 364 1246.5 246 c 128,-1,12
 1133 128 1133 128 968 64 c 128,-1,13
 803 0 803 0 592 0 c 2,14,-1
 333 0 l 1,15,-1
 213 0 l 1,16,-1
 -37 0 l 1,17,-1
 -11 85 l 2,18,19
 -10 85 -10 85 162 132 c 1,20,-1
 309 639 l 1,21,-1
 147 639 l 1,22,-1
 184 768 l 1,23,-1
 346 768 l 1,24,-1
 490 1264 l 1,0,-1
584 139 m 2,25,26
 716 139 716 139 823.5 174.5 c 128,-1,27
 931 210 931 210 1012 276 c 128,-1,28
 1093 342 1093 342 1148.5 434.5 c 128,-1,29
 1204 527 1204 527 1232 642.5 c 128,-1,30
 1260 758 1260 758 1260 891 c 0,31,32
 1260 1006 1260 1006 1219 1088 c 128,-1,33
 1178 1170 1178 1170 1088 1213 c 128,-1,34
 998 1256 998 1256 849 1256 c 2,35,-1
 697 1256 l 1,36,-1
 556 768 l 1,37,-1
 855 768 l 1,38,-1
 817 639 l 1,39,-1
 518 639 l 1,40,-1
 373 139 l 1,41,-1
 584 139 l 2,25,26
EndSplineSet
EndChar

StartChar: dcroat
Encoding: 273 273 211
Width: 1211
GlyphClass: 1
Flags: MW
LayerCount: 2
Fore
SplineSet
694 1206 m 1,0,-1
 728 1328 l 1,1,-1
 1023 1328 l 1,2,-1
 1034 1367 l 1,3,4
 1026 1373 1026 1373 1014 1380 c 128,-1,5
 1002 1387 1002 1387 988 1394.5 c 128,-1,6
 974 1402 974 1402 958.5 1409.5 c 128,-1,7
 943 1417 943 1417 927 1424.5 c 128,-1,8
 911 1432 911 1432 896.5 1439 c 128,-1,9
 882 1446 882 1446 869 1453 c 1,10,11
 870 1453 870 1453 884 1520 c 1,12,-1
 1247 1587 l 1,13,-1
 1286 1587 l 1,14,-1
 1209 1328 l 1,15,-1
 1396 1328 l 1,16,-1
 1362 1206 l 1,17,-1
 1172 1206 l 1,18,-1
 857 151 l 1,19,20
 876 153 876 153 896 156 c 0,21,22
 951 167 951 167 1013 196.5 c 128,-1,23
 1075 226 1075 226 1142 276 c 1,24,-1
 1182 208 l 1,25,26
 1040 70 1040 70 939 23.5 c 128,-1,27
 838 -23 838 -23 773 -23 c 0,28,29
 709 -23 709 -23 686.5 5 c 128,-1,30
 664 33 664 33 685 93 c 2,31,-1
 822 498 l 1,32,-1
 809 498 l 1,33,34
 711 336 711 336 635.5 233.5 c 128,-1,35
 560 131 560 131 498 75 c 128,-1,36
 436 19 436 19 383.5 -1.5 c 128,-1,37
 331 -22 331 -22 280 -22 c 0,38,39
 210 -22 210 -22 154.5 7 c 128,-1,40
 99 36 99 36 67.5 93.5 c 128,-1,41
 36 151 36 151 36 237 c 0,42,43
 36 339 36 339 69 453.5 c 128,-1,44
 102 568 102 568 162 679.5 c 128,-1,45
 222 791 222 791 304 882 c 128,-1,46
 386 973 386 973 483 1028 c 128,-1,47
 580 1083 580 1083 687 1083 c 0,48,49
 779 1083 779 1083 835 1032 c 0,50,51
 880 990 880 990 906 918 c 1,52,-1
 988 1206 l 1,53,-1
 694 1206 l 1,0,-1
886 849 m 1,54,55
 859 899 859 899 823 924 c 0,56,57
 776 957 776 957 717 957 c 0,58,59
 638 957 638 957 566.5 909.5 c 128,-1,60
 495 862 495 862 434 783.5 c 128,-1,61
 373 705 373 705 329 613.5 c 128,-1,62
 285 522 285 522 260.5 431 c 128,-1,63
 236 340 236 340 236 270 c 0,64,65
 236 202 236 202 269.5 168.5 c 128,-1,66
 303 135 303 135 360 135 c 0,67,68
 402 135 402 135 457 171 c 128,-1,69
 512 207 512 207 572 270.5 c 128,-1,70
 632 334 632 334 690 417 c 128,-1,71
 748 500 748 500 795 597 c 128,-1,72
 842 694 842 694 871 796 c 2,73,-1
 886 849 l 1,54,55
EndSplineSet
EndChar

StartChar: Eogonek
Encoding: 280 280 218
Width: 1332
GlyphClass: 1
Flags: MW
LayerCount: 2
Fore
SplineSet
730 -305 m 0,0,1
 730 -340 730 -340 750 -359 c 128,-1,2
 770 -378 770 -378 808 -378 c 0,3,4
 836 -378 836 -378 863.5 -369 c 128,-1,5
 891 -360 891 -360 934 -332 c 1,6,-1
 939 -391 l 1,7,8
 874 -442 874 -442 827 -461.5 c 128,-1,9
 780 -481 780 -481 730 -481 c 0,10,11
 665 -481 665 -481 633 -445 c 128,-1,12
 601 -409 601 -409 601 -354 c 0,13,14
 601 -319 601 -319 611 -284.5 c 128,-1,15
 621 -250 621 -250 650.5 -204.5 c 128,-1,16
 680 -159 680 -159 739 -93 c 2,17,-1
 821 0 l 1,18,-1
 332 0 l 1,19,-1
 213 0 l 1,20,-1
 -40 0 l 1,21,-1
 -14 85 l 1,22,-1
 159 132 l 1,23,-1
 487 1264 l 1,24,-1
 328 1310 l 1,25,-1
 353 1396 l 1,26,-1
 618 1396 l 1,27,-1
 736 1396 l 1,28,-1
 1269 1396 l 1,29,-1
 1374 1463 l 1,30,-1
 1454 1463 l 1,31,-1
 1343 1016 l 1,32,-1
 1232 1016 l 1,33,-1
 1231 1256 l 1,34,-1
 695 1256 l 1,35,-1
 563 797 l 1,36,-1
 885 797 l 1,37,-1
 957 984 l 1,38,-1
 1066 984 l 1,39,-1
 991 727 l 1,40,-1
 917 470 l 1,41,-1
 808 470 l 1,42,-1
 846 660 l 1,43,-1
 523 660 l 1,44,-1
 372 139 l 1,45,-1
 898 139 l 1,46,-1
 1141 419 l 1,47,-1
 1250 414 l 1,48,-1
 1009 -72 l 1,49,-1
 916 -72 l 1,50,-1
 880 -21 l 1,51,-1
 816 -110 l 2,52,53
 779 -162 779 -162 760.5 -197 c 128,-1,54
 742 -232 742 -232 736 -257.5 c 128,-1,55
 730 -283 730 -283 730 -305 c 0,0,1
EndSplineSet
EndChar

StartChar: eogonek
Encoding: 281 281 219
Width: 974
GlyphClass: 1
Flags: MW
LayerCount: 2
Fore
SplineSet
751 170 m 0,0,1
 750 170 750 170 560 -93 c 0,2,3
 516 -153 516 -153 493 -197 c 128,-1,4
 470 -241 470 -241 462.5 -273.5 c 128,-1,5
 455 -306 455 -306 455 -329 c 0,6,7
 455 -366 455 -366 475.5 -387 c 128,-1,8
 496 -408 496 -408 535 -408 c 0,9,10
 564 -408 564 -408 592.5 -398.5 c 128,-1,11
 621 -389 621 -389 665 -359 c 1,12,-1
 671 -422 l 1,13,14
 605 -477 605 -477 556 -498 c 128,-1,15
 507 -519 507 -519 455 -519 c 0,16,17
 389 -519 389 -519 356 -480.5 c 128,-1,18
 323 -442 323 -442 323 -382 c 0,19,20
 323 -344 323 -344 336 -304 c 128,-1,21
 349 -264 349 -264 383.5 -208.5 c 128,-1,22
 418 -153 418 -153 484 -73 c 2,23,-1
 544 1 l 1,24,25
 524 -6 524 -6 504 -11 c 0,26,27
 453 -23 453 -23 399 -23 c 0,28,29
 292 -23 292 -23 218.5 17 c 128,-1,30
 145 57 145 57 109 136.5 c 128,-1,31
 73 216 73 216 73 335 c 0,32,33
 73 464 73 464 102.5 577.5 c 128,-1,34
 132 691 132 691 186 784 c 128,-1,35
 240 877 240 877 315 944.5 c 128,-1,36
 390 1012 390 1012 479.5 1048 c 128,-1,37
 569 1084 569 1084 670 1084 c 0,38,39
 768 1084 768 1084 826.5 1050 c 128,-1,40
 885 1016 885 1016 912.5 958.5 c 128,-1,41
 940 901 940 901 940 831 c 0,42,43
 940 777 940 777 923.5 721 c 128,-1,44
 907 665 907 665 881 622 c 1,45,46
 802 596 802 596 720 573 c 128,-1,47
 638 550 638 550 556.5 531 c 128,-1,48
 475 512 475 512 396 496 c 0,49,50
 332 484 332 484 273 474 c 1,51,52
 269 432 269 432 269 388 c 0,53,54
 269 249 269 249 315 195 c 128,-1,55
 361 141 361 141 456 141 c 0,56,57
 515 141 515 141 568.5 162.5 c 128,-1,58
 622 184 622 184 671 231 c 128,-1,59
 720 278 720 278 763 356 c 1,60,-1
 853 356 l 1,61,62
 828 299 828 299 803.5 254 c 128,-1,63
 779 209 779 209 751 170 c 0,0,1
288 578 m 1,64,65
 406 601 406 601 488 623 c 0,66,67
 582 648 582 648 637.5 670 c 128,-1,68
 693 692 693 692 719 716 c 128,-1,69
 745 740 745 740 752.5 767 c 128,-1,70
 760 794 760 794 760 827 c 0,71,72
 760 869 760 869 745 900 c 128,-1,73
 730 931 730 931 702 948.5 c 128,-1,74
 674 966 674 966 629 966 c 0,75,76
 570 966 570 966 516 937 c 128,-1,77
 462 908 462 908 416.5 856 c 128,-1,78
 371 804 371 804 338 732 c 0,79,80
 306 661 306 661 288 578 c 1,64,65
EndSplineSet
EndChar

StartChar: Hbar
Encoding: 294 294 232
Width: 1609
GlyphClass: 1
Flags: MW
LayerCount: 2
Fore
SplineSet
1355 1264 m 1,0,-1
 1196 1310 l 1,1,-1
 1221 1396 l 1,2,-1
 1763 1396 l 1,3,4
 1762 1396 1762 1396 1738 1310 c 1,5,-1
 1566 1263 l 1,6,-1
 1522 1111 l 1,7,-1
 1691 1111 l 1,8,-1
 1653 983 l 1,9,-1
 1485 983 l 1,10,-1
 1237 131 l 1,11,-1
 1396 85 l 1,12,-1
 1371 0 l 1,13,-1
 828 0 l 1,14,-1
 853 85 l 1,15,-1
 1026 132 l 1,16,-1
 1174 641 l 1,17,-1
 518 641 l 1,18,19
 455 424 455 424 370 131 c 1,20,-1
 529 85 l 1,21,-1
 505 0 l 1,22,-1
 -38 0 l 1,23,-1
 -12 85 l 1,24,-1
 161 132 l 1,25,-1
 408 983 l 1,26,-1
 246 983 l 1,27,-1
 283 1111 l 1,28,-1
 445 1111 l 1,29,-1
 489 1264 l 1,30,-1
 330 1310 l 1,31,-1
 354 1396 l 1,32,-1
 897 1396 l 1,33,-1
 873 1310 l 1,34,-1
 699 1263 l 1,35,36
 699 1263 699 1263 654 1111 c 1,37,-1
 1311 1111 l 1,38,-1
 1355 1264 l 1,0,-1
617 983 m 1,39,40
 592 896 592 896 558 781 c 1,41,-1
 1215 781 l 1,42,-1
 1273 983 l 1,43,-1
 617 983 l 1,39,40
EndSplineSet
EndChar

StartChar: hbar
Encoding: 295 295 233
Width: 1210
GlyphClass: 1
Flags: MW
LayerCount: 2
Fore
SplineSet
170 1206 m 1,0,-1
 203 1328 l 1,1,-1
 393 1328 l 1,2,-1
 404 1367 l 1,3,4
 392 1376 392 1376 371.5 1387 c 128,-1,5
 351 1398 351 1398 327.5 1409 c 128,-1,6
 304 1420 304 1420 280 1431.5 c 128,-1,7
 256 1443 256 1443 236 1453 c 1,8,-1
 251 1520 l 1,9,-1
 619 1587 l 1,10,-1
 657 1587 l 1,11,-1
 572 1328 l 1,12,-1
 872 1328 l 1,13,-1
 838 1206 l 1,14,-1
 532 1206 l 1,15,-1
 301 502 l 1,16,-1
 325 504 l 1,17,18
 397 662 397 662 466 772.5 c 128,-1,19
 535 883 535 883 604 952 c 128,-1,20
 673 1021 673 1021 744 1052 c 128,-1,21
 815 1083 815 1083 890 1083 c 0,22,23
 992 1083 992 1083 1038 1030.5 c 128,-1,24
 1084 978 1084 978 1084 899 c 0,25,26
 1084 858 1084 858 1071 800.5 c 128,-1,27
 1058 743 1058 743 1025 653 c 2,28,-1
 838 158 l 1,29,30
 861 160 861 160 884 166 c 0,31,32
 936 177 936 177 995 205 c 128,-1,33
 1054 233 1054 233 1122 278 c 1,34,-1
 1165 205 l 1,35,36
 1067 116 1067 116 985 66.5 c 128,-1,37
 903 17 903 17 836.5 -3 c 128,-1,38
 770 -23 770 -23 713 -23 c 0,39,40
 647 -23 647 -23 625.5 8.5 c 128,-1,41
 604 40 604 40 632 117 c 2,42,-1
 848 692 l 2,43,44
 869 746 869 746 876.5 777.5 c 128,-1,45
 884 809 884 809 884 831 c 0,46,47
 884 863 884 863 862.5 882.5 c 128,-1,48
 841 902 841 902 794 902 c 0,49,50
 728 902 728 902 658 853.5 c 128,-1,51
 588 805 588 805 522 717.5 c 128,-1,52
 456 630 456 630 399 511 c 128,-1,53
 342 392 342 392 301 252 c 2,54,-1
 229 0 l 1,55,-1
 30 0 l 1,56,-1
 360 1206 l 1,57,-1
 170 1206 l 1,0,-1
EndSplineSet
EndChar

StartChar: Iogonek
Encoding: 302 302 240
Width: 739
GlyphClass: 1
Flags: MW
LayerCount: 2
Fore
SplineSet
99 -303 m 0,0,1
 99 -338 99 -338 119 -358 c 128,-1,2
 139 -378 139 -378 178 -378 c 0,3,4
 206 -378 206 -378 233 -369 c 128,-1,5
 260 -360 260 -360 304 -332 c 1,6,-1
 308 -391 l 1,7,8
 243 -442 243 -442 196.5 -461.5 c 128,-1,9
 150 -481 150 -481 99 -481 c 0,10,11
 34 -481 34 -481 2.5 -444.5 c 128,-1,12
 -29 -408 -29 -408 -29 -353 c 0,13,14
 -29 -317 -29 -317 -17.5 -280.5 c 128,-1,15
 -6 -244 -6 -244 25.5 -197.5 c 128,-1,16
 57 -151 57 -151 117 -85 c 2,17,-1
 192 0 l 1,18,-1
 -40 0 l 1,19,-1
 -14 85 l 1,20,-1
 159 132 l 1,21,-1
 487 1264 l 1,22,-1
 328 1310 l 1,23,-1
 353 1396 l 1,24,-1
 895 1396 l 1,25,-1
 871 1310 l 1,26,-1
 697 1263 l 1,27,-1
 369 131 l 1,28,-1
 528 85 l 1,29,-1
 504 0 l 1,30,-1
 266 0 l 1,31,-1
 192 -102 l 2,32,33
 154 -154 154 -154 133.5 -190.5 c 128,-1,34
 113 -227 113 -227 106 -254 c 128,-1,35
 99 -281 99 -281 99 -303 c 0,0,1
EndSplineSet
EndChar

StartChar: iogonek
Encoding: 303 303 241
Width: 698
GlyphClass: 1
Flags: MW
LayerCount: 2
Fore
SplineSet
465 58 m 2,0,-1
 257 -107 l 2,1,2
 207 -147 207 -147 176 -184.5 c 128,-1,3
 145 -222 145 -222 131.5 -258 c 128,-1,4
 118 -294 118 -294 118 -329 c 0,5,6
 118 -367 118 -367 138.5 -387.5 c 128,-1,7
 159 -408 159 -408 199 -408 c 0,8,9
 227 -408 227 -408 255.5 -398.5 c 128,-1,10
 284 -389 284 -389 329 -359 c 1,11,12
 328 -360 328 -360 332 -422 c 1,13,14
 266 -477 266 -477 218 -498 c 128,-1,15
 170 -519 170 -519 118 -519 c 0,16,17
 52 -519 52 -519 19 -480 c 128,-1,18
 -14 -441 -14 -441 -14 -382 c 0,19,20
 -14 -342 -14 -342 0.5 -298 c 128,-1,21
 15 -254 15 -254 58.5 -202 c 128,-1,22
 102 -150 102 -150 184 -91 c 2,23,-1
 284 -13 l 1,24,25
 270 -16 270 -16 258 -18 c 0,26,27
 228 -23 228 -23 201 -23 c 0,28,29
 129 -23 129 -23 109.5 9.5 c 128,-1,30
 90 42 90 42 124 136 c 2,31,-1
 391 901 l 1,32,33
 373 898 373 898 355 894 c 0,34,35
 301 881 301 881 238 848.5 c 128,-1,36
 175 816 175 816 103 761 c 1,37,-1
 57 833 l 1,38,39
 165 938 165 938 248.5 992.5 c 128,-1,40
 332 1047 332 1047 394.5 1065.5 c 128,-1,41
 457 1084 457 1084 503 1084 c 0,42,43
 573 1084 573 1084 595.5 1048 c 128,-1,44
 618 1012 618 1012 587 926 c 2,45,-1
 320 158 l 1,46,47
 339 160 339 160 358 164 c 0,48,49
 412 173 412 173 470 200.5 c 128,-1,50
 528 228 528 228 590 274 c 1,51,-1
 632 203 l 1,52,53
 595 167 595 167 553 131 c 128,-1,54
 511 95 511 95 465 58 c 2,0,-1
456 1419 m 0,55,56
 456 1467 456 1467 475.5 1504 c 128,-1,57
 495 1541 495 1541 533.5 1562.5 c 128,-1,58
 572 1584 572 1584 627 1584 c 0,59,60
 697 1584 697 1584 733.5 1550 c 128,-1,61
 770 1516 770 1516 770 1461 c 0,62,63
 770 1412 770 1412 750.5 1375 c 128,-1,64
 731 1338 731 1338 693 1316 c 0,65,66
 654 1295 654 1295 598 1295 c 0,67,68
 528 1295 528 1295 492 1329 c 128,-1,69
 456 1363 456 1363 456 1419 c 0,55,56
EndSplineSet
EndChar

StartChar: dotlessi
Encoding: 305 305 243
Width: 695
GlyphClass: 2
Flags: MW
AnchorPoint: "Anchor-4" 225 0 basechar 0
AnchorPoint: "Anchor-3" 370 0 basechar 0
AnchorPoint: "Anchor-0" 502 1066 basechar 0
LayerCount: 2
Fore
SplineSet
320 158 m 1,0,1
 339 160 339 160 358 164 c 0,2,3
 412 173 412 173 470 200.5 c 128,-1,4
 528 228 528 228 590 274 c 1,5,-1
 632 203 l 1,6,7
 537 114 537 114 458.5 65 c 128,-1,8
 380 16 380 16 317 -3.5 c 128,-1,9
 254 -23 254 -23 201 -23 c 0,10,11
 129 -23 129 -23 110 9.5 c 128,-1,12
 91 42 91 42 124 136 c 2,13,-1
 391 901 l 1,14,15
 373 898 373 898 355 894 c 0,16,17
 301 881 301 881 238 848.5 c 128,-1,18
 175 816 175 816 103 761 c 1,19,-1
 57 833 l 1,20,21
 165 938 165 938 248.5 992.5 c 128,-1,22
 332 1047 332 1047 394.5 1065.5 c 128,-1,23
 457 1084 457 1084 503 1084 c 0,24,25
 573 1084 573 1084 595.5 1048 c 128,-1,26
 618 1012 618 1012 587 926 c 2,27,-1
 320 158 l 1,0,1
EndSplineSet
Substitution2: "'case' Case-Sensitive Forms in Latin lookup 8 subtable" I
EndChar

StartChar: kgreenlandic
Encoding: 312 312 248
Width: 1222
GlyphClass: 1
Flags: MW
LayerCount: 2
Fore
SplineSet
1087 775 m 0,0,1
 1079 775 1079 775 1066 795.5 c 128,-1,2
 1053 816 1053 816 1037 843 c 0,3,4
 1022 870 1022 870 1006 888 c 128,-1,5
 990 906 990 906 978 906 c 0,6,7
 958 906 958 906 930 891 c 128,-1,8
 902 876 902 876 856 837 c 128,-1,9
 810 798 810 798 736 728 c 0,10,11
 685 678 685 678 616 608 c 1,12,13
 674 468 674 468 716 380 c 0,14,15
 763 282 763 282 796 230.5 c 128,-1,16
 829 179 829 179 855 162 c 128,-1,17
 881 145 881 145 906 145 c 128,-1,18
 931 145 931 145 959 162.5 c 128,-1,19
 987 180 987 180 1022.5 217 c 128,-1,20
 1058 254 1058 254 1104 309 c 1,21,-1
 1154 254 l 1,22,23
 1078 148 1078 148 1017 87.5 c 128,-1,24
 956 27 956 27 907 2 c 128,-1,25
 858 -23 858 -23 819 -23 c 0,26,27
 778 -23 778 -23 738.5 0 c 128,-1,28
 699 23 699 23 657 83 c 128,-1,29
 615 143 615 143 564 253 c 0,30,31
 513 360 513 360 449 530 c 1,32,-1
 302 0 l 1,33,-1
 111 0 l 1,34,-1
 362 900 l 1,35,36
 361 900 361 900 357.5 900 c 128,-1,37
 354 900 354 900 352 900 c 0,38,39
 295 900 295 900 248.5 885 c 128,-1,40
 202 870 202 870 162 835.5 c 128,-1,41
 122 801 122 801 84 740 c 1,42,-1
 64 748 l 1,43,44
 92 847 92 847 128.5 912 c 128,-1,45
 165 977 165 977 215 1015 c 128,-1,46
 265 1053 265 1053 328.5 1068.5 c 128,-1,47
 392 1084 392 1084 472 1084 c 0,48,49
 504 1084 504 1084 536 1081.5 c 128,-1,50
 568 1079 568 1079 600 1074 c 1,51,-1
 460 568 l 1,52,53
 611 731 611 731 712 832 c 0,54,55
 816 934 816 934 885 989 c 128,-1,56
 954 1044 954 1044 1003 1064 c 128,-1,57
 1052 1084 1052 1084 1097 1084 c 0,58,59
 1169 1084 1169 1084 1204.5 1045.5 c 128,-1,60
 1240 1007 1240 1007 1240 950 c 0,61,62
 1240 888 1240 888 1214 849.5 c 128,-1,63
 1188 811 1188 811 1152 793 c 128,-1,64
 1116 775 1116 775 1087 775 c 0,0,1
EndSplineSet
EndChar

StartChar: Lslash
Encoding: 321 321 257
Width: 1230
GlyphClass: 1
Flags: MW
LayerCount: 2
Fore
SplineSet
956 976 m 1,0,-1
 912 825 l 1,1,-1
 541 638 l 1,2,-1
 396 139 l 1,3,-1
 835 139 l 1,4,-1
 1061 452 l 1,5,-1
 1170 447 l 1,6,-1
 960 -72 l 1,7,-1
 866 -72 l 1,8,-1
 814 0 l 1,9,-1
 356 0 l 1,10,-1
 176 0 l 1,11,-1
 -14 0 l 1,12,-1
 10 85 l 1,13,-1
 184 133 l 1,14,-1
 305 550 l 1,15,-1
 107 450 l 1,16,-1
 152 602 l 1,17,-1
 349 702 l 1,18,-1
 513 1264 l 1,19,-1
 353 1310 l 1,20,-1
 378 1396 l 1,21,-1
 921 1396 l 1,22,-1
 896 1310 l 1,23,-1
 723 1263 l 1,24,-1
 585 788 l 1,25,-1
 956 976 l 1,0,-1
EndSplineSet
EndChar

StartChar: lslash
Encoding: 322 322 258
Width: 775
GlyphClass: 1
Flags: MW
LayerCount: 2
Fore
SplineSet
471 1355 m 1,0,1
 453 1366 453 1366 422.5 1383 c 128,-1,2
 392 1400 392 1400 358 1417 c 128,-1,3
 324 1434 324 1434 295 1446 c 1,4,-1
 311 1513 l 1,5,-1
 685 1587 l 1,6,-1
 724 1587 l 1,7,-1
 521 861 l 1,8,-1
 771 1027 l 1,9,-1
 727 866 l 1,10,-1
 475 698 l 1,11,-1
 324 158 l 1,12,13
 346 160 346 160 370 164 c 0,14,15
 424 174 424 174 483 201.5 c 128,-1,16
 542 229 542 229 604 275 c 1,17,-1
 645 203 l 1,18,19
 549 113 549 113 470.5 64 c 128,-1,20
 392 15 392 15 329 -4 c 128,-1,21
 266 -23 266 -23 215 -23 c 0,22,23
 147 -23 147 -23 126 9 c 128,-1,24
 105 41 105 41 132 136 c 2,25,-1
 261 599 l 1,26,-1
 55 461 l 1,27,-1
 99 623 l 1,28,-1
 306 760 l 1,29,-1
 471 1355 l 1,0,1
EndSplineSet
EndChar

StartChar: Eng
Encoding: 330 330 265
Width: 1537
GlyphClass: 1
Flags: MW
LayerCount: 2
Fore
SplineSet
1112 -132 m 2,0,1
 1078 -253 1078 -253 1023.5 -330.5 c 128,-1,2
 969 -408 969 -408 892.5 -444.5 c 128,-1,3
 816 -481 816 -481 712 -481 c 0,4,5
 616 -481 616 -481 564 -445 c 128,-1,6
 512 -409 512 -409 512 -351 c 0,7,8
 512 -304 512 -304 536.5 -269 c 128,-1,9
 561 -234 561 -234 601 -233 c 0,10,11
 613 -233 613 -233 627.5 -246.5 c 128,-1,12
 642 -260 642 -260 661.5 -278 c 128,-1,13
 681 -296 681 -296 708.5 -310 c 128,-1,14
 736 -324 736 -324 775 -324 c 0,15,16
 820 -324 820 -324 857.5 -306.5 c 128,-1,17
 895 -289 895 -289 925.5 -245.5 c 128,-1,18
 956 -202 956 -202 979 -123 c 2,19,-1
 1011 -13 l 1,20,-1
 612 1225 l 1,21,-1
 294 132 l 1,22,-1
 455 85 l 1,23,-1
 432 0 l 1,24,-1
 -40 0 l 1,25,-1
 -16 85 l 1,26,-1
 157 132 l 1,27,-1
 485 1258 l 1,28,-1
 331 1311 l 1,29,-1
 355 1396 l 1,30,-1
 764 1396 l 1,31,-1
 1108 318 l 1,32,-1
 1383 1264 l 1,33,-1
 1222 1310 l 1,34,-1
 1245 1396 l 1,35,-1
 1718 1396 l 1,36,-1
 1694 1310 l 1,37,-1
 1520 1264 l 1,38,-1
 1112 -132 l 2,0,1
EndSplineSet
EndChar

StartChar: eng
Encoding: 331 331 266
Width: 1224
GlyphClass: 1
Flags: MW
LayerCount: 2
Fore
SplineSet
445 -519 m 0,0,1
 362 -519 362 -519 327 -480.5 c 128,-1,2
 292 -442 292 -442 292 -383 c 0,3,4
 292 -327 292 -327 322 -292.5 c 128,-1,5
 352 -258 352 -258 388 -258 c 0,6,7
 395 -258 395 -258 412 -275 c 128,-1,8
 429 -292 429 -292 450 -314 c 0,9,10
 472 -338 472 -338 489 -353 c 128,-1,11
 506 -368 506 -368 517 -368 c 0,12,13
 544 -368 544 -368 568 -354.5 c 128,-1,14
 592 -341 592 -341 618.5 -301 c 128,-1,15
 645 -261 645 -261 675.5 -181.5 c 128,-1,16
 706 -102 706 -102 743 31 c 2,17,-1
 921 680 l 2,18,19
 931 719 931 719 937 745.5 c 128,-1,20
 943 772 943 772 945 792 c 128,-1,21
 947 812 947 812 947 828 c 0,22,23
 947 860 947 860 924.5 881 c 128,-1,24
 902 902 902 902 855 902 c 0,25,26
 790 902 790 902 724.5 853.5 c 128,-1,27
 659 805 659 805 597.5 717 c 128,-1,28
 536 629 536 629 482 510.5 c 128,-1,29
 428 392 428 392 389 252 c 2,30,-1
 315 0 l 1,31,-1
 117 0 l 1,32,-1
 363 900 l 1,33,34
 361 900 361 900 358 900 c 128,-1,35
 355 900 355 900 352 900 c 0,36,37
 295 900 295 900 248.5 885 c 128,-1,38
 202 870 202 870 162 835.5 c 128,-1,39
 122 801 122 801 84 740 c 1,40,-1
 64 748 l 1,41,42
 97 880 97 880 149.5 953 c 128,-1,43
 202 1026 202 1026 276 1054.5 c 128,-1,44
 350 1083 350 1083 441 1083 c 0,45,46
 460 1083 460 1083 477 1082 c 128,-1,47
 494 1081 494 1081 512 1080 c 128,-1,48
 530 1079 530 1079 550 1075 c 1,49,-1
 383 497 l 1,50,-1
 409 498 l 1,51,52
 479 656 479 656 544.5 767.5 c 128,-1,53
 610 879 610 879 673.5 949.5 c 128,-1,54
 737 1020 737 1020 803.5 1051.5 c 128,-1,55
 870 1083 870 1083 943 1083 c 0,56,57
 1046 1083 1046 1083 1096.5 1033.5 c 128,-1,58
 1147 984 1147 984 1147 900 c 0,59,60
 1147 860 1147 860 1137 801.5 c 128,-1,61
 1127 743 1127 743 1098 646 c 2,62,-1
 946 122 l 2,63,64
 884 -88 884 -88 802.5 -231 c 128,-1,65
 721 -374 721 -374 629.5 -446.5 c 128,-1,66
 538 -519 538 -519 445 -519 c 0,0,1
EndSplineSet
EndChar

StartChar: OE
Encoding: 338 338 273
Width: 2095
GlyphClass: 1
Flags: MW
LayerCount: 2
Fore
SplineSet
1680 470 m 1,0,-1
 1569 470 l 1,1,-1
 1608 660 l 1,2,-1
 1285 660 l 1,3,-1
 1133 139 l 1,4,-1
 1660 139 l 1,5,-1
 1904 419 l 1,6,-1
 2013 414 l 1,7,-1
 1772 -72 l 1,8,-1
 1679 -72 l 1,9,-1
 1629 0 l 1,10,-1
 1093 0 l 1,11,-1
 883 0 l 1,12,-1
 752 0 l 2,13,14
 540 0 540 0 408 61.5 c 128,-1,15
 276 123 276 123 214.5 236.5 c 128,-1,16
 153 350 153 350 153 507 c 0,17,18
 153 699 153 699 211 861.5 c 128,-1,19
 269 1024 269 1024 381.5 1143.5 c 128,-1,20
 494 1263 494 1263 658.5 1329.5 c 128,-1,21
 823 1396 823 1396 1035 1396 c 2,22,-1
 1289 1396 l 1,23,-1
 1499 1396 l 1,24,-1
 2031 1396 l 1,25,-1
 2136 1463 l 1,26,-1
 2217 1463 l 1,27,-1
 2105 1016 l 1,28,-1
 1995 1016 l 1,29,-1
 1993 1256 l 1,30,-1
 1458 1256 l 1,31,-1
 1325 797 l 1,32,-1
 1648 797 l 1,33,-1
 1719 984 l 1,34,-1
 1829 984 l 1,35,-1
 1754 727 l 1,36,-1
 1680 470 l 1,0,-1
1248 1256 m 1,37,-1
 1047 1256 l 2,38,39
 907 1256 907 1256 798 1220 c 128,-1,40
 689 1184 689 1184 608 1117 c 128,-1,41
 527 1050 527 1050 474.5 957.5 c 128,-1,42
 422 865 422 865 396 753 c 128,-1,43
 370 641 370 641 370 514 c 0,44,45
 370 398 370 398 411.5 314 c 128,-1,46
 453 230 453 230 546.5 184.5 c 128,-1,47
 640 139 640 139 795 139 c 2,48,-1
 923 139 l 1,49,-1
 1248 1256 l 1,37,-1
EndSplineSet
EndChar

StartChar: oe
Encoding: 339 339 274
Width: 1680
GlyphClass: 2
Flags: MW
AnchorPoint: "Anchor-4" 717 0 basechar 0
AnchorPoint: "Anchor-0" 1002 1062 basechar 0
LayerCount: 2
Fore
SplineSet
432 111 m 0,0,1
 499 111 499 111 558.5 145.5 c 128,-1,2
 618 180 618 180 664.5 242.5 c 128,-1,3
 711 305 711 305 744 386 c 128,-1,4
 777 467 777 467 794.5 558.5 c 128,-1,5
 812 650 812 650 812 743 c 0,6,7
 812 845 812 845 770 897.5 c 128,-1,8
 728 950 728 950 649 950 c 0,9,10
 582 950 582 950 523.5 915.5 c 128,-1,11
 465 881 465 881 418 819 c 128,-1,12
 371 757 371 757 338 676 c 128,-1,13
 305 595 305 595 287 504 c 128,-1,14
 269 413 269 413 269 319 c 0,15,16
 269 217 269 217 311.5 164 c 128,-1,17
 354 111 354 111 432 111 c 0,0,1
656 1084 m 0,18,19
 758 1084 758 1084 825.5 1043.5 c 128,-1,20
 893 1003 893 1003 932 935 c 0,21,22
 948 908 948 908 959 878 c 1,23,24
 988 912 988 912 1021 941 c 0,25,26
 1098 1009 1098 1009 1189 1046.5 c 128,-1,27
 1280 1084 1280 1084 1375 1084 c 0,28,29
 1472 1084 1472 1084 1531.5 1050 c 128,-1,30
 1591 1016 1591 1016 1617.5 958.5 c 128,-1,31
 1644 901 1644 901 1644 831 c 0,32,33
 1644 777 1644 777 1628 721 c 128,-1,34
 1612 665 1612 665 1586 622 c 1,35,36
 1506 596 1506 596 1424 573 c 128,-1,37
 1342 550 1342 550 1260.5 531 c 128,-1,38
 1179 512 1179 512 1100 496 c 0,39,40
 1037 484 1037 484 979 474 c 1,41,42
 975 432 975 432 975 388 c 0,43,44
 975 249 975 249 1020.5 195 c 128,-1,45
 1066 141 1066 141 1162 141 c 0,46,47
 1221 141 1221 141 1274.5 162.5 c 128,-1,48
 1328 184 1328 184 1376.5 231 c 128,-1,49
 1425 278 1425 278 1468 356 c 1,50,-1
 1558 356 l 1,51,52
 1497 212 1497 212 1426.5 130 c 128,-1,53
 1356 48 1356 48 1275.5 12.5 c 128,-1,54
 1195 -23 1195 -23 1105 -23 c 0,55,56
 1011 -23 1011 -23 946.5 14 c 128,-1,57
 882 51 882 51 845 118 c 0,58,59
 829 148 829 148 817 183 c 1,60,61
 791 151 791 151 760 122 c 0,62,63
 690 55 690 55 606 16 c 128,-1,64
 522 -23 522 -23 427 -23 c 0,65,66
 310 -23 310 -23 231.5 24 c 128,-1,67
 153 71 153 71 112.5 155 c 128,-1,68
 72 239 72 239 72 348 c 0,69,70
 72 495 72 495 116.5 627.5 c 128,-1,71
 161 760 161 760 239.5 863.5 c 128,-1,72
 318 967 318 967 424.5 1025.5 c 128,-1,73
 531 1084 531 1084 656 1084 c 0,18,19
994 578 m 1,74,75
 1111 602 1111 602 1192 623 c 0,76,77
 1287 648 1287 648 1342.5 670 c 128,-1,78
 1398 692 1398 692 1424 716 c 128,-1,79
 1450 740 1450 740 1457.5 767 c 128,-1,80
 1465 794 1465 794 1465 827 c 0,81,82
 1465 869 1465 869 1450 900 c 128,-1,83
 1435 931 1435 931 1406.5 948.5 c 128,-1,84
 1378 966 1378 966 1335 966 c 0,85,86
 1276 966 1276 966 1222 937 c 128,-1,87
 1168 908 1168 908 1122.5 856 c 128,-1,88
 1077 804 1077 804 1044 732 c 0,89,90
 1012 662 1012 662 994 578 c 1,74,75
EndSplineSet
EndChar

StartChar: Scedilla
Encoding: 350 350 285
Width: 1167
GlyphClass: 1
Flags: MW
LayerCount: 2
Fore
SplineSet
330 -481 m 0,0,1
 261 -481 261 -481 232.5 -462.5 c 128,-1,2
 204 -444 204 -444 204 -413 c 0,3,4
 204 -389 204 -389 218 -372 c 256,5,6
 232 -355 232 -355 256 -355 c 0,7,8
 268 -355 268 -355 281.5 -368.5 c 128,-1,9
 295 -382 295 -382 315.5 -396 c 128,-1,10
 336 -410 336 -410 369 -410 c 0,11,12
 424 -410 424 -410 454 -382 c 128,-1,13
 484 -354 484 -354 484 -309 c 0,14,15
 484 -275 484 -275 447.5 -251.5 c 128,-1,16
 411 -228 411 -228 312 -212 c 1,17,-1
 318 -191 l 1,18,-1
 471 -21 l 1,19,20
 457 -21 457 -21 443 -21 c 0,21,22
 324 -21 324 -21 243 -7 c 128,-1,23
 162 7 162 7 90 35 c 1,24,-1
 79 429 l 1,25,-1
 190 429 l 1,26,-1
 285 132 l 1,27,28
 306 128 306 128 327 124 c 0,29,30
 383 116 383 116 451 116 c 0,31,32
 581 116 581 116 667 151.5 c 128,-1,33
 753 187 753 187 796.5 251 c 128,-1,34
 840 315 840 315 840 401 c 0,35,36
 840 464 840 464 814 505.5 c 128,-1,37
 788 547 788 547 745.5 575.5 c 128,-1,38
 703 604 703 604 650.5 625 c 128,-1,39
 598 646 598 646 543 667 c 0,40,41
 471 697 471 697 411.5 733.5 c 128,-1,42
 352 770 352 770 317 829.5 c 128,-1,43
 282 889 282 889 282 985 c 0,44,45
 282 1114 282 1114 341.5 1210.5 c 128,-1,46
 401 1307 401 1307 520 1362 c 128,-1,47
 639 1417 639 1417 817 1417 c 0,48,49
 913 1417 913 1417 994 1399 c 0,50,51
 1030 1391 1030 1391 1065 1378 c 1,52,-1
 1158 1465 l 1,53,-1
 1244 1465 l 1,54,-1
 1134 970 l 1,55,-1
 1024 970 l 1,56,-1
 1007 1234 l 1,57,58
 975 1251 975 1251 937 1264 c 0,59,60
 872 1284 872 1284 788 1284 c 0,61,62
 675 1284 675 1284 605.5 1255.5 c 128,-1,63
 536 1227 536 1227 504.5 1175 c 128,-1,64
 473 1123 473 1123 473 1052 c 0,65,66
 473 982 473 982 508 941 c 128,-1,67
 543 900 543 900 603.5 873 c 128,-1,68
 664 846 664 846 738 816 c 0,69,70
 814 786 814 786 882 745.5 c 128,-1,71
 950 705 950 705 993 637.5 c 128,-1,72
 1036 570 1036 570 1036 459 c 0,73,74
 1036 314 1036 314 967 206 c 128,-1,75
 898 98 898 98 766 38 c 0,76,77
 679 -1 679 -1 565 -14 c 1,78,-1
 470 -119 l 1,79,80
 539 -139 539 -139 570 -170 c 0,81,82
 609 -209 609 -209 609 -260 c 0,83,84
 609 -322 609 -322 577.5 -372 c 128,-1,85
 546 -422 546 -422 484 -451.5 c 128,-1,86
 422 -481 422 -481 330 -481 c 0,0,1
EndSplineSet
Substitution2: "'locl' Localized Forms in Latin lookup 1 subtable" uni0218
Substitution2: "'locl' Localized Forms in Latin lookup 0 subtable" uni0218
EndChar

StartChar: scedilla
Encoding: 351 351 286
Width: 877
GlyphClass: 1
Flags: MW
LayerCount: 2
Fore
SplineSet
194 302 m 1,0,1
 204 238 204 238 216 200 c 128,-1,2
 228 162 228 162 248 135 c 0,3,4
 269 108 269 108 291.5 99 c 128,-1,5
 314 90 314 90 347 90 c 0,6,7
 413 90 413 90 466 111.5 c 128,-1,8
 519 133 519 133 550 174.5 c 128,-1,9
 581 216 581 216 581 275 c 0,10,11
 581 315 581 315 566.5 348 c 128,-1,12
 552 381 552 381 510.5 413.5 c 128,-1,13
 469 446 469 446 390 484 c 0,14,15
 312 522 312 522 268 562 c 128,-1,16
 224 602 224 602 206 648 c 128,-1,17
 188 694 188 694 188 751 c 0,18,19
 188 850 188 850 237 925.5 c 128,-1,20
 286 1001 286 1001 375.5 1042.5 c 128,-1,21
 465 1084 465 1084 587 1084 c 0,22,23
 673 1084 673 1084 730.5 1064 c 128,-1,24
 788 1044 788 1044 818 1007 c 128,-1,25
 848 970 848 970 848 916 c 0,26,27
 848 878 848 878 830.5 848.5 c 128,-1,28
 813 819 813 819 779.5 802.5 c 128,-1,29
 746 786 746 786 695 786 c 1,30,31
 684 838 684 838 670 870.5 c 128,-1,32
 656 903 656 903 637 927 c 0,33,34
 617 951 617 951 593.5 960 c 128,-1,35
 570 969 570 969 538 969 c 0,36,37
 453 969 453 969 400 929.5 c 128,-1,38
 347 890 347 890 347 825 c 0,39,40
 347 792 347 792 360 763 c 128,-1,41
 373 734 373 734 414 703 c 128,-1,42
 455 672 455 672 537 627 c 0,43,44
 620 584 620 584 663.5 537.5 c 128,-1,45
 707 491 707 491 723.5 440 c 128,-1,46
 740 389 740 389 740 332 c 0,47,48
 740 223 740 223 683 143.5 c 128,-1,49
 626 64 626 64 528 20 c 0,50,51
 471 -5 471 -5 404 -15 c 1,52,-1
 305 -129 l 1,53,54
 376 -151 376 -151 407 -184 c 0,55,56
 448 -226 448 -226 448 -281 c 0,57,58
 448 -348 448 -348 415.5 -402 c 128,-1,59
 383 -456 383 -456 319.5 -487.5 c 128,-1,60
 256 -519 256 -519 161 -519 c 0,61,62
 89 -519 89 -519 60 -499.5 c 128,-1,63
 31 -480 31 -480 31 -446 c 0,64,65
 31 -420 31 -420 46 -402 c 0,66,67
 62 -383 62 -383 86 -383 c 0,68,69
 97 -383 97 -383 111 -398 c 128,-1,70
 125 -413 125 -413 146 -428 c 128,-1,71
 167 -443 167 -443 200 -443 c 0,72,73
 257 -443 257 -443 288.5 -412.5 c 128,-1,74
 320 -382 320 -382 320 -334 c 0,75,76
 320 -297 320 -297 282.5 -271.5 c 128,-1,77
 245 -246 245 -246 142 -229 c 1,78,-1
 149 -206 l 1,79,-1
 307 -23 l 1,80,81
 305 -23 305 -23 303 -23 c 0,82,83
 202 -23 202 -23 140 2 c 128,-1,84
 78 27 78 27 50.5 69.5 c 128,-1,85
 23 112 23 112 23 163 c 0,86,87
 23 206 23 206 38 237.5 c 128,-1,88
 53 269 53 269 90.5 285.5 c 128,-1,89
 128 302 128 302 194 302 c 1,0,1
EndSplineSet
Substitution2: "'locl' Localized Forms in Latin lookup 1 subtable" uni0219
Substitution2: "'locl' Localized Forms in Latin lookup 0 subtable" uni0219
EndChar

StartChar: uni0162
Encoding: 354 354 289
Width: 1361
GlyphClass: 1
Flags: MW
LayerCount: 2
Fore
SplineSet
370 -481 m 0,0,1
 301 -481 301 -481 272.5 -462.5 c 128,-1,2
 244 -444 244 -444 244 -413 c 0,3,4
 244 -389 244 -389 258.5 -372 c 128,-1,5
 273 -355 273 -355 296 -355 c 0,6,7
 308 -355 308 -355 321.5 -368.5 c 128,-1,8
 335 -382 335 -382 355.5 -396 c 128,-1,9
 376 -410 376 -410 408 -410 c 0,10,11
 463 -410 463 -410 493.5 -382 c 128,-1,12
 524 -354 524 -354 524 -309 c 0,13,14
 524 -275 524 -275 488 -252 c 0,15,16
 452 -228 452 -228 352 -212 c 1,17,-1
 358 -191 l 1,18,-1
 530 0 l 1,19,-1
 270 0 l 1,20,-1
 294 85 l 1,21,-1
 468 132 l 1,22,-1
 793 1248 l 1,23,-1
 499 1248 l 1,24,-1
 302 949 l 1,25,-1
 188 953 l 1,26,-1
 387 1481 l 1,27,-1
 472 1481 l 1,28,-1
 512 1396 l 1,29,-1
 1346 1396 l 1,30,-1
 1440 1481 l 1,31,-1
 1526 1481 l 1,32,-1
 1446 949 l 1,33,-1
 1339 949 l 1,34,-1
 1311 1248 l 1,35,-1
 1003 1248 l 1,36,-1
 678 131 l 1,37,-1
 837 85 l 1,38,-1
 813 0 l 1,39,-1
 618 0 l 1,40,-1
 510 -119 l 1,41,42
 579 -139 579 -139 610 -170 c 0,43,44
 649 -209 649 -209 649 -260 c 0,45,46
 649 -322 649 -322 617.5 -372 c 128,-1,47
 586 -422 586 -422 524 -451.5 c 128,-1,48
 462 -481 462 -481 370 -481 c 0,0,1
EndSplineSet
EndChar

StartChar: uni0163
Encoding: 355 355 290
Width: 778
GlyphClass: 1
Flags: MW
LayerCount: 2
Fore
SplineSet
125 -519 m 0,0,1
 54 -519 54 -519 25 -499.5 c 128,-1,2
 -4 -480 -4 -480 -4 -446 c 0,3,4
 -4 -420 -4 -420 11.5 -401.5 c 128,-1,5
 27 -383 27 -383 50 -383 c 0,6,7
 62 -383 62 -383 76.5 -398 c 128,-1,8
 91 -413 91 -413 112 -428 c 128,-1,9
 133 -443 133 -443 165 -443 c 0,10,11
 223 -443 223 -443 254.5 -412.5 c 128,-1,12
 286 -382 286 -382 286 -334 c 0,13,14
 286 -297 286 -297 248 -271.5 c 128,-1,15
 210 -246 210 -246 107 -229 c 1,16,-1
 113 -206 l 1,17,-1
 271 -23 l 1,18,19
 219 -22 219 -22 188 12 c 0,20,21
 158 48 158 48 158 121 c 0,22,23
 158 154 158 154 166.5 203 c 128,-1,24
 175 252 175 252 197 328 c 2,25,-1
 365 939 l 1,26,-1
 142 939 l 1,27,-1
 149 1062 l 1,28,-1
 399 1062 l 1,29,-1
 461 1286 l 1,30,-1
 647 1286 l 1,31,-1
 584 1062 l 1,32,-1
 819 1062 l 1,33,-1
 815 939 l 1,34,-1
 550 939 l 1,35,-1
 381 333 l 2,36,37
 371 298 371 298 364.5 271 c 128,-1,38
 358 244 358 244 355 225 c 128,-1,39
 352 206 352 206 352 195 c 0,40,41
 352 169 352 169 360 160.5 c 128,-1,42
 368 152 368 152 386 152 c 0,43,44
 408 152 408 152 441.5 168 c 128,-1,45
 475 184 475 184 523.5 221.5 c 128,-1,46
 572 259 572 259 637 325 c 1,47,-1
 688 258 l 1,48,49
 622 181 622 181 562.5 128 c 128,-1,50
 503 75 503 75 451 42 c 0,51,52
 419 21 419 21 389 7 c 1,53,-1
 270 -129 l 1,54,55
 341 -151 341 -151 372 -184 c 0,56,57
 413 -226 413 -226 413 -281 c 0,58,59
 413 -348 413 -348 381 -402 c 128,-1,60
 349 -456 349 -456 285 -487.5 c 128,-1,61
 221 -519 221 -519 125 -519 c 0,0,1
EndSplineSet
EndChar

StartChar: Tbar
Encoding: 358 358 293
Width: 1365
GlyphClass: 1
Flags: MW
LayerCount: 2
Fore
SplineSet
349 641 m 1,0,-1
 386 770 l 1,1,-1
 654 770 l 1,2,-1
 793 1248 l 1,3,-1
 500 1248 l 1,4,-1
 303 949 l 1,5,-1
 189 953 l 1,6,-1
 387 1481 l 1,7,-1
 473 1481 l 1,8,-1
 513 1396 l 1,9,-1
 1347 1396 l 1,10,-1
 1441 1481 l 1,11,-1
 1527 1481 l 1,12,-1
 1447 949 l 1,13,-1
 1339 949 l 1,14,-1
 1312 1248 l 1,15,-1
 1004 1248 l 1,16,-1
 865 770 l 1,17,-1
 1133 770 l 1,18,-1
 1096 641 l 1,19,-1
 827 641 l 1,20,-1
 679 131 l 1,21,-1
 838 85 l 1,22,-1
 813 0 l 1,23,-1
 271 0 l 1,24,-1
 295 85 l 1,25,-1
 469 132 l 1,26,-1
 617 641 l 1,27,-1
 349 641 l 1,0,-1
EndSplineSet
EndChar

StartChar: tbar
Encoding: 359 359 294
Width: 810
GlyphClass: 1
Flags: MW
LayerCount: 2
Fore
SplineSet
379 195 m 0,0,1
 379 169 379 169 387 160.5 c 128,-1,2
 395 152 395 152 413 152 c 0,3,4
 435 152 435 152 468.5 168 c 128,-1,5
 502 184 502 184 550 221.5 c 128,-1,6
 598 259 598 259 663 325 c 1,7,-1
 715 258 l 1,8,9
 649 181 649 181 589.5 128 c 128,-1,10
 530 75 530 75 478.5 42 c 128,-1,11
 427 9 427 9 382.5 -7 c 128,-1,12
 338 -23 338 -23 300 -23 c 0,13,14
 246 -23 246 -23 215.5 12.5 c 128,-1,15
 185 48 185 48 185 121 c 0,16,17
 185 154 185 154 193.5 203 c 128,-1,18
 202 252 202 252 223 328 c 2,19,-1
 285 553 l 1,20,-1
 104 553 l 1,21,-1
 138 674 l 1,22,-1
 319 674 l 1,23,-1
 392 939 l 1,24,-1
 169 939 l 1,25,-1
 176 1062 l 1,26,-1
 426 1062 l 1,27,-1
 488 1286 l 1,28,-1
 674 1286 l 1,29,-1
 611 1062 l 1,30,-1
 846 1062 l 1,31,-1
 842 939 l 1,32,-1
 577 939 l 1,33,-1
 503 674 l 1,34,-1
 726 674 l 1,35,-1
 693 553 l 1,36,-1
 469 553 l 1,37,-1
 408 333 l 2,38,39
 398 298 398 298 392 271 c 128,-1,40
 386 244 386 244 382.5 225 c 128,-1,41
 379 206 379 206 379 195 c 0,0,1
EndSplineSet
EndChar

StartChar: Uogonek
Encoding: 370 370 305
Width: 1518
GlyphClass: 1
Flags: MW
LayerCount: 2
Fore
SplineSet
530 -305 m 0,0,1
 530 -340 530 -340 550 -359 c 128,-1,2
 570 -378 570 -378 608 -378 c 0,3,4
 636 -378 636 -378 664 -369 c 128,-1,5
 692 -360 692 -360 734 -332 c 1,6,-1
 739 -391 l 1,7,8
 674 -442 674 -442 627 -461.5 c 128,-1,9
 580 -481 580 -481 530 -481 c 0,10,11
 465 -481 465 -481 433.5 -445 c 128,-1,12
 402 -409 402 -409 402 -354 c 0,13,14
 402 -319 402 -319 412.5 -284 c 128,-1,15
 423 -249 423 -249 454 -203.5 c 128,-1,16
 485 -158 485 -158 548 -93 c 2,17,-1
 616 -20 l 1,18,19
 469 -12 469 -12 371 41 c 0,20,21
 255 103 255 103 220.5 234.5 c 128,-1,22
 186 366 186 366 247 576 c 2,23,-1
 447 1264 l 1,24,-1
 288 1310 l 1,25,-1
 313 1396 l 1,26,-1
 855 1396 l 1,27,-1
 831 1310 l 1,28,-1
 657 1263 l 1,29,-1
 442 523 l 2,30,31
 406 396 406 396 426.5 312.5 c 128,-1,32
 447 229 447 229 520.5 188.5 c 128,-1,33
 594 148 594 148 714 148 c 0,34,35
 829 148 829 148 913.5 184 c 128,-1,36
 998 220 998 220 1056 298.5 c 128,-1,37
 1114 377 1114 377 1151 506 c 2,38,-1
 1372 1264 l 1,39,-1
 1210 1310 l 1,40,-1
 1234 1396 l 1,41,-1
 1706 1396 l 1,42,-1
 1682 1310 l 1,43,-1
 1509 1264 l 1,44,-1
 1288 502 l 2,45,46
 1234 315 1234 315 1151.5 199.5 c 128,-1,47
 1069 84 1069 84 950 32 c 0,48,49
 839 -17 839 -17 692 -21 c 1,50,-1
 623 -110 l 2,51,52
 584 -162 584 -162 563.5 -197 c 128,-1,53
 543 -232 543 -232 536.5 -257.5 c 128,-1,54
 530 -283 530 -283 530 -305 c 0,0,1
EndSplineSet
EndChar

StartChar: uogonek
Encoding: 371 371 306
Width: 1263
GlyphClass: 1
Flags: MW
LayerCount: 2
Fore
SplineSet
1233 208 m 1,0,1
 1192 165 1192 165 1148 122 c 0,2,3
 1102 78 1102 78 1054 32 c 2,4,-1
 950 -68 l 2,5,6
 882 -132 882 -132 846 -179 c 128,-1,7
 810 -226 810 -226 797.5 -261 c 128,-1,8
 785 -296 785 -296 785 -327 c 0,9,10
 785 -364 785 -364 806 -386 c 128,-1,11
 827 -408 827 -408 868 -408 c 0,12,13
 897 -408 897 -408 925.5 -398.5 c 128,-1,14
 954 -389 954 -389 998 -359 c 1,15,-1
 1003 -422 l 1,16,17
 937 -477 937 -477 888.5 -498 c 128,-1,18
 840 -519 840 -519 788 -519 c 0,19,20
 721 -519 721 -519 687 -478.5 c 128,-1,21
 653 -438 653 -438 653 -379 c 0,22,23
 653 -339 653 -339 667.5 -299 c 128,-1,24
 682 -259 682 -259 722.5 -208.5 c 128,-1,25
 763 -158 763 -158 842 -87 c 2,26,-1
 942 1 l 1,27,28
 922 -6 922 -6 904 -11 c 0,29,30
 858 -23 858 -23 826 -23 c 0,31,32
 767 -23 767 -23 747.5 4 c 128,-1,33
 728 31 728 31 746 91 c 2,34,-1
 866 488 l 1,35,-1
 845 487 l 1,36,37
 761 322 761 322 693 221 c 128,-1,38
 625 120 625 120 566 67 c 128,-1,39
 507 14 507 14 452 -4.5 c 128,-1,40
 397 -23 397 -23 338 -23 c 0,41,42
 235 -23 235 -23 188 28 c 128,-1,43
 141 79 141 79 141 158 c 0,44,45
 141 198 141 198 153 256.5 c 128,-1,46
 165 315 165 315 202 421 c 2,47,-1
 372 902 l 1,48,49
 353 898 353 898 332 892 c 0,50,51
 279 876 279 876 220 842 c 128,-1,52
 161 808 161 808 95 753 c 1,53,54
 95 754 95 754 48 824 c 1,55,56
 152 930 152 930 233.5 986 c 128,-1,57
 315 1042 315 1042 380 1063 c 128,-1,58
 445 1084 445 1084 494 1084 c 0,59,60
 560 1084 560 1084 581 1047 c 128,-1,61
 602 1010 602 1010 572 923 c 2,62,-1
 364 337 l 2,63,64
 351 298 351 298 343 268.5 c 128,-1,65
 335 239 335 239 335 218 c 0,66,67
 335 183 335 183 358.5 165.5 c 128,-1,68
 382 148 382 148 421 148 c 0,69,70
 459 148 459 148 509.5 172.5 c 128,-1,71
 560 197 560 197 617 253.5 c 128,-1,72
 674 310 674 310 729.5 409 c 128,-1,73
 785 508 785 508 835 656 c 2,74,-1
 972 1062 l 1,75,-1
 1170 1062 l 1,76,-1
 904 151 l 1,77,78
 925 153 925 153 946 157 c 0,79,80
 1001 167 1001 167 1064 197 c 128,-1,81
 1127 227 1127 227 1193 278 c 1,82,-1
 1233 208 l 1,0,1
EndSplineSet
EndChar

StartChar: uni018F
Encoding: 399 399 318
Width: 1382
GlyphClass: 1
Flags: MW
LayerCount: 2
Fore
SplineSet
347 548 m 1,0,1
 342 521 342 521 338 496 c 0,2,3
 329 442 329 442 329 396 c 0,4,5
 329 264 329 264 397.5 195 c 128,-1,6
 466 126 466 126 606 126 c 0,7,8
 704 126 704 126 786 161 c 128,-1,9
 868 196 868 196 933 261 c 128,-1,10
 998 326 998 326 1042 416 c 0,11,12
 1073 477 1073 477 1094 548 c 1,13,-1
 347 548 l 1,0,1
1123 687 m 1,14,15
 1133 761 1133 761 1133 841 c 0,16,17
 1133 974 1133 974 1087.5 1060.5 c 128,-1,18
 1042 1147 1042 1147 953 1190 c 128,-1,19
 864 1233 864 1233 732 1233 c 0,20,21
 647 1233 647 1233 572 1219 c 128,-1,22
 497 1205 497 1205 424.5 1178 c 128,-1,23
 352 1151 352 1151 277 1110 c 1,24,-1
 291 1217 l 1,25,26
 382 1284 382 1284 474 1328 c 128,-1,27
 566 1372 566 1372 654.5 1394.5 c 128,-1,28
 743 1417 743 1417 822 1417 c 0,29,30
 984 1417 984 1417 1101 1353 c 128,-1,31
 1218 1289 1218 1289 1281.5 1169.5 c 128,-1,32
 1345 1050 1345 1050 1345 883 c 0,33,34
 1345 734 1345 734 1308.5 598 c 128,-1,35
 1272 462 1272 462 1203.5 349 c 128,-1,36
 1135 236 1135 236 1040.5 153 c 128,-1,37
 946 70 946 70 832 24.5 c 128,-1,38
 718 -21 718 -21 588 -21 c 0,39,40
 440 -21 440 -21 339 31 c 128,-1,41
 238 83 238 83 186.5 182 c 128,-1,42
 135 281 135 281 135 422 c 0,43,44
 135 481 135 481 144 547.5 c 128,-1,45
 153 614 153 614 172 687 c 1,46,-1
 1123 687 l 1,14,15
EndSplineSet
EndChar

StartChar: Ohorn
Encoding: 416 416 320
Width: 1538
GlyphClass: 2
Flags: MW
AnchorPoint: "Anchor-4" 619 0 basechar 0
LayerCount: 2
Fore
SplineSet
1499 878 m 0,0,1
 1499 735 1499 735 1460.5 601.5 c 128,-1,2
 1422 468 1422 468 1351 355 c 128,-1,3
 1280 242 1280 242 1181 157.5 c 128,-1,4
 1082 73 1082 73 960.5 26 c 128,-1,5
 839 -21 839 -21 701 -21 c 0,6,7
 523 -21 523 -21 400 44.5 c 128,-1,8
 277 110 277 110 213.5 231 c 128,-1,9
 150 352 150 352 150 517 c 0,10,11
 150 661 150 661 188.5 794 c 128,-1,12
 227 927 227 927 298.5 1040 c 128,-1,13
 370 1153 370 1153 469 1238 c 128,-1,14
 568 1323 568 1323 689.5 1370 c 128,-1,15
 811 1417 811 1417 949 1417 c 0,16,17
 1016 1417 1016 1417 1064 1411 c 128,-1,18
 1112 1405 1112 1405 1150 1397.5 c 128,-1,19
 1188 1390 1188 1390 1226 1384 c 128,-1,20
 1264 1378 1264 1378 1310 1378 c 0,21,22
 1395 1378 1395 1378 1433.5 1411.5 c 128,-1,23
 1472 1445 1472 1445 1472 1507 c 0,24,25
 1472 1542 1472 1542 1461.5 1566.5 c 128,-1,26
 1451 1591 1451 1591 1451 1602 c 0,27,28
 1451 1628 1451 1628 1479 1652.5 c 128,-1,29
 1507 1677 1507 1677 1548 1677 c 0,30,31
 1588 1677 1588 1677 1615.5 1648.5 c 128,-1,32
 1643 1620 1643 1620 1643 1563 c 0,33,34
 1643 1428 1643 1428 1564 1354 c 0,35,36
 1489 1285 1489 1285 1335 1290 c 1,37,38
 1417 1217 1417 1217 1456 1118 c 0,39,40
 1499 1008 1499 1008 1499 878 c 0,0,1
364 506 m 0,41,42
 364 328 364 328 448.5 228 c 128,-1,43
 533 128 533 128 708 128 c 0,44,45
 795 128 795 128 872 156 c 128,-1,46
 949 184 949 184 1013 235.5 c 128,-1,47
 1077 287 1077 287 1128 357.5 c 128,-1,48
 1179 428 1179 428 1214 513 c 128,-1,49
 1249 598 1249 598 1267.5 693.5 c 128,-1,50
 1286 789 1286 789 1286 889 c 0,51,52
 1286 1068 1286 1068 1201.5 1168 c 128,-1,53
 1117 1268 1117 1268 942 1268 c 0,54,55
 855 1268 855 1268 778 1240 c 128,-1,56
 701 1212 701 1212 637 1160.5 c 128,-1,57
 573 1109 573 1109 522 1038.5 c 128,-1,58
 471 968 471 968 436 883 c 128,-1,59
 401 798 401 798 382.5 702.5 c 128,-1,60
 364 607 364 607 364 506 c 0,41,42
EndSplineSet
EndChar

StartChar: ohorn
Encoding: 417 417 321
Width: 1116
GlyphClass: 2
Flags: MW
AnchorPoint: "Anchor-4" 389 0 basechar 0
AnchorPoint: "Anchor-0" 681 1062 basechar 0
LayerCount: 2
Fore
SplineSet
1009 714 m 0,0,1
 1009 567 1009 567 965.5 434 c 128,-1,2
 922 301 922 301 842.5 198 c 128,-1,3
 763 95 763 95 657 36 c 128,-1,4
 551 -23 551 -23 427 -23 c 0,5,6
 310 -23 310 -23 231.5 24 c 128,-1,7
 153 71 153 71 112.5 155 c 128,-1,8
 72 239 72 239 72 348 c 0,9,10
 72 495 72 495 116.5 627.5 c 128,-1,11
 161 760 161 760 239.5 863.5 c 128,-1,12
 318 967 318 967 424 1025.5 c 128,-1,13
 530 1084 530 1084 656 1084 c 0,14,15
 708 1084 708 1084 745.5 1078 c 128,-1,16
 783 1072 783 1072 818.5 1065.5 c 128,-1,17
 854 1059 854 1059 901 1059 c 0,18,19
 984 1059 984 1059 1014.5 1094.5 c 128,-1,20
 1045 1130 1045 1130 1045 1188 c 0,21,22
 1045 1221 1045 1221 1034 1246.5 c 128,-1,23
 1023 1272 1023 1272 1023 1284 c 0,24,25
 1023 1312 1023 1312 1051.5 1338.5 c 128,-1,26
 1080 1365 1080 1365 1122 1365 c 0,27,28
 1163 1365 1163 1365 1188.5 1339.5 c 128,-1,29
 1214 1314 1214 1314 1214 1261 c 0,30,31
 1214 1165 1214 1165 1179.5 1098.5 c 128,-1,32
 1145 1032 1145 1032 1075 1002 c 0,33,34
 1013 975 1013 975 921 979 c 1,35,36
 963 934 963 934 984 872 c 0,37,38
 1009 798 1009 798 1009 714 c 0,0,1
432 111 m 0,39,40
 499 111 499 111 558.5 145.5 c 128,-1,41
 618 180 618 180 664.5 242.5 c 128,-1,42
 711 305 711 305 744 386 c 128,-1,43
 777 467 777 467 794.5 558.5 c 128,-1,44
 812 650 812 650 812 743 c 0,45,46
 812 845 812 845 770 897.5 c 128,-1,47
 728 950 728 950 649 950 c 0,48,49
 582 950 582 950 523.5 915.5 c 128,-1,50
 465 881 465 881 418 819 c 128,-1,51
 371 757 371 757 338 676 c 128,-1,52
 305 595 305 595 287 504 c 128,-1,53
 269 413 269 413 269 319 c 0,54,55
 269 217 269 217 311.5 164 c 128,-1,56
 354 111 354 111 432 111 c 0,39,40
EndSplineSet
EndChar

StartChar: Uhorn
Encoding: 431 431 322
Width: 1538
GlyphClass: 2
Flags: MW
AnchorPoint: "Anchor-4" 626 0 basechar 0
LayerCount: 2
Fore
SplineSet
442 523 m 2,0,1
 406 396 406 396 426.5 312.5 c 128,-1,2
 447 229 447 229 520.5 188.5 c 128,-1,3
 594 148 594 148 714 148 c 0,4,5
 829 148 829 148 913.5 184 c 128,-1,6
 998 220 998 220 1056 298.5 c 128,-1,7
 1114 377 1114 377 1151 506 c 2,8,-1
 1372 1264 l 1,9,-1
 1210 1310 l 1,10,-1
 1234 1396 l 1,11,-1
 1546 1396 l 2,12,13
 1654 1396 1654 1396 1693 1427.5 c 128,-1,14
 1732 1459 1732 1459 1732 1512 c 0,15,16
 1732 1543 1732 1543 1721.5 1567 c 128,-1,17
 1711 1591 1711 1591 1711 1602 c 0,18,19
 1711 1628 1711 1628 1738.5 1652.5 c 128,-1,20
 1766 1677 1766 1677 1807 1677 c 0,21,22
 1847 1677 1847 1677 1874.5 1650 c 128,-1,23
 1902 1623 1902 1623 1902 1574 c 0,24,25
 1902 1499 1902 1499 1863.5 1431 c 128,-1,26
 1825 1363 1825 1363 1739.5 1319.5 c 128,-1,27
 1654 1276 1654 1276 1511 1272 c 1,28,-1
 1288 502 l 2,29,30
 1234 315 1234 315 1151.5 199.5 c 128,-1,31
 1069 84 1069 84 950 31.5 c 128,-1,32
 831 -21 831 -21 670 -21 c 0,33,34
 487 -21 487 -21 371 41 c 128,-1,35
 255 103 255 103 220.5 234.5 c 128,-1,36
 186 366 186 366 247 576 c 2,37,-1
 447 1264 l 1,38,-1
 288 1310 l 1,39,-1
 313 1396 l 1,40,-1
 855 1396 l 1,41,-1
 831 1310 l 1,42,-1
 657 1263 l 1,43,-1
 442 523 l 2,0,1
EndSplineSet
EndChar

StartChar: uhorn
Encoding: 432 432 323
Width: 1334
GlyphClass: 2
Flags: MW
AnchorPoint: "Anchor-4" 512 0 basechar 0
AnchorPoint: "Anchor-0" 738 1062 basechar 0
LayerCount: 2
Fore
SplineSet
1463 1261 m 0,0,1
 1463 1182 1463 1182 1423.5 1117.5 c 128,-1,2
 1384 1053 1384 1053 1312 1014 c 0,3,4
 1242 977 1242 977 1145 976 c 1,5,-1
 904 151 l 1,6,7
 925 153 925 153 946 157 c 0,8,9
 1001 167 1001 167 1064 197 c 128,-1,10
 1127 227 1127 227 1193 278 c 1,11,-1
 1233 208 l 1,12,13
 1091 70 1091 70 989.5 23.5 c 128,-1,14
 888 -23 888 -23 826 -23 c 0,15,16
 767 -23 767 -23 747.5 4.5 c 128,-1,17
 728 32 728 32 746 91 c 2,18,-1
 866 488 l 1,19,-1
 845 487 l 1,20,21
 761 322 761 322 693 221 c 128,-1,22
 625 120 625 120 566 67 c 128,-1,23
 507 14 507 14 452 -4.5 c 128,-1,24
 397 -23 397 -23 338 -23 c 0,25,26
 235 -23 235 -23 188 28 c 128,-1,27
 141 79 141 79 141 158 c 0,28,29
 141 198 141 198 153 256.5 c 128,-1,30
 165 315 165 315 202 421 c 2,31,-1
 372 902 l 1,32,33
 353 898 353 898 332 892 c 0,34,35
 279 876 279 876 220 842 c 128,-1,36
 161 808 161 808 95 753 c 1,37,38
 95 754 95 754 48 824 c 1,39,40
 152 930 152 930 233.5 986 c 128,-1,41
 315 1042 315 1042 380 1063 c 128,-1,42
 445 1084 445 1084 494 1084 c 0,43,44
 560 1084 560 1084 581 1047 c 128,-1,45
 602 1010 602 1010 572 923 c 2,46,-1
 364 337 l 2,47,48
 351 298 351 298 343 268.5 c 128,-1,49
 335 239 335 239 335 218 c 0,50,51
 335 183 335 183 358.5 165.5 c 128,-1,52
 382 148 382 148 421 148 c 0,53,54
 459 148 459 148 509.5 172.5 c 128,-1,55
 560 197 560 197 617 253.5 c 128,-1,56
 674 310 674 310 729.5 409 c 128,-1,57
 785 508 785 508 835 656 c 2,58,-1
 972 1062 l 1,59,-1
 1037 1062 l 1,60,-1
 1134 1062 l 2,61,62
 1220 1062 1220 1062 1257 1096 c 128,-1,63
 1294 1130 1294 1130 1294 1188 c 0,64,65
 1294 1221 1294 1221 1283 1246.5 c 128,-1,66
 1272 1272 1272 1272 1272 1284 c 0,67,68
 1272 1312 1272 1312 1300.5 1338.5 c 128,-1,69
 1329 1365 1329 1365 1371 1365 c 0,70,71
 1412 1365 1412 1365 1437.5 1339.5 c 128,-1,72
 1463 1314 1463 1314 1463 1261 c 0,0,1
EndSplineSet
EndChar

StartChar: uni01EA
Encoding: 490 490 335
Width: 1532
GlyphClass: 1
Flags: MW
LayerCount: 2
Fore
SplineSet
493 -305 m 0,0,1
 493 -340 493 -340 513 -359 c 128,-1,2
 533 -378 533 -378 571 -378 c 0,3,4
 599 -378 599 -378 627 -369 c 128,-1,5
 655 -360 655 -360 697 -332 c 1,6,-1
 702 -391 l 1,7,8
 637 -442 637 -442 590 -461.5 c 128,-1,9
 543 -481 543 -481 493 -481 c 0,10,11
 428 -481 428 -481 396.5 -445 c 128,-1,12
 365 -409 365 -409 365 -354 c 0,13,14
 365 -319 365 -319 376 -284 c 128,-1,15
 387 -249 387 -249 419.5 -203 c 128,-1,16
 452 -157 452 -157 517 -92 c 2,17,-1
 592 -14 l 1,18,19
 484 0 484 0 400 44 c 0,20,21
 277 110 277 110 213.5 231 c 128,-1,22
 150 352 150 352 150 517 c 0,23,24
 150 661 150 661 188.5 794 c 128,-1,25
 227 927 227 927 298.5 1040 c 128,-1,26
 370 1153 370 1153 469 1238 c 128,-1,27
 568 1323 568 1323 689.5 1370 c 128,-1,28
 811 1417 811 1417 949 1417 c 0,29,30
 1127 1417 1127 1417 1250 1351 c 128,-1,31
 1373 1285 1373 1285 1436 1164.5 c 128,-1,32
 1499 1044 1499 1044 1499 878 c 0,33,34
 1499 735 1499 735 1460.5 601.5 c 128,-1,35
 1422 468 1422 468 1351 355 c 128,-1,36
 1280 242 1280 242 1181 157.5 c 128,-1,37
 1082 73 1082 73 960.5 26 c 128,-1,38
 839 -21 839 -21 701 -21 c 0,39,40
 682 -21 682 -21 664 -20 c 1,41,-1
 593 -109 l 2,42,43
 551 -160 551 -160 529 -196 c 128,-1,44
 507 -232 507 -232 500 -257.5 c 128,-1,45
 493 -283 493 -283 493 -305 c 0,0,1
364 506 m 0,46,47
 364 328 364 328 448.5 228 c 128,-1,48
 533 128 533 128 708 128 c 0,49,50
 795 128 795 128 872 156 c 128,-1,51
 949 184 949 184 1013 235.5 c 128,-1,52
 1077 287 1077 287 1128 357.5 c 128,-1,53
 1179 428 1179 428 1214 513 c 128,-1,54
 1249 598 1249 598 1267.5 693.5 c 128,-1,55
 1286 789 1286 789 1286 889 c 0,56,57
 1286 1068 1286 1068 1201.5 1168 c 128,-1,58
 1117 1268 1117 1268 942 1268 c 0,59,60
 855 1268 855 1268 778 1240 c 128,-1,61
 701 1212 701 1212 637 1160.5 c 128,-1,62
 573 1109 573 1109 522 1038.5 c 128,-1,63
 471 968 471 968 436 883 c 128,-1,64
 401 798 401 798 382.5 702.5 c 128,-1,65
 364 607 364 607 364 506 c 0,46,47
EndSplineSet
EndChar

StartChar: uni01EB
Encoding: 491 491 336
Width: 1083
GlyphClass: 1
Flags: MW
LayerCount: 2
Fore
SplineSet
350 -118 m 2,0,1
 306 -173 306 -173 282 -212 c 128,-1,2
 258 -251 258 -251 249.5 -278.5 c 128,-1,3
 241 -306 241 -306 241 -329 c 0,4,5
 241 -367 241 -367 262 -387.5 c 128,-1,6
 283 -408 283 -408 323 -408 c 0,7,8
 351 -408 351 -408 379.5 -398.5 c 128,-1,9
 408 -389 408 -389 453 -359 c 1,10,-1
 457 -422 l 1,11,12
 391 -477 391 -477 342.5 -498 c 128,-1,13
 294 -519 294 -519 241 -519 c 0,14,15
 175 -519 175 -519 142 -480.5 c 128,-1,16
 109 -442 109 -442 109 -382 c 0,17,18
 109 -344 109 -344 121.5 -306 c 128,-1,19
 134 -268 134 -268 169 -219 c 128,-1,20
 204 -170 204 -170 272 -99 c 2,21,-1
 349 -17 l 1,22,23
 282 -6 282 -6 232 24 c 0,24,25
 153 71 153 71 112.5 155 c 128,-1,26
 72 239 72 239 72 348 c 0,27,28
 72 495 72 495 116.5 627.5 c 128,-1,29
 161 760 161 760 239.5 863.5 c 128,-1,30
 318 967 318 967 424.5 1025.5 c 128,-1,31
 531 1084 531 1084 656 1084 c 0,32,33
 773 1084 773 1084 850.5 1037 c 128,-1,34
 928 990 928 990 968.5 907 c 128,-1,35
 1009 824 1009 824 1009 714 c 0,36,37
 1009 567 1009 567 965.5 434 c 128,-1,38
 922 301 922 301 842.5 198 c 128,-1,39
 763 95 763 95 657 36 c 128,-1,40
 551 -23 551 -23 427 -23 c 0,41,42
 425 -23 425 -23 423 -23 c 2,43,-1
 350 -118 l 2,0,1
432 111 m 0,44,45
 499 111 499 111 558.5 145.5 c 128,-1,46
 618 180 618 180 664.5 242.5 c 128,-1,47
 711 305 711 305 744 386 c 128,-1,48
 777 467 777 467 794.5 558.5 c 128,-1,49
 812 650 812 650 812 743 c 0,50,51
 812 845 812 845 770 897.5 c 128,-1,52
 728 950 728 950 649 950 c 0,53,54
 582 950 582 950 523.5 915.5 c 128,-1,55
 465 881 465 881 418 819 c 128,-1,56
 371 757 371 757 338 676 c 128,-1,57
 305 595 305 595 287 504 c 128,-1,58
 269 413 269 413 269 319 c 0,59,60
 269 217 269 217 311.5 164 c 128,-1,61
 354 111 354 111 432 111 c 0,44,45
EndSplineSet
EndChar

StartChar: uni0237
Encoding: 567 567 379
Width: 625
GlyphClass: 2
Flags: MW
AnchorPoint: "Anchor-4" -68 -497 basechar 0
AnchorPoint: "Anchor-0" 458 1066 basechar 0
LayerCount: 2
Fore
SplineSet
353 160 m 2,0,1
 292 -62 292 -62 202 -214 c 128,-1,2
 112 -366 112 -366 4.5 -442.5 c 128,-1,3
 -103 -519 -103 -519 -216 -519 c 0,4,5
 -302 -519 -302 -519 -338 -477 c 128,-1,6
 -374 -435 -374 -435 -374 -374 c 0,7,8
 -374 -316 -374 -316 -341.5 -279 c 128,-1,9
 -309 -242 -309 -242 -269 -242 c 0,10,11
 -263 -242 -263 -242 -243.5 -261 c 128,-1,12
 -224 -280 -224 -280 -197 -310 c 0,13,14
 -168 -338 -168 -338 -149 -352 c 128,-1,15
 -130 -366 -130 -366 -119 -366 c 0,16,17
 -87 -366 -87 -366 -56.5 -350 c 128,-1,18
 -26 -334 -26 -334 5.5 -288 c 128,-1,19
 37 -242 37 -242 72 -154 c 0,20,21
 106 -66 106 -66 146 78 c 2,22,-1
 371 901 l 1,23,24
 356 898 356 898 340 894 c 0,25,26
 290 880 290 880 227 846 c 128,-1,27
 164 812 164 812 86 753 c 1,28,-1
 41 824 l 1,29,30
 142 922 142 922 221 979.5 c 128,-1,31
 300 1037 300 1037 363.5 1060.5 c 128,-1,32
 427 1084 427 1084 478 1084 c 0,33,34
 524 1084 524 1084 547 1069 c 128,-1,35
 570 1054 570 1054 573.5 1019 c 128,-1,36
 577 984 577 984 560 926 c 2,37,-1
 353 160 l 2,0,1
EndSplineSet
EndChar

StartChar: uni0259
Encoding: 601 601 380
Width: 979
GlyphClass: 1
Flags: MW
LayerCount: 2
Fore
SplineSet
350 96 m 0,0,1
 410 96 410 96 463.5 124.5 c 128,-1,2
 517 153 517 153 562 205.5 c 128,-1,3
 607 258 607 258 640 330 c 0,4,5
 673 400 673 400 691 483 c 1,6,7
 573 460 573 460 491 438 c 0,8,9
 396 414 396 414 341 391.5 c 128,-1,10
 286 369 286 369 260 345.5 c 128,-1,11
 234 322 234 322 226 295 c 128,-1,12
 218 268 218 268 218 234 c 0,13,14
 218 193 218 193 233.5 162 c 128,-1,15
 249 131 249 131 278 113.5 c 128,-1,16
 307 96 307 96 350 96 c 0,0,1
706 588 m 1,17,18
 710 630 710 630 710 674 c 0,19,20
 710 814 710 814 664 867 c 128,-1,21
 618 920 618 920 522 920 c 0,22,23
 463 920 463 920 409.5 899 c 128,-1,24
 356 878 356 878 307.5 831 c 128,-1,25
 259 784 259 784 216 705 c 1,26,-1
 125 705 l 1,27,28
 187 849 187 849 257.5 931.5 c 128,-1,29
 328 1014 328 1014 408 1049 c 0,30,31
 490 1084 490 1084 580 1084 c 0,32,33
 688 1084 688 1084 760.5 1044 c 128,-1,34
 833 1004 833 1004 869 925.5 c 128,-1,35
 905 847 905 847 905 727 c 0,36,37
 905 598 905 598 875.5 484 c 128,-1,38
 846 370 846 370 792 277.5 c 128,-1,39
 738 185 738 185 663.5 117.5 c 128,-1,40
 589 50 589 50 499 13.5 c 128,-1,41
 409 -23 409 -23 309 -23 c 0,42,43
 212 -23 212 -23 152.5 11 c 128,-1,44
 93 45 93 45 66 103 c 128,-1,45
 39 161 39 161 39 231 c 0,46,47
 39 285 39 285 55 340.5 c 128,-1,48
 71 396 71 396 98 440 c 1,49,50
 177 467 177 467 258.5 489.5 c 128,-1,51
 340 512 340 512 422 531 c 128,-1,52
 504 550 504 550 583 566 c 0,53,54
 646 578 646 578 706 588 c 1,17,18
EndSplineSet
EndChar

StartChar: uni02B9
Encoding: 697 697 381
Width: 404
GlyphClass: 1
Flags: MW
LayerCount: 2
Fore
SplineSet
209 904 m 1,0,-1
 396 1396 l 1,1,-1
 583 1396 l 1,2,-1
 573 1355 l 1,3,-1
 308 904 l 1,4,-1
 209 904 l 1,0,-1
EndSplineSet
EndChar

StartChar: gravecomb
Encoding: 768 768 392
Width: 0
GlyphClass: 4
Flags: MW
AnchorPoint: "Anchor-6" 280 1456 basemark 0
AnchorPoint: "Anchor-6" 143 988 mark 0
AnchorPoint: "Anchor-0" 143 988 mark 0
LayerCount: 2
Fore
SplineSet
238 1106 m 1,0,-1
 147 1106 l 1,1,-1
 -58 1397 l 1,2,-1
 -50 1433 l 1,3,-1
 149 1433 l 1,4,-1
 238 1106 l 1,0,-1
EndSplineSet
EndChar

StartChar: acutecomb
Encoding: 769 769 393
Width: 0
GlyphClass: 4
Flags: MW
AnchorPoint: "Anchor-6" 279 1457 basemark 0
AnchorPoint: "Anchor-6" 143 988 mark 0
AnchorPoint: "Anchor-0" 143 988 mark 0
LayerCount: 2
Fore
SplineSet
117 1106 m 1,0,-1
 365 1433 l 1,1,-1
 593 1433 l 1,2,-1
 583 1397 l 1,3,-1
 219 1106 l 1,4,-1
 117 1106 l 1,0,-1
EndSplineSet
EndChar

StartChar: uni0302
Encoding: 770 770 394
Width: 0
GlyphClass: 4
Flags: MW
AnchorPoint: "Anchor-6" 273 1433 basemark 0
AnchorPoint: "Anchor-6" 143 988 mark 0
AnchorPoint: "Anchor-0" 143 988 mark 0
LayerCount: 2
Fore
SplineSet
-124 1106 m 1,0,-1
 191 1433 l 1,1,-1
 354 1433 l 1,2,-1
 480 1106 l 1,3,-1
 367 1106 l 1,4,-1
 244 1299 l 1,5,-1
 9 1106 l 1,6,-1
 -124 1106 l 1,0,-1
EndSplineSet
EndChar

StartChar: tildecomb
Encoding: 771 771 395
Width: 0
GlyphClass: 4
Flags: MW
AnchorPoint: "Anchor-6" 249 1354 basemark 0
AnchorPoint: "Anchor-6" 143 988 mark 0
AnchorPoint: "Anchor-0" 143 988 mark 0
LayerCount: 2
Fore
SplineSet
553 1419 m 1,0,1
 507 1299 507 1299 469.5 1232.5 c 128,-1,2
 432 1166 432 1166 394.5 1139.5 c 128,-1,3
 357 1113 357 1113 313 1113 c 0,4,5
 275 1113 275 1113 248 1138 c 128,-1,6
 221 1163 221 1163 200 1195.5 c 128,-1,7
 179 1228 179 1228 159.5 1253 c 128,-1,8
 140 1278 140 1278 114 1278 c 0,9,10
 95 1278 95 1278 78 1266.5 c 128,-1,11
 61 1255 61 1255 41 1221.5 c 128,-1,12
 21 1188 21 1188 -7 1119 c 1,13,-1
 -110 1119 l 1,14,15
 -64 1240 -64 1240 -27 1306.5 c 128,-1,16
 10 1373 10 1373 47.5 1399.5 c 128,-1,17
 85 1426 85 1426 130 1426 c 0,18,19
 168 1426 168 1426 194.5 1401 c 128,-1,20
 221 1376 221 1376 242 1343.5 c 128,-1,21
 263 1311 263 1311 283 1286 c 128,-1,22
 303 1261 303 1261 328 1261 c 0,23,24
 348 1261 348 1261 365 1272.5 c 128,-1,25
 382 1284 382 1284 401.5 1318 c 128,-1,26
 421 1352 421 1352 449 1419 c 1,27,-1
 553 1419 l 1,0,1
EndSplineSet
EndChar

StartChar: uni0304
Encoding: 772 772 396
Width: 0
GlyphClass: 4
Flags: MW
AnchorPoint: "Anchor-6" 273 1433 basemark 0
AnchorPoint: "Anchor-6" 143 988 mark 0
AnchorPoint: "Anchor-0" 143 988 mark 0
LayerCount: 2
Fore
SplineSet
-57 1209 m 1,0,-1
 -22 1331 l 1,1,-1
 508 1331 l 1,2,-1
 473 1209 l 1,3,-1
 -57 1209 l 1,0,-1
EndSplineSet
EndChar

StartChar: uni0306
Encoding: 774 774 397
Width: 0
GlyphClass: 4
Flags: MW
AnchorPoint: "Anchor-6" 273 1433 basemark 0
AnchorPoint: "Anchor-6" 143 988 mark 0
AnchorPoint: "Anchor-0" 143 988 mark 0
LayerCount: 2
Fore
SplineSet
209 1240 m 0,0,1
 264 1240 264 1240 307 1257.5 c 128,-1,2
 350 1275 350 1275 386 1317.5 c 128,-1,3
 422 1360 422 1360 457 1433 c 1,4,-1
 553 1433 l 1,5,6
 498 1305 498 1305 444 1232 c 128,-1,7
 390 1159 390 1159 327.5 1129 c 128,-1,8
 265 1099 265 1099 183 1099 c 0,9,10
 97 1099 97 1099 50 1132.5 c 128,-1,11
 3 1166 3 1166 -11 1239.5 c 128,-1,12
 -25 1313 -25 1313 -9 1433 c 1,13,-1
 74 1433 l 1,14,15
 68 1359 68 1359 79.5 1316.5 c 128,-1,16
 91 1274 91 1274 123 1257 c 128,-1,17
 155 1240 155 1240 209 1240 c 0,0,1
EndSplineSet
EndChar

StartChar: uni0307
Encoding: 775 775 398
Width: 0
GlyphClass: 4
Flags: MW
AnchorPoint: "Anchor-6" 249 1354 basemark 0
AnchorPoint: "Anchor-6" 143 988 mark 0
AnchorPoint: "Anchor-0" 143 988 mark 0
LayerCount: 2
Fore
SplineSet
212 1151 m 0,0,1
 156 1151 156 1151 124.5 1179.5 c 128,-1,2
 93 1208 93 1208 93 1256 c 0,3,4
 93 1314 93 1314 129 1351 c 128,-1,5
 165 1388 165 1388 238 1388 c 0,6,7
 295 1388 295 1388 325.5 1361 c 128,-1,8
 356 1334 356 1334 356 1285 c 0,9,10
 356 1227 356 1227 321 1189 c 128,-1,11
 286 1151 286 1151 212 1151 c 0,0,1
EndSplineSet
EndChar

StartChar: uni0308
Encoding: 776 776 399
Width: 0
GlyphClass: 4
Flags: MW
AnchorPoint: "Anchor-6" 249 1354 basemark 0
AnchorPoint: "Anchor-6" 143 988 mark 0
AnchorPoint: "Anchor-0" 143 988 mark 0
LayerCount: 2
Fore
SplineSet
408 1157 m 0,0,1
 360 1157 360 1157 333 1183.5 c 128,-1,2
 306 1210 306 1210 306 1256 c 0,3,4
 306 1291 306 1291 319.5 1319.5 c 128,-1,5
 333 1348 333 1348 362.5 1365 c 128,-1,6
 392 1382 392 1382 436 1382 c 0,7,8
 484 1382 484 1382 511.5 1356.5 c 128,-1,9
 539 1331 539 1331 539 1285 c 0,10,11
 539 1250 539 1250 524.5 1221 c 128,-1,12
 510 1192 510 1192 481.5 1174.5 c 128,-1,13
 453 1157 453 1157 408 1157 c 0,0,1
13 1157 m 0,14,15
 -35 1157 -35 1157 -62 1183.5 c 128,-1,16
 -89 1210 -89 1210 -89 1256 c 0,17,18
 -89 1291 -89 1291 -75 1319.5 c 128,-1,19
 -61 1348 -61 1348 -32 1365 c 128,-1,20
 -3 1382 -3 1382 41 1382 c 0,21,22
 89 1382 89 1382 116 1356.5 c 128,-1,23
 143 1331 143 1331 143 1285 c 0,24,25
 143 1250 143 1250 129 1221 c 128,-1,26
 115 1192 115 1192 86.5 1174.5 c 128,-1,27
 58 1157 58 1157 13 1157 c 0,14,15
EndSplineSet
EndChar

StartChar: hookabovecomb
Encoding: 777 777 400
Width: 0
GlyphClass: 4
Flags: MW
AnchorPoint: "Anchor-6" 273 1433 basemark 0
AnchorPoint: "Anchor-6" 143 988 mark 0
AnchorPoint: "Anchor-0" 143 988 mark 0
LayerCount: 2
Fore
SplineSet
71 1340 m 1,0,-1
 115 1474 l 1,1,2
 239 1470 239 1470 304.5 1450 c 128,-1,3
 370 1430 370 1430 395 1397.5 c 128,-1,4
 420 1365 420 1365 420 1324 c 0,5,6
 420 1269 420 1269 394.5 1224.5 c 128,-1,7
 369 1180 369 1180 301 1147 c 0,8,9
 232 1114 232 1114 104 1091 c 1,10,-1
 107 1157 l 1,11,12
 182 1173 182 1173 219 1190.5 c 128,-1,13
 256 1208 256 1208 268.5 1227.5 c 128,-1,14
 281 1247 281 1247 281 1269 c 128,-1,15
 281 1291 281 1291 265 1306 c 128,-1,16
 249 1321 249 1321 204 1330 c 128,-1,17
 159 1339 159 1339 71 1340 c 1,0,-1
EndSplineSet
EndChar

StartChar: uni030A
Encoding: 778 778 401
Width: 0
GlyphClass: 4
Flags: MW
AnchorPoint: "Anchor-6" 274 1435 basemark 0
AnchorPoint: "Anchor-6" 143 988 mark 0
AnchorPoint: "Anchor-0" 143 988 mark 0
LayerCount: 2
Fore
SplineSet
207 1155 m 0,0,1
 270 1155 270 1155 302.5 1197.5 c 128,-1,2
 335 1240 335 1240 335 1294 c 0,3,4
 335 1340 335 1340 311.5 1365.5 c 128,-1,5
 288 1391 288 1391 242 1391 c 0,6,7
 178 1391 178 1391 145.5 1348 c 128,-1,8
 113 1305 113 1305 113 1248 c 0,9,10
 113 1205 113 1205 137.5 1180 c 128,-1,11
 162 1155 162 1155 207 1155 c 0,0,1
250 1454 m 0,12,13
 320 1454 320 1454 361.5 1412 c 128,-1,14
 403 1370 403 1370 403 1301 c 0,15,16
 403 1214 403 1214 349 1152 c 0,17,18
 296 1090 296 1090 200 1090 c 0,19,20
 131 1090 131 1090 89 1132 c 128,-1,21
 47 1174 47 1174 47 1242 c 0,22,23
 47 1329 47 1329 101 1391.5 c 128,-1,24
 155 1454 155 1454 250 1454 c 0,12,13
EndSplineSet
EndChar

StartChar: uni030B
Encoding: 779 779 402
Width: 0
GlyphClass: 4
Flags: MW
AnchorPoint: "Anchor-6" 273 1433 basemark 0
AnchorPoint: "Anchor-6" 143 988 mark 0
AnchorPoint: "Anchor-0" 143 988 mark 0
LayerCount: 2
Fore
SplineSet
-11 1106 m 1,0,-1
 161 1433 l 1,1,-1
 359 1433 l 1,2,-1
 351 1401 l 1,3,-1
 73 1106 l 1,4,-1
 -11 1106 l 1,0,-1
248 1106 m 1,5,-1
 507 1433 l 1,6,-1
 724 1433 l 1,7,-1
 714 1397 l 1,8,-1
 346 1106 l 1,9,-1
 248 1106 l 1,5,-1
EndSplineSet
EndChar

StartChar: uni030C
Encoding: 780 780 403
Width: 0
GlyphClass: 4
Flags: MW
AnchorPoint: "Anchor-6" 273 1433 basemark 0
AnchorPoint: "Anchor-6" 143 988 mark 0
AnchorPoint: "Anchor-0" 143 988 mark 0
LayerCount: 2
Fore
SplineSet
575 1433 m 1,0,-1
 259 1106 l 1,1,-1
 96 1106 l 1,2,-1
 -29 1433 l 1,3,-1
 84 1433 l 1,4,-1
 206 1240 l 1,5,-1
 441 1433 l 1,6,-1
 575 1433 l 1,0,-1
EndSplineSet
EndChar

StartChar: uni030F
Encoding: 783 783 404
Width: 0
GlyphClass: 4
Flags: MW
AnchorPoint: "Anchor-6" 273 1433 basemark 0
AnchorPoint: "Anchor-6" 143 988 mark 0
AnchorPoint: "Anchor-0" 143 988 mark 0
LayerCount: 2
Fore
SplineSet
370 1106 m 1,0,-1
 283 1106 l 1,1,-1
 174 1401 l 1,2,-1
 180 1433 l 1,3,-1
 357 1433 l 1,4,-1
 370 1106 l 1,0,-1
108 1106 m 1,5,-1
 13 1106 l 1,6,-1
 -188 1397 l 1,7,-1
 -180 1433 l 1,8,-1
 4 1433 l 1,9,-1
 108 1106 l 1,5,-1
EndSplineSet
EndChar

StartChar: uni0311
Encoding: 785 785 405
Width: 0
GlyphClass: 4
Flags: MW
AnchorPoint: "Anchor-6" 273 1433 basemark 0
AnchorPoint: "Anchor-6" 143 988 mark 0
AnchorPoint: "Anchor-0" 143 988 mark 0
LayerCount: 2
Fore
SplineSet
241 1299 m 0,0,1
 187 1299 187 1299 144.5 1281.5 c 128,-1,2
 102 1264 102 1264 65 1222 c 128,-1,3
 28 1180 28 1180 -7 1106 c 1,4,-1
 -103 1106 l 1,5,6
 -47 1234 -47 1234 7 1306.5 c 128,-1,7
 61 1379 61 1379 123.5 1409.5 c 128,-1,8
 186 1440 186 1440 267 1440 c 0,9,10
 353 1440 353 1440 400 1406.5 c 128,-1,11
 447 1373 447 1373 461 1299.5 c 128,-1,12
 475 1226 475 1226 459 1106 c 1,13,-1
 377 1106 l 1,14,15
 387 1218 387 1218 355.5 1258.5 c 128,-1,16
 324 1299 324 1299 241 1299 c 0,0,1
EndSplineSet
EndChar

StartChar: uni0312
Encoding: 786 786 406
Width: 0
GlyphClass: 4
Flags: MW
AnchorPoint: "Anchor-6" 274 1437 basemark 0
AnchorPoint: "Anchor-6" 143 988 mark 0
AnchorPoint: "Anchor-0" 143 988 mark 0
LayerCount: 2
Fore
SplineSet
322 1204 m 0,0,1
 322 1165 322 1165 288.5 1130 c 128,-1,2
 255 1095 255 1095 198 1095 c 0,3,4
 151 1095 151 1095 123.5 1122.5 c 128,-1,5
 96 1150 96 1150 96 1203 c 128,-1,6
 96 1256 96 1256 122 1307.5 c 128,-1,7
 148 1359 148 1359 213 1401 c 128,-1,8
 278 1443 278 1443 398 1463 c 1,9,-1
 391 1396 l 1,10,11
 325 1382 325 1382 291 1362.5 c 128,-1,12
 257 1343 257 1343 245.5 1322.5 c 128,-1,13
 234 1302 234 1302 234 1284 c 0,14,15
 234 1259 234 1259 255.5 1246 c 128,-1,16
 277 1233 277 1233 299.5 1224.5 c 128,-1,17
 322 1216 322 1216 322 1204 c 0,0,1
EndSplineSet
EndChar

